<svg xmlns="http://www.w3.org/2000/svg" viewBox="-2251 3271 60 47.263"><defs><style>.cls-1,.cls-2{fill:none}.cls-1{clip-rule:evenodd}.cls-3{clip-path:url(#clip-path)}.cls-4{clip-path:url(#clip-path-2)}.cls-5{fill:#f7c977}.cls-6{clip-path:url(#clip-path-3)}.cls-7{clip-path:url(#clip-path-5)}.cls-8{clip-path:url(#clip-path-7)}.cls-9{clip-path:url(#clip-path-9)}.cls-10{clip-path:url(#clip-path-11)}.cls-11{clip-path:url(#clip-path-13)}.cls-12{clip-path:url(#clip-path-15)}.cls-13{clip-path:url(#clip-path-17)}.cls-14{clip-path:url(#clip-path-19)}.cls-15{clip-path:url(#clip-path-21)}.cls-16{clip-path:url(#clip-path-23)}.cls-17{clip-path:url(#clip-path-25)}</style><clipPath id="clip-path"><path id="Path_160" data-name="Path 160" class="cls-1" d="M12.333-72.593a3.829 3.829 0 0 1 1.567 3.06 4.034 4.034 0 0 1-2.236 3.553A8.124 8.124 0 0 1 7.4-64.826a8.561 8.561 0 0 1-3.154-.582A5.663 5.663 0 0 1 1.7-67.286a.392.392 0 0 1-.051-.44.745.745 0 0 1 .316-.295l3.511-1.654a1.226 1.226 0 0 1 .888.093 3.442 3.442 0 0 0 1.031.285 2.452 2.452 0 0 0 .919-.175q.571-.234.571-.642 0-.8-1.48-.776a8.948 8.948 0 0 1-1.786-.152 6.469 6.469 0 0 1-3.143-1.552 4.158 4.158 0 0 1-1.564-3.174 4.193 4.193 0 0 1 2.195-3.653 7.755 7.755 0 0 1 4.3-1.225 8.168 8.168 0 0 1 3.49.756 5.157 5.157 0 0 1 2.58 2.39.7.7 0 0 1 .081.306c0 .218-.153.364-.459.439L9.4-75.4c-.272.1-.456.115-.551.04l-.318-.225a1.946 1.946 0 0 0-1.142-.3 2.435 2.435 0 0 0-.908.174q-.572.235-.571.633t.571.632a2.346 2.346 0 0 0 .908.173 8.673 8.673 0 0 1 2.592.491 7.237 7.237 0 0 1 2.347 1.184" transform="translate(-.912 80.646)"/></clipPath><clipPath id="clip-path-2"><path id="Path_159" data-name="Path 159" class="cls-2" d="M-524 646.117H614.254V-288H-524z" transform="translate(524 288)"/></clipPath><clipPath id="clip-path-3"><path id="Path_163" data-name="Path 163" class="cls-1" d="M29.577-71.1q-.184-.368-.541-1.091a.309.309 0 0 0-.215-.123.279.279 0 0 0-.214.134c-.136.251-.323.622-.562 1.111-.081.191-.026.3.164.327h1.245a.135.135 0 0 0 .153-.153.362.362 0 0 0-.03-.205zm.49-8.918L37.4-65.483a.57.57 0 0 1 .071.245q0 .347-.724.347h-3.16a2.182 2.182 0 0 1-.694-.064 1.27 1.27 0 0 1-.418-.528 1.15 1.15 0 0 0-1.133-.633q-1.449.02-2.572 0h-2.551a.989.989 0 0 0-.979.592 1.326 1.326 0 0 1-.368.547 1.717 1.717 0 0 1-.695.087l-1.622-.01q-.531 0-1.613-.009c-.489 0-.735-.12-.735-.358a.653.653 0 0 1 .082-.286l7.3-14.46a1.305 1.305 0 0 1 1.235-.787 1.312 1.312 0 0 1 1.245.787z" transform="translate(-20.207 80.802)"/></clipPath><clipPath id="clip-path-5"><path id="Path_166" data-name="Path 166" class="cls-1" d="M52.841-80.611a.442.442 0 0 1 .5.5v14.8a.442.442 0 0 1-.5.5h-4.02a.442.442 0 0 1-.5-.5v-14.8a.442.442 0 0 1 .5-.5h4.021" transform="translate(-48.32 80.611)"/></clipPath><clipPath id="clip-path-7"><path id="Path_169" data-name="Path 169" class="cls-1" d="M70.6-80.634a.442.442 0 0 1 .5.5v14.952c0 .291-.095.439-.285.439a.469.469 0 0 1-.133-.02 2.189 2.189 0 0 1-.593-.237l-5.369-3.45c-.184-.116-.275-.081-.275.1q-.01.887 0 1.459v1.459a.532.532 0 0 1-.612.592h-3.94a.446.446 0 0 1-.51-.5v-14.875q0-.479.388-.419a1.505 1.505 0 0 1 .531.164l5.235 3.57a.614.614 0 0 0 .306.133c.136 0 .2-.123.2-.368v-3c0-.347.2-.514.592-.5q1.1.021 1.98 0H70.6" transform="translate(-59.383 80.64)"/></clipPath><clipPath id="clip-path-9"><path id="Path_172" data-name="Path 172" class="cls-1" d="M81.362-80.576h12.077q.613 0 .612.47v3.766q0 .469-.61.47h-3.087c-.292 0-.437.162-.437.489V-65.3a.443.443 0 0 1-.5.5H85.4a.443.443 0 0 1-.5-.5v-10.081c0-.327-.143-.489-.429-.489h-3.1q-.612 0-.612-.47v-3.766q0-.469.612-.47" transform="translate(-80.75 80.576)"/></clipPath><clipPath id="clip-path-11"><path id="Path_175" data-name="Path 175" class="cls-1" d="M7.35-53.81a.442.442 0 0 1 .5.5v9.756q0 .52.479.52h4.165a.442.442 0 0 1 .5.5v4.021a.442.442 0 0 1-.5.5H3.339a.447.447 0 0 1-.511-.5v-14.8a.447.447 0 0 1 .511-.5H7.35" transform="translate(-2.828 53.81)"/></clipPath><clipPath id="clip-path-13"><path id="Path_178" data-name="Path 178" class="cls-1" d="M19.925-53.824l10.809-.019c.374 0 .562.159.562.48v3.754q0 .47-.56.47H25c-.387 0-.57.182-.55.552s.2.55.55.55h5.157c.353 0 .529.146.529.439v3.47c0 .285-.176.428-.53.428h-5.23q-.479 0-.479.592-.011.552.479.552h5.808q.562 0 .562.448v3.573q0 .449-.562.45-1.807 0-5.409.03t-5.4.031a.443.443 0 0 1-.5-.5v-14.8a.442.442 0 0 1 .5-.5" transform="translate(-19.425 53.843)"/></clipPath><clipPath id="clip-path-15"><path id="Path_181" data-name="Path 181" class="cls-1" d="M47.629-49.67a3.206 3.206 0 0 0-2.353.974 3.205 3.205 0 0 0-.974 2.352 3.212 3.212 0 0 0 .97 2.358 3.209 3.209 0 0 0 2.358.97 3.206 3.206 0 0 0 2.352-.976 3.2 3.2 0 0 0 .974-2.353 3.205 3.205 0 0 0-.974-2.352 3.2 3.2 0 0 0-2.353-.973zm0-5.082a8.11 8.11 0 0 1 5.95 2.458 8.112 8.112 0 0 1 2.46 5.95 8.109 8.109 0 0 1-2.455 5.956 8.109 8.109 0 0 1-5.954 2.454 8.115 8.115 0 0 1-5.96-2.449 8.115 8.115 0 0 1-2.45-5.962 8.1 8.1 0 0 1 2.453-5.955 8.109 8.109 0 0 1 5.956-2.455z" transform="translate(-39.219 54.752)"/></clipPath><clipPath id="clip-path-17"><path id="Path_184" data-name="Path 184" class="cls-1" d="M79.191-53.833a.442.442 0 0 1 .5.5v14.951c0 .293-.1.439-.285.439a.481.481 0 0 1-.133-.02 2.138 2.138 0 0 1-.593-.235l-5.368-3.45c-.183-.115-.275-.081-.275.1q-.011.888 0 1.459v1.459a.533.533 0 0 1-.613.592h-3.94a.446.446 0 0 1-.509-.5v-14.88c0-.32.129-.458.387-.418a1.559 1.559 0 0 1 .531.163l5.236 3.573a.61.61 0 0 0 .306.133c.136 0 .2-.123.2-.367v-3c0-.347.2-.512.593-.5q1.1.021 1.98 0h1.979" transform="translate(-67.975 53.839)"/></clipPath><clipPath id="clip-path-19"><path id="Path_187" data-name="Path 187" class="cls-1" d="M100.267-53.843c.3 0 .433.13.395.395l-.556 3.761c-.043.295-.175.443-.4.443h-1.651a.464.464 0 0 1-.541-.33.094.094 0 0 1-.016-.049 2.094 2.094 0 0 1 .315-.468c.1-.135.043-.2-.177-.2h-.549a.354.354 0 0 1-.4-.4v-2.752a.348.348 0 0 1 .4-.395h3.18" transform="translate(-96.691 53.843)"/></clipPath><clipPath id="clip-path-21"><path id="Path_190" data-name="Path 190" class="cls-1" d="M10.281-17.5c-.122-.244-.3-.609-.54-1.091a.309.309 0 0 0-.215-.123.284.284 0 0 0-.215.132c-.136.253-.322.623-.56 1.114-.081.19-.027.3.163.326h1.245a.135.135 0 0 0 .152-.153.352.352 0 0 0-.03-.205zm.49-8.917l7.338 14.531a.563.563 0 0 1 .072.244c0 .231-.243.347-.726.347h-3.163a2.235 2.235 0 0 1-.693-.063 1.268 1.268 0 0 1-.419-.529 1.148 1.148 0 0 0-1.132-.633q-1.449.02-2.571 0H6.923a.99.99 0 0 0-.979.591 1.305 1.305 0 0 1-.368.547 1.721 1.721 0 0 1-.694.087L3.26-11.3q-.532 0-1.613-.011-.735 0-.735-.356a.655.655 0 0 1 .082-.286l7.3-14.462a1.305 1.305 0 0 1 1.232-.785 1.311 1.311 0 0 1 1.245.788z" transform="translate(-.912 27.202)"/></clipPath><clipPath id="clip-path-23"><path id="Path_193" data-name="Path 193" class="cls-1" d="M33.275-22.314h-.133a.434.434 0 0 0-.5.469v1.3q0 .5.439.48l.194-.011a7.909 7.909 0 0 0 1.847-.246.891.891 0 0 0 .622-.918.87.87 0 0 0-.622-.908 6.885 6.885 0 0 0-1.847-.166zm-.143 7.278a.411.411 0 0 0-.306-.194c-.122-.015-.194.085-.214.3v3.193a.443.443 0 0 1-.5.5h-4.023a.442.442 0 0 1-.5-.5v-14.8c0-.333.156-.5.469-.5l6.695-.04a5.825 5.825 0 0 1 3.654 1.141 5.313 5.313 0 0 1 2 3.246 6.281 6.281 0 0 1 .132 1.276 6.334 6.334 0 0 1-.428 2.255 4.86 4.86 0 0 1-2.357 2.684.392.392 0 0 0-.256.337.669.669 0 0 0 .184.4l2.623 4a.629.629 0 0 1 .133.318c0 .122-.1.184-.306.184h-4.01a.961.961 0 0 1-.826-.5l-2.164-3.3z" transform="translate(-27.59 27.079)"/></clipPath><clipPath id="clip-path-25"><path id="Path_196" data-name="Path 196" class="cls-1" d="M48.085-26.976h10.767q.612 0 .613.469v3.766c0 .314-.2.47-.611.47h-2.433q-.438 0-.438.491v10.08a.442.442 0 0 1-.5.5h-4.02a.443.443 0 0 1-.5-.5v-10.081c0-.327-.143-.491-.428-.491h-2.45c-.409 0-.612-.156-.612-.47v-3.766c0-.313.2-.469.612-.469" transform="translate(-47.473 26.976)"/></clipPath></defs><g id="Symbol_4_4" data-name="Symbol 4 – 4" transform="translate(-2409 3261)"><g id="Group_71" data-name="Group 71" class="cls-3" transform="translate(158 10.091)"><g id="Group_70" data-name="Group 70" class="cls-4" transform="translate(-307.031 -121.285)"><path id="Path_158" data-name="Path 158" class="cls-5" d="M-4.088-85.646h18.842v21.669H-4.088z" transform="translate(308.195 204.007)"/></g></g><g id="Group_73" data-name="Group 73" class="cls-6" transform="translate(169.286 10)"><g id="Group_72" data-name="Group 72" class="cls-4" transform="translate(-318.318 -121.194)"><path id="Path_161" data-name="Path 161" class="cls-5" d="M15.207-85.8h23.118v21.76H15.207z" transform="translate(300.186 204.072)"/></g></g><g id="Group_75" data-name="Group 75" class="cls-7" transform="translate(185.73 10.112)"><g id="Group_74" data-name="Group 74" class="cls-4" transform="translate(-334.761 -121.306)"><path id="Path_164" data-name="Path 164" class="cls-5" d="M43.32-85.611h10.87v21.648H43.32z" transform="translate(288.517 203.992)"/></g></g><g id="Group_77" data-name="Group 77" class="cls-8" transform="translate(192.201 10.095)"><g id="Group_76" data-name="Group 76" class="cls-4" transform="translate(-341.232 -121.289)"><path id="Path_167" data-name="Path 167" class="cls-5" d="M54.383-85.64h17.566v21.747H54.383z" transform="translate(283.925 204.005)"/></g></g><g id="Group_79" data-name="Group 79" class="cls-9" transform="translate(204.699 10.132)"><g id="Group_78" data-name="Group 78" class="cls-4" transform="translate(-353.73 -121.326)"><path id="Path_170" data-name="Path 170" class="cls-5" d="M75.75-85.576H94.9v21.628H75.75z" transform="translate(275.056 203.978)"/></g></g><g id="Group_81" data-name="Group 81" class="cls-10" transform="translate(159.121 25.788)"><g id="Group_80" data-name="Group 80" class="cls-4" transform="translate(-308.152 -136.982)"><path id="Path_173" data-name="Path 173" class="cls-5" d="M-2.172-58.81h16.015v21.648H-2.172z" transform="translate(307.4 192.868)"/></g></g><g id="Group_83" data-name="Group 83" class="cls-11" transform="translate(168.829 25.769)"><g id="Group_82" data-name="Group 82" class="cls-4" transform="translate(-317.86 -136.963)"><path id="Path_176" data-name="Path 176" class="cls-5" d="M14.425-58.843h17.719v21.667H14.425z" transform="translate(300.51 192.881)"/></g></g><g id="Group_85" data-name="Group 85" class="cls-12" transform="translate(180.407 25.237)"><g id="Group_84" data-name="Group 84" class="cls-4" transform="translate(-329.438 -136.431)"><path id="Path_179" data-name="Path 179" class="cls-5" d="M34.219-59.752h22.669v22.668H34.219z" transform="translate(292.294 193.259)"/></g></g><g id="Group_87" data-name="Group 87" class="cls-13" transform="translate(197.226 25.771)"><g id="Group_86" data-name="Group 86" class="cls-4" transform="translate(-346.258 -136.965)"><path id="Path_182" data-name="Path 182" class="cls-5" d="M62.975-58.839H80.54v21.746H62.975z" transform="translate(280.358 192.88)"/></g></g><g id="Group_89" data-name="Group 89" class="cls-14" transform="translate(214.023 25.769)"><g id="Group_88" data-name="Group 88" class="cls-4" transform="translate(-363.055 -136.963)"><path id="Path_185" data-name="Path 185" class="cls-5" d="M91.691-58.843h9.826v10.453h-9.826z" transform="translate(268.439 192.881)"/></g></g><g id="Group_91" data-name="Group 91" class="cls-15" transform="translate(158 41.352)"><g id="Group_90" data-name="Group 90" class="cls-4" transform="translate(-307.031 -152.546)"><path id="Path_188" data-name="Path 188" class="cls-5" d="M-4.088-32.2H19.03v21.76H-4.088z" transform="translate(308.195 181.823)"/></g></g><g id="Group_93" data-name="Group 93" class="cls-16" transform="translate(173.604 41.424)"><g id="Group_92" data-name="Group 92" class="cls-4" transform="translate(-322.636 -152.618)"><path id="Path_191" data-name="Path 191" class="cls-5" d="M22.59-32.079h18.8v21.688h-18.8z" transform="translate(297.121 181.772)"/></g></g><g id="Group_95" data-name="Group 95" class="cls-17" transform="translate(185.234 41.484)"><g id="Group_94" data-name="Group 94" class="cls-4" transform="translate(-334.266 -152.678)"><path id="Path_194" data-name="Path 194" class="cls-5" d="M42.473-31.976h17.841v21.628H42.473z" transform="translate(288.868 181.73)"/></g></g></g></svg>