<?xml version="1.0" encoding="UTF-8" standalone="no"?>
<svg width="325px" height="78px" viewBox="0 0 325 78" version="1.1" xmlns="http://www.w3.org/2000/svg" xmlns:xlink="http://www.w3.org/1999/xlink">
    <title>arsenic</title>
    <defs></defs>
    <g id="Page-1" stroke="none" stroke-width="1" fill="none" fill-rule="evenodd">
        <g id="arsenic" fill="#FFFFFF">
            <path d="M3.731,66.144 L1.223,66.144 C0.756,66.144 0.436,65.775 0.436,65.249 C0.436,64.715 0.756,64.374 1.223,64.374 L7.902,64.374 C8.369,64.374 8.69,64.715 8.69,65.249 C8.69,65.775 8.369,66.144 7.902,66.144 L5.346,66.144 L5.346,76.597 C5.346,77.122 5.005,77.511 4.538,77.511 C4.071,77.511 3.731,77.122 3.731,76.597 L3.731,66.144" id="Fill-267"></path>
            <path d="M20.153,71.502 L15.496,71.502 L15.496,76.598 C15.496,77.122 15.155,77.512 14.688,77.512 C14.222,77.512 13.882,77.122 13.882,76.598 L13.882,65.269 C13.882,64.735 14.222,64.375 14.688,64.375 C15.155,64.375 15.496,64.735 15.496,65.269 L15.496,69.733 L20.153,69.733 L20.153,65.269 C20.153,64.735 20.493,64.375 20.96,64.375 C21.427,64.375 21.768,64.735 21.768,65.269 L21.768,76.598 C21.768,77.122 21.427,77.512 20.96,77.512 C20.493,77.512 20.153,77.122 20.153,76.598 L20.153,71.502" id="Fill-268"></path>
            <path d="M29.177,77.512 C28.71,77.512 28.389,77.143 28.389,76.618 L28.389,65.251 C28.389,64.717 28.71,64.376 29.177,64.376 L33.708,64.376 C34.175,64.376 34.495,64.717 34.495,65.251 C34.495,65.776 34.175,66.146 33.708,66.146 L30.003,66.146 L30.003,69.734 L33.426,69.734 C33.883,69.734 34.213,70.074 34.213,70.609 C34.213,71.134 33.883,71.503 33.426,71.503 L30.003,71.503 L30.003,75.743 L34.048,75.743 C34.515,75.743 34.836,76.083 34.836,76.618 C34.836,77.143 34.515,77.512 34.048,77.512 L29.177,77.512 Z M30.47,62.636 C30.363,62.704 30.266,62.704 30.178,62.704 C29.77,62.704 29.391,62.392 29.391,61.868 C29.391,61.459 29.556,61.177 29.896,61.012 L32.667,59.709 C32.813,59.641 32.861,59.621 32.979,59.621 C33.426,59.621 33.766,59.991 33.766,60.496 C33.766,60.993 33.514,61.177 33.261,61.313 L30.47,62.636 L30.47,62.636 Z" id="Fill-269"></path>
            <path d="M42.016,73.744 C41.655,75.027 41.393,76.233 41.159,76.924 C41.033,77.312 40.78,77.517 40.362,77.517 C39.827,77.517 39.575,77.167 39.575,76.68 L39.613,76.418 C39.74,75.903 41.977,67.589 43.23,64.964 C43.416,64.517 43.736,64.371 44.271,64.371 C44.796,64.371 45.186,64.556 45.331,65.002 C46.353,67.473 48.695,75.533 48.929,76.418 L48.968,76.68 C48.968,77.167 48.656,77.517 48.122,77.517 C47.713,77.517 47.548,77.312 47.422,76.924 C47.188,76.233 46.848,75.027 46.498,73.744 L42.016,73.744 Z M44.291,61.56 L42.569,62.582 C42.424,62.66 42.316,62.698 42.19,62.698 C41.733,62.698 41.393,62.338 41.393,61.842 C41.393,61.6 41.5,61.259 41.802,61.074 L43.892,59.791 C44.019,59.704 44.164,59.664 44.291,59.664 C44.397,59.664 44.563,59.723 44.67,59.791 L46.799,61.094 C47.062,61.259 47.179,61.619 47.179,61.862 C47.179,62.396 46.799,62.698 46.353,62.698 C46.206,62.698 46.061,62.64 45.953,62.582 L44.291,61.56 Z M45.992,71.975 C45.486,70.224 45.039,68.756 44.572,67.424 C44.466,67.142 44.291,66.636 44.271,66.549 C44.252,66.568 44.077,67.142 43.97,67.424 C43.503,68.756 43.075,70.224 42.569,71.975 L45.992,71.975 L45.992,71.975 Z" id="Fill-270"></path>
            <path d="M54.854,66.144 L52.346,66.144 C51.879,66.144 51.558,65.775 51.558,65.249 C51.558,64.715 51.879,64.374 52.346,64.374 L59.025,64.374 C59.492,64.374 59.813,64.715 59.813,65.249 C59.813,65.775 59.492,66.144 59.025,66.144 L56.468,66.144 L56.468,76.597 C56.468,77.122 56.128,77.511 55.661,77.511 C55.194,77.511 54.854,77.122 54.854,76.597 L54.854,66.144" id="Fill-271"></path>
            <path d="M65.007,65.288 C65.007,64.764 65.347,64.374 65.813,64.374 L68.371,64.374 C70.384,64.374 71.871,65.881 71.871,67.933 C71.871,70.461 69.946,71.278 69.946,71.278 C70.812,72.076 71.541,73.787 72.134,75.702 C72.212,75.926 72.367,76.432 72.367,76.674 C72.367,77.005 72.104,77.511 71.541,77.511 C71.19,77.511 70.879,77.248 70.772,76.84 C69.937,73.68 68.809,71.764 68.089,71.764 C67.836,71.764 67.642,71.666 67.496,71.502 C67.369,71.336 67.281,71.132 67.281,70.889 C67.281,70.364 67.622,69.994 68.089,69.994 L68.371,69.994 C68.809,69.994 70.199,69.849 70.199,67.933 C70.199,66.922 69.45,66.144 68.371,66.144 L66.62,66.144 L66.62,76.597 C66.62,77.122 66.28,77.511 65.813,77.511 C65.347,77.511 65.007,77.122 65.007,76.597 L65.007,65.288" id="Fill-272"></path>
            <path d="M78.885,77.512 C78.418,77.512 78.097,77.143 78.097,76.618 L78.097,65.251 C78.097,64.717 78.418,64.376 78.885,64.376 L83.416,64.376 C83.883,64.376 84.203,64.717 84.203,65.251 C84.203,65.776 83.883,66.146 83.416,66.146 L79.711,66.146 L79.711,69.734 L83.134,69.734 C83.591,69.734 83.921,70.074 83.921,70.609 C83.921,71.134 83.591,71.503 83.134,71.503 L79.711,71.503 L79.711,75.743 L83.756,75.743 C84.223,75.743 84.544,76.083 84.544,76.618 C84.544,77.143 84.223,77.512 83.756,77.512 L78.885,77.512" id="Fill-273"></path>
            <path d="M99.315,65.288 C99.315,64.764 99.655,64.374 100.122,64.374 L102.68,64.374 C104.653,64.374 106.18,65.94 106.18,68.04 C106.18,70.957 104.333,71.968 102.68,71.968 L102.417,71.968 C101.95,71.968 101.591,71.628 101.591,71.093 C101.591,70.568 101.95,70.198 102.417,70.198 L102.68,70.198 C103.545,70.198 104.508,69.625 104.508,68.04 C104.508,66.98 103.739,66.144 102.68,66.144 L100.93,66.144 L100.93,76.597 C100.93,77.122 100.589,77.511 100.122,77.511 C99.655,77.511 99.315,77.122 99.315,76.597 L99.315,65.288" id="Fill-274"></path>
            <path d="M110.829,70.972 C110.829,67.142 112.978,64.254 115.769,64.254 C118.637,64.254 120.718,67.083 120.718,70.972 C120.718,74.804 118.637,77.633 115.769,77.633 C112.978,77.633 110.829,74.745 110.829,70.972 M119.055,70.972 C119.055,68.143 117.703,66.023 115.769,66.023 C113.892,66.023 112.492,68.202 112.492,70.972 C112.492,73.704 113.892,75.864 115.769,75.864 C117.703,75.864 119.055,73.764 119.055,70.972" id="Fill-275"></path>
            <path d="M126.623,65.288 C126.623,64.764 126.963,64.374 127.43,64.374 L129.987,64.374 C131.961,64.374 133.487,65.94 133.487,68.04 C133.487,70.957 131.64,71.968 129.987,71.968 L129.725,71.968 C129.258,71.968 128.898,71.628 128.898,71.093 C128.898,70.568 129.258,70.198 129.725,70.198 L129.987,70.198 C130.853,70.198 131.815,69.625 131.815,68.04 C131.815,66.98 131.047,66.144 129.987,66.144 L128.236,66.144 L128.236,76.597 C128.236,77.122 127.896,77.511 127.43,77.511 C126.963,77.511 126.623,77.122 126.623,76.597 L126.623,65.288" id="Fill-276"></path>
            <path d="M145.105,65.268 C145.105,64.743 145.445,64.373 145.912,64.373 C146.379,64.373 146.719,64.743 146.719,65.268 L146.719,73.115 C146.719,74.515 146.175,77.636 142.781,77.636 C139.368,77.636 138.853,74.515 138.853,73.115 L138.853,65.268 C138.853,64.743 139.213,64.373 139.68,64.373 C140.127,64.373 140.467,64.743 140.467,65.268 L140.467,73.066 C140.467,74.048 140.847,75.867 142.791,75.867 C144.745,75.867 145.105,74.048 145.105,73.066 L145.105,65.268" id="Fill-277"></path>
            <path d="M154.146,77.512 C153.679,77.512 153.339,77.143 153.339,76.618 L153.339,65.271 C153.339,64.736 153.679,64.376 154.146,64.376 C154.612,64.376 154.953,64.736 154.953,65.271 L154.953,75.743 L158.979,75.743 C159.445,75.743 159.805,76.083 159.805,76.618 C159.805,77.143 159.445,77.512 158.979,77.512 L154.146,77.512" id="Fill-278"></path>
            <path d="M166.357,73.744 C165.998,75.027 165.735,76.233 165.502,76.924 C165.375,77.312 165.123,77.517 164.714,77.517 C164.17,77.517 163.927,77.167 163.927,76.68 L163.956,76.418 C164.082,75.903 166.318,67.589 167.573,64.964 C167.758,64.517 168.078,64.371 168.613,64.371 C169.139,64.371 169.527,64.556 169.673,65.002 C170.694,67.473 173.038,75.533 173.271,76.418 L173.31,76.68 C173.31,77.167 172.999,77.517 172.464,77.517 C172.056,77.517 171.89,77.312 171.764,76.924 C171.53,76.233 171.19,75.027 170.84,73.744 L166.357,73.744 Z M170.335,71.975 C169.829,70.224 169.382,68.756 168.915,67.424 C168.808,67.142 168.633,66.636 168.613,66.549 C168.594,66.568 168.419,67.142 168.312,67.424 C167.846,68.756 167.417,70.224 166.912,71.975 L170.335,71.975 L170.335,71.975 Z" id="Fill-279"></path>
            <path d="M178.677,65.268 C178.677,64.743 179.018,64.373 179.484,64.373 C179.951,64.373 180.291,64.743 180.291,65.268 L180.291,76.596 C180.291,77.121 179.951,77.51 179.484,77.51 C179.018,77.51 178.677,77.121 178.677,76.596 L178.677,65.268" id="Fill-280"></path>
            <path d="M186.915,65.288 C186.915,64.764 187.255,64.374 187.722,64.374 L190.279,64.374 C192.292,64.374 193.779,65.881 193.779,67.933 C193.779,70.461 191.854,71.278 191.854,71.278 C192.72,72.076 193.449,73.787 194.042,75.702 C194.12,75.926 194.275,76.432 194.275,76.674 C194.275,77.005 194.003,77.511 193.449,77.511 C193.089,77.511 192.788,77.248 192.681,76.84 C191.845,73.68 190.717,71.764 189.997,71.764 C189.744,71.764 189.55,71.666 189.404,71.502 C189.277,71.336 189.19,71.132 189.19,70.889 C189.19,70.364 189.53,69.994 189.997,69.994 L190.279,69.994 C190.717,69.994 192.107,69.849 192.107,67.933 C192.107,66.922 191.358,66.144 190.279,66.144 L188.529,66.144 L188.529,76.597 C188.529,77.122 188.188,77.511 187.722,77.511 C187.255,77.511 186.915,77.122 186.915,76.597 L186.915,65.288" id="Fill-281"></path>
            <path d="M200.791,77.512 C200.324,77.512 200.004,77.143 200.004,76.618 L200.004,65.251 C200.004,64.717 200.324,64.376 200.791,64.376 L205.322,64.376 C205.789,64.376 206.109,64.717 206.109,65.251 C206.109,65.776 205.789,66.146 205.322,66.146 L201.617,66.146 L201.617,69.734 L205.04,69.734 C205.497,69.734 205.828,70.074 205.828,70.609 C205.828,71.134 205.497,71.503 205.04,71.503 L201.617,71.503 L201.617,75.743 L205.662,75.743 C206.129,75.743 206.45,76.083 206.45,76.618 C206.45,77.143 206.129,77.512 205.662,77.512 L200.791,77.512" id="Fill-282"></path>
            <path d="M221.223,65.268 C221.223,64.743 221.563,64.373 222.03,64.373 C222.5,64.373 222.84,64.743 222.84,65.268 L222.84,76.596 C222.84,77.121 222.5,77.51 222.03,77.51 C221.563,77.51 221.223,77.121 221.223,76.596 L221.223,65.268" id="Fill-283"></path>
            <path d="M231.32,66.144 L228.81,66.144 C228.35,66.144 228.03,65.775 228.03,65.249 C228.03,64.715 228.35,64.374 228.81,64.374 L235.49,64.374 C235.96,64.374 236.28,64.715 236.28,65.249 C236.28,65.775 235.96,66.144 235.49,66.144 L232.94,66.144 L232.94,76.597 C232.94,77.122 232.6,77.511 232.13,77.511 C231.66,77.511 231.32,77.122 231.32,76.597 L231.32,66.144" id="Fill-284"></path>
            <path d="M241.47,65.268 C241.47,64.743 241.82,64.373 242.28,64.373 C242.75,64.373 243.09,64.743 243.09,65.268 L243.09,76.596 C243.09,77.121 242.75,77.51 242.28,77.51 C241.82,77.51 241.47,77.121 241.47,76.596 L241.47,65.268" id="Fill-285"></path>
            <path d="M256.54,77.512 C256.25,77.512 255.87,77.387 255.66,77.143 C255.15,76.579 254.6,75.432 253.94,73.963 C253.54,73.089 253.13,72.048 252.73,71.057 C252.34,70.055 252,69.101 251.61,68.12 C251.5,67.838 251.39,67.595 251.32,67.469 L251.32,76.599 C251.32,77.123 250.98,77.512 250.52,77.512 C250.05,77.512 249.71,77.123 249.71,76.599 L249.71,65.29 C249.71,64.756 250.05,64.376 250.52,64.376 L250.73,64.376 C252.07,64.376 252.92,67.06 253.54,68.586 C253.83,69.306 254.11,70.094 254.41,70.813 C254.9,72.097 255.21,72.903 255.55,73.662 C255.66,73.905 255.83,74.294 255.91,74.411 L255.91,65.29 C255.91,64.756 256.25,64.376 256.71,64.376 C257.18,64.376 257.52,64.756 257.52,65.29 L257.52,76.599 C257.52,77.123 257.18,77.512 256.71,77.512 L256.54,77.512" id="Fill-286"></path>
            <path d="M264.93,77.512 C264.47,77.512 264.14,77.143 264.14,76.618 L264.14,65.251 C264.14,64.717 264.47,64.376 264.93,64.376 L269.46,64.376 C269.93,64.376 270.25,64.717 270.25,65.251 C270.25,65.776 269.93,66.146 269.46,66.146 L265.76,66.146 L265.76,69.734 L269.18,69.734 C269.65,69.734 269.97,70.074 269.97,70.609 C269.97,71.134 269.65,71.503 269.18,71.503 L265.76,71.503 L265.76,75.743 L269.8,75.743 C270.27,75.743 270.59,76.083 270.59,76.618 C270.59,77.143 270.27,77.512 269.8,77.512 L264.93,77.512 Z M266.23,62.636 C266.12,62.704 266.02,62.704 265.93,62.704 C265.53,62.704 265.15,62.392 265.15,61.868 C265.15,61.459 265.31,61.177 265.65,61.012 L268.42,59.709 C268.57,59.641 268.62,59.621 268.73,59.621 C269.18,59.621 269.52,59.991 269.52,60.496 C269.52,60.993 269.27,61.177 269.02,61.313 L266.23,62.636 L266.23,62.636 Z" id="Fill-287"></path>
            <path d="M276.59,65.288 C276.59,64.764 276.93,64.374 277.4,64.374 L279.95,64.374 C281.97,64.374 283.46,65.881 283.46,67.933 C283.46,70.461 281.53,71.278 281.53,71.278 C282.39,72.076 283.12,73.787 283.72,75.702 C283.79,75.926 283.95,76.432 283.95,76.674 C283.95,77.005 283.68,77.511 283.12,77.511 C282.76,77.511 282.46,77.248 282.36,76.84 C281.52,73.68 280.39,71.764 279.67,71.764 C279.42,71.764 279.23,71.666 279.08,71.502 C278.95,71.336 278.87,71.132 278.87,70.889 C278.87,70.364 279.21,69.994 279.67,69.994 L279.95,69.994 C280.39,69.994 281.78,69.849 281.78,67.933 C281.78,66.922 281.03,66.144 279.95,66.144 L278.2,66.144 L278.2,76.597 C278.2,77.122 277.86,77.511 277.4,77.511 C276.93,77.511 276.59,77.122 276.59,76.597 L276.59,65.288" id="Fill-288"></path>
            <path d="M290.86,73.744 C290.5,75.027 290.23,76.233 290,76.924 C289.88,77.312 289.63,77.517 289.21,77.517 C288.67,77.517 288.42,77.167 288.42,76.68 L288.46,76.418 C288.59,75.903 290.82,67.589 292.08,64.964 C292.26,64.517 292.58,64.371 293.12,64.371 C293.63,64.371 294.03,64.556 294.18,65.002 C295.2,67.473 297.54,75.533 297.77,76.418 L297.81,76.68 C297.81,77.167 297.5,77.517 296.97,77.517 C296.56,77.517 296.39,77.312 296.27,76.924 C296.03,76.233 295.69,75.027 295.33,73.744 L290.86,73.744 Z M294.84,71.975 C294.33,70.224 293.88,68.756 293.42,67.424 C293.31,67.142 293.14,66.636 293.12,66.549 C293.1,66.568 292.92,67.142 292.82,67.424 C292.35,68.756 291.92,70.224 291.42,71.975 L294.84,71.975 L294.84,71.975 Z" id="Fill-289"></path>
            <path d="M310,77.512 C309.72,77.512 309.34,77.387 309.13,77.143 C308.62,76.579 308.07,75.432 307.41,73.963 C307.01,73.089 306.6,72.048 306.2,71.057 C305.81,70.055 305.47,69.101 305.08,68.12 C304.97,67.838 304.86,67.595 304.79,67.469 L304.79,76.599 C304.79,77.123 304.45,77.512 303.99,77.512 C303.52,77.512 303.18,77.123 303.18,76.599 L303.18,65.29 C303.18,64.756 303.52,64.376 303.99,64.376 L304.2,64.376 C305.54,64.376 306.39,67.06 307.01,68.586 C307.3,69.306 307.58,70.094 307.88,70.813 C308.37,72.097 308.68,72.903 309.02,73.662 C309.13,73.905 309.3,74.294 309.38,74.411 L309.38,65.29 C309.38,64.756 309.72,64.376 310.18,64.376 C310.65,64.376 310.99,64.756 310.99,65.29 L310.99,76.599 C310.99,77.123 310.65,77.512 310.18,77.512 L310,77.512" id="Fill-290"></path>
            <path d="M319.48,66.144 L316.97,66.144 C316.5,66.144 316.18,65.775 316.18,65.249 C316.18,64.715 316.5,64.374 316.97,64.374 L323.65,64.374 C324.11,64.374 324.44,64.715 324.44,65.249 C324.44,65.775 324.11,66.144 323.65,66.144 L321.09,66.144 L321.09,76.597 C321.09,77.122 320.75,77.511 320.28,77.511 C319.82,77.511 319.48,77.122 319.48,76.597 L319.48,66.144" id="Fill-291"></path>
            <path d="M20.662,0.622 L38.543,45.359 L33.127,45.359 L28.723,34.333 L12.659,34.333 L8.313,45.359 L2.926,45.359 L20.662,0.622 Z M20.652,14.07 L14.595,29.433 L26.768,29.433 L20.652,14.07 L20.652,14.07 Z" id="Fill-292"></path>
            <path d="M56.279,2.28 L64.486,2.28 C68.57,2.28 71.896,3.438 74.463,5.742 C77.02,8.057 78.303,11.012 78.303,14.62 C78.303,17.498 77.477,20.055 75.813,22.263 C74.151,24.47 71.564,26.025 68.045,26.92 L79.052,45.356 L73.11,45.356 L62.609,27.64 L61.452,27.64 L61.452,45.356 L56.279,45.356 L56.279,2.28 Z M61.452,7.492 L61.452,22.505 C69.075,22.681 72.897,20.162 72.897,14.96 C72.897,13.132 72.449,11.644 71.555,10.477 C70.67,9.321 69.475,8.533 67.996,8.115 C66.509,7.696 64.321,7.492 61.452,7.492 L61.452,7.492 Z" id="Fill-293"></path>
            <path d="M121.222,7.082 L117.03,10.903 C115.922,9.601 114.921,8.618 114.017,7.977 C113.122,7.334 111.819,7.014 110.117,7.014 C108.26,7.014 106.753,7.491 105.596,8.443 C104.438,9.396 103.865,10.631 103.865,12.138 C103.865,13.441 104.361,14.588 105.372,15.59 C106.384,16.591 108.104,17.69 110.545,18.876 C112.976,20.062 114.872,21.171 116.224,22.202 C117.575,23.223 118.693,24.351 119.559,25.596 C120.434,26.83 121.075,28.133 121.504,29.514 C121.932,30.885 122.146,32.334 122.146,33.87 C122.146,37.458 120.998,40.501 118.703,43.029 C116.418,45.548 113.646,46.812 110.399,46.812 C107.229,46.812 104.429,45.82 101.998,43.856 C99.577,41.882 97.7,38.916 96.397,34.978 L101.57,33.316 C103.457,38.167 106.335,40.589 110.225,40.589 C112.101,40.589 113.676,39.947 114.921,38.664 C116.165,37.39 116.787,35.766 116.787,33.811 C116.787,32.645 116.467,31.469 115.806,30.291 C115.154,29.115 114.347,28.133 113.375,27.375 C112.402,26.607 110.856,25.731 108.727,24.74 C106.607,23.758 104.974,22.853 103.836,22.027 C102.688,21.2 101.697,20.228 100.87,19.09 C100.034,17.953 99.422,16.815 99.032,15.697 C98.644,14.569 98.449,13.364 98.449,12.08 C98.449,8.988 99.538,6.362 101.716,4.185 C103.895,2.016 106.549,0.927 109.65,0.927 C111.722,0.927 113.813,1.432 115.932,2.444 C118.052,3.465 119.812,5.001 121.222,7.082" id="Fill-294"></path>
            <polyline id="Fill-295" points="140.297 2.28 161.29 2.28 161.29 8.164 145.411 8.164 145.411 18.918 161.29 18.918 161.29 24.732 145.411 24.732 145.411 39.541 161.29 39.541 161.29 45.356 140.297 45.356 140.297 2.28"></polyline>
            <polyline id="Fill-296" points="179.257 0.554 207.26 33.292 207.26 2.285 212.433 2.285 212.433 47.353 184.43 14.76 184.43 45.359 179.257 45.359 179.257 0.554"></polyline>
            <polygon id="Fill-297" points="232.25 45.355 237.37 45.355 237.37 2.28 232.25 2.28"></polygon>
            <path d="M277.22,7.013 C277.96,7.013 282.34,7.12 285.09,9.853 L321.13,47.075 L321.13,1.831 L315.7,1.831 L315.7,31.604 L289.35,6.285 C287.54,4.349 282.4,0.878 276.98,0.927 C271.21,0.976 266.28,3.153 262.19,7.616 C258.1,12.08 256.05,17.437 256.05,23.699 C256.05,30.078 258.13,35.522 262.29,40.035 C266.45,44.556 271.47,46.811 277.33,46.811 C281.34,46.811 285.05,45.771 288.48,43.7 L288.48,36.972 C284.72,39.383 281.16,40.588 277.78,40.588 C273.14,40.588 269.28,38.984 266.2,35.775 C263.12,32.567 261.58,28.561 261.58,23.767 C261.58,19.061 263.09,15.094 266.09,11.856 C269.11,8.627 272.82,7.013 277.22,7.013" id="Fill-298"></path>
        </g>
    </g>
</svg>
