<?xml version="1.0" encoding="UTF-8" standalone="no"?>
<svg width="281px" height="149px" viewBox="0 0 281 149" version="1.1" xmlns="http://www.w3.org/2000/svg" xmlns:xlink="http://www.w3.org/1999/xlink">
    <title>calg</title>
    <defs></defs>
    <g id="Page-1" stroke="none" stroke-width="1" fill="none" fill-rule="evenodd">
        <g id="calg" fill="#FFFFFF">
            <path d="M173.925,91.837 L105.833,91.837 C99.416,91.837 94.207,86.576 94.207,80.115 L94.207,12.217 C94.207,5.747 99.416,0.495 105.833,0.495 L173.925,0.495 C180.333,0.495 185.55,5.747 185.55,12.217 L185.55,80.115 C185.55,86.576 180.333,91.837 173.925,91.837 M105.833,1.598 C100.029,1.598 95.31,6.36 95.31,12.217 L95.31,80.115 C95.31,85.972 100.029,90.734 105.833,90.734 L173.925,90.734 C179.729,90.734 184.448,85.972 184.448,80.115 L184.448,12.217 C184.448,6.36 179.729,1.598 173.925,1.598 L105.833,1.598" id="Fill-52"></path>
            <path d="M18.702,139.663 C18.685,140.592 18.308,141.362 17.581,141.975 C16.846,142.597 15.708,142.903 14.15,142.903 C13.354,142.903 12.662,142.815 12.075,142.648 C11.497,142.482 11.025,142.246 10.648,141.949 C10.272,141.66 10,141.318 9.834,140.925 C9.659,140.53 9.58,140.11 9.58,139.663 L9.58,139.024 L9.606,139.024 L9.606,133.588 L9.58,133.588 L9.58,132.975 C9.58,132.293 9.755,131.68 10.097,131.128 C10.447,130.577 10.955,130.183 11.611,129.955 C11.935,129.842 12.294,129.719 12.706,129.579 C13.117,129.43 13.511,129.299 13.887,129.158 C14.264,129.027 14.588,128.905 14.876,128.8 C15.166,128.694 15.341,128.634 15.411,128.616 C15.481,128.58 15.577,128.528 15.691,128.467 C15.805,128.406 15.919,128.309 16.023,128.186 C16.137,128.056 16.225,127.915 16.313,127.758 C16.391,127.592 16.426,127.407 16.426,127.197 L16.426,123.258 L18.702,123.258 L18.702,139.663 Z M14.15,140.898 C14.596,140.898 14.973,140.846 15.262,140.749 C15.56,140.653 15.787,140.521 15.962,140.355 C16.128,140.198 16.251,140.022 16.321,139.821 C16.391,139.629 16.426,139.445 16.426,139.261 L16.426,130.139 C16.391,130.331 16.313,130.48 16.172,130.568 C16.041,130.655 15.901,130.717 15.761,130.752 C15.49,130.839 15.2,130.944 14.885,131.05 C14.579,131.154 14.29,131.251 14.019,131.338 C13.695,131.452 13.397,131.558 13.108,131.662 C12.898,131.75 12.688,131.89 12.496,132.064 C12.329,132.205 12.189,132.389 12.058,132.616 C11.917,132.835 11.856,133.115 11.856,133.457 L11.856,139.13 C11.873,139.357 11.917,139.585 11.997,139.795 C12.075,140.014 12.206,140.198 12.373,140.355 C12.539,140.521 12.776,140.653 13.073,140.749 C13.362,140.846 13.721,140.898 14.15,140.898 L14.15,140.898 Z" id="Fill-53"></path>
            <path d="M25.901,128.479 C26.969,128.479 27.81,128.611 28.414,128.865 C29.026,129.128 29.481,129.434 29.779,129.793 C30.085,130.142 30.269,130.511 30.339,130.869 C30.409,131.237 30.453,131.517 30.453,131.719 L30.453,133.006 C30.453,133.304 30.392,133.644 30.278,134.021 C30.165,134.39 29.884,134.792 29.464,135.221 C29.263,135.439 29.044,135.598 28.79,135.702 C28.544,135.808 28.317,135.894 28.124,135.947 C27.888,136.017 27.652,136.053 27.398,136.053 L25.367,136.053 C24.903,136.053 24.492,136.219 24.132,136.56 C23.783,136.901 23.599,137.321 23.599,137.82 L23.599,139.02 C23.599,139.449 23.677,139.791 23.844,140.035 C23.914,140.167 23.993,140.272 24.08,140.359 C24.167,140.447 24.308,140.525 24.483,140.604 C24.623,140.675 24.807,140.736 25.034,140.788 C25.253,140.841 25.542,140.867 25.901,140.867 C26.365,140.867 26.732,140.815 26.995,140.718 C27.267,140.622 27.45,140.534 27.556,140.465 C27.792,140.29 27.949,140.079 28.046,139.825 C28.133,139.571 28.177,139.309 28.177,139.02 L30.453,139.02 L30.453,139.668 C30.453,140.149 30.348,140.596 30.138,141.007 C29.937,141.41 29.622,141.768 29.192,142.075 C28.886,142.285 28.466,142.478 27.932,142.636 C27.398,142.793 26.724,142.872 25.901,142.872 C25.297,142.872 24.771,142.828 24.325,142.732 C23.878,142.627 23.485,142.505 23.161,142.355 C22.828,142.207 22.557,142.031 22.338,141.83 C22.127,141.638 21.953,141.436 21.804,141.243 C21.489,140.779 21.331,140.246 21.349,139.642 L21.349,131.719 C21.349,131.5 21.384,131.22 21.462,130.861 C21.532,130.502 21.716,130.142 22.023,129.793 C22.32,129.434 22.775,129.128 23.388,128.865 C23.993,128.611 24.833,128.479 25.901,128.479 M28.177,132.385 L28.177,132.147 C28.177,131.981 28.151,131.807 28.107,131.622 C28.063,131.438 27.958,131.255 27.801,131.089 C27.643,130.923 27.415,130.773 27.118,130.659 C26.82,130.546 26.435,130.484 25.954,130.484 C25.455,130.484 25.052,130.546 24.736,130.659 C24.421,130.773 24.185,130.913 24.01,131.071 C23.844,131.237 23.73,131.412 23.677,131.597 C23.625,131.78 23.599,131.946 23.599,132.087 L23.599,134.879 C23.634,134.713 23.712,134.581 23.844,134.485 C23.966,134.39 24.106,134.31 24.273,134.258 C24.43,134.205 24.588,134.17 24.754,134.152 C24.912,134.136 25.034,134.126 25.122,134.126 L26.654,134.126 C27.057,134.126 27.415,133.977 27.722,133.68 C28.019,133.391 28.177,133.041 28.177,132.63 L28.177,132.385" id="Fill-54"></path>
            <polygon id="Fill-55" points="38.639 142.66 40.889 142.66 40.889 123.261 38.639 123.261"></polygon>
            <path d="M48.057,128.479 C49.624,128.479 50.78,128.786 51.506,129.399 C52.242,130.02 52.609,130.791 52.609,131.719 L52.609,139.642 C52.609,139.957 52.548,140.307 52.435,140.692 C52.321,141.077 52.093,141.428 51.752,141.752 C51.41,142.075 50.946,142.338 50.359,142.557 C49.773,142.767 49.002,142.872 48.057,142.872 C47.112,142.872 46.341,142.767 45.755,142.557 C45.169,142.338 44.704,142.075 44.363,141.752 C44.021,141.428 43.793,141.077 43.68,140.692 C43.566,140.307 43.505,139.957 43.505,139.642 L43.505,138.381 C43.505,137.698 43.68,137.085 44.03,136.534 C44.38,135.982 44.871,135.588 45.519,135.351 C45.833,135.247 46.201,135.124 46.613,134.984 C47.024,134.845 47.418,134.704 47.803,134.563 C48.188,134.433 48.521,134.31 48.81,134.205 C49.09,134.1 49.274,134.039 49.344,134.021 C49.414,133.986 49.51,133.934 49.624,133.872 C49.738,133.81 49.852,133.715 49.957,133.593 C50.062,133.461 50.158,133.321 50.237,133.163 C50.316,133.006 50.359,132.813 50.359,132.602 L50.359,132.087 C50.359,131.911 50.324,131.727 50.254,131.544 C50.185,131.35 50.053,131.184 49.878,131.018 C49.703,130.861 49.467,130.729 49.169,130.634 C48.872,130.537 48.504,130.484 48.057,130.484 C47.164,130.484 46.56,130.668 46.254,131.036 C45.939,131.404 45.781,131.842 45.781,132.358 L43.505,132.358 L43.505,131.719 C43.505,131.272 43.592,130.852 43.759,130.458 C43.934,130.064 44.206,129.723 44.582,129.426 C44.958,129.137 45.422,128.9 46,128.734 C46.569,128.567 47.252,128.479 48.057,128.479 M50.359,135.571 C50.324,135.746 50.237,135.886 50.088,135.974 C49.948,136.061 49.817,136.122 49.685,136.157 C49.423,136.245 49.134,136.35 48.819,136.464 C48.504,136.586 48.215,136.683 47.952,136.77 C47.628,136.884 47.322,136.989 47.042,137.094 C46.823,137.182 46.622,137.312 46.429,137.471 C46.263,137.61 46.114,137.794 45.982,138.022 C45.851,138.241 45.781,138.521 45.781,138.862 C45.781,139.536 45.947,140.045 46.263,140.377 C46.586,140.701 47.182,140.867 48.057,140.867 C48.95,140.867 49.554,140.692 49.878,140.35 C50.202,140.001 50.359,139.502 50.359,138.862 L50.359,135.571" id="Fill-56"></path>
            <path d="M69.706,130.592 L69.706,130.749 C69.706,131.397 69.496,132.001 69.076,132.57 C68.655,133.148 67.938,133.577 66.922,133.884 L66.764,133.936 C66.493,134.023 66.204,134.129 65.889,134.233 C65.583,134.339 65.293,134.435 65.022,134.522 C64.698,134.637 64.401,134.742 64.112,134.847 C63.902,134.898 63.691,134.986 63.499,135.118 C63.333,135.224 63.192,135.363 63.053,135.529 C62.921,135.695 62.851,135.915 62.851,136.186 L62.851,142.664 L60.583,142.664 L60.583,126.285 C60.583,126.092 60.619,125.803 60.689,125.444 C60.759,125.077 60.952,124.718 61.267,124.358 C61.573,124 62.037,123.693 62.641,123.431 C63.245,123.177 64.085,123.046 65.153,123.046 C66.23,123.046 67.062,123.177 67.675,123.431 C68.279,123.693 68.734,124 69.04,124.358 C69.338,124.718 69.531,125.077 69.601,125.444 C69.671,125.803 69.706,126.092 69.706,126.285 L69.706,130.592 Z M63.455,132.815 C63.701,132.727 63.954,132.632 64.217,132.544 C64.488,132.456 64.76,132.36 65.022,132.265 C65.293,132.168 65.53,132.08 65.748,132.011 C65.854,131.975 65.959,131.94 66.064,131.905 C66.169,131.87 66.274,131.835 66.362,131.8 C66.826,131.634 67.123,131.415 67.246,131.126 C67.368,130.846 67.43,130.583 67.43,130.347 L67.43,126.687 C67.43,126.521 67.404,126.355 67.351,126.162 C67.298,125.978 67.185,125.803 67.019,125.646 C66.843,125.479 66.607,125.348 66.309,125.225 C66.003,125.111 65.591,125.05 65.075,125.05 C64.593,125.05 64.208,125.111 63.911,125.225 C63.622,125.348 63.394,125.488 63.227,125.672 C63.07,125.847 62.965,126.03 62.921,126.215 C62.877,126.407 62.851,126.583 62.851,126.74 L62.851,133.025 C63.018,132.974 63.219,132.903 63.455,132.815 L63.455,132.815 Z" id="Fill-57"></path>
            <path d="M76.877,128.505 C77.183,128.505 77.446,128.505 77.665,128.497 C77.893,128.479 78.128,128.497 78.373,128.532 L77.866,130.483 C77.656,130.483 77.472,130.493 77.332,130.501 C77.192,130.51 77.017,130.51 76.824,130.51 C76.343,130.51 75.949,130.571 75.66,130.703 C75.362,130.825 75.135,130.975 74.977,131.141 C74.819,131.307 74.714,131.49 74.67,131.675 C74.627,131.867 74.601,132.042 74.601,132.2 L74.601,142.661 L72.324,142.661 L72.324,131.745 C72.324,131.552 72.359,131.263 72.438,130.895 C72.508,130.537 72.692,130.178 72.998,129.818 C73.296,129.46 73.751,129.153 74.364,128.891 C74.968,128.637 75.809,128.505 76.877,128.505" id="Fill-58"></path>
            <path d="M89.08,139.209 L89.08,139.638 C89.08,139.849 89.045,140.137 88.975,140.496 C88.905,140.846 88.712,141.205 88.406,141.564 C88.108,141.923 87.653,142.229 87.049,142.483 C86.436,142.746 85.605,142.877 84.528,142.877 C83.46,142.877 82.62,142.746 82.016,142.483 C81.412,142.229 80.956,141.923 80.65,141.564 C80.343,141.205 80.16,140.846 80.089,140.478 C80.019,140.11 79.984,139.831 79.984,139.638 L79.984,131.716 C79.984,131.522 80.019,131.242 80.089,130.875 C80.16,130.507 80.343,130.148 80.65,129.789 C80.956,129.431 81.412,129.124 82.016,128.87 C82.62,128.607 83.46,128.476 84.528,128.476 C85.605,128.476 86.436,128.607 87.049,128.87 C87.653,129.124 88.108,129.431 88.406,129.789 C88.712,130.148 88.905,130.507 88.975,130.857 C89.045,131.217 89.08,131.506 89.08,131.716 L89.08,139.209 Z M86.804,138.937 L86.804,132.118 C86.804,131.961 86.778,131.785 86.725,131.593 C86.673,131.409 86.559,131.234 86.393,131.076 C86.217,130.909 85.981,130.778 85.684,130.656 C85.377,130.542 84.966,130.489 84.449,130.489 C83.968,130.489 83.582,130.542 83.285,130.656 C82.996,130.778 82.769,130.919 82.602,131.085 C82.444,131.26 82.339,131.444 82.295,131.637 C82.251,131.829 82.226,132.004 82.226,132.144 L82.226,139.209 C82.226,139.35 82.251,139.524 82.295,139.717 C82.339,139.918 82.444,140.093 82.602,140.268 C82.769,140.434 82.996,140.574 83.285,140.697 C83.582,140.811 83.968,140.872 84.449,140.872 C84.966,140.872 85.377,140.811 85.684,140.697 C85.981,140.574 86.217,140.443 86.393,140.277 C86.559,140.119 86.673,139.944 86.725,139.761 C86.778,139.567 86.804,139.393 86.804,139.235 L86.804,138.937 L86.804,138.937 Z" id="Fill-59"></path>
            <path d="M100.8,140.6 C100.8,140.837 100.773,141.047 100.729,141.23 C100.686,141.414 100.625,141.59 100.546,141.756 C100.467,141.913 100.345,142.071 100.187,142.237 C99.863,142.553 99.452,142.771 98.953,142.886 C98.454,143.008 97.99,142.99 97.56,142.85 C97.114,142.684 96.633,142.517 96.107,142.325 C95.573,142.142 95.083,141.975 94.619,141.835 C94.497,141.782 94.321,141.712 94.094,141.642 C93.875,141.572 93.744,141.528 93.708,141.511 C93.49,141.44 93.271,141.353 93.043,141.239 C92.807,141.135 92.597,140.985 92.395,140.784 C92.203,140.592 92.037,140.329 91.905,139.996 C91.765,139.673 91.704,139.252 91.704,138.753 L91.704,128.773 L93.945,128.773 L93.945,138.009 C93.945,138.359 94.024,138.657 94.173,138.902 C94.33,139.139 94.514,139.34 94.742,139.488 C94.96,139.646 95.214,139.76 95.486,139.848 C95.766,139.944 96.02,140.031 96.248,140.119 C96.79,140.294 97.202,140.416 97.508,140.469 C97.814,140.521 98.042,140.513 98.191,140.443 C98.34,140.373 98.436,140.241 98.471,140.049 C98.506,139.865 98.523,139.62 98.523,139.313 L98.523,128.773 L100.8,128.773 L100.8,140.6" id="Fill-60"></path>
            <path d="M103.771,125.992 L106.021,125.992 L106.021,123.287 L103.771,123.287 L103.771,125.992 Z M103.771,142.66 L106.021,142.66 L106.021,128.697 L103.771,128.697 L103.771,142.66 Z" id="Fill-61"></path>
            <path d="M117.764,142.66 L115.488,142.66 L115.488,132.146 C115.488,131.98 115.47,131.814 115.426,131.621 C115.374,131.437 115.277,131.254 115.111,131.088 C114.954,130.922 114.726,130.772 114.428,130.658 C114.14,130.545 113.754,130.483 113.264,130.483 C112.765,130.483 112.362,130.545 112.047,130.658 C111.741,130.772 111.496,130.912 111.329,131.07 C111.163,131.236 111.049,131.411 110.997,131.595 C110.944,131.788 110.918,131.945 110.918,132.095 L110.918,142.66 L108.642,142.66 L108.642,131.718 C108.642,131.499 108.677,131.219 108.747,130.86 C108.817,130.501 109.009,130.151 109.324,129.792 C109.631,129.433 110.095,129.127 110.699,128.863 C111.303,128.61 112.143,128.478 113.211,128.478 C114.288,128.478 115.12,128.61 115.732,128.863 C116.336,129.127 116.792,129.433 117.098,129.792 C117.396,130.151 117.588,130.51 117.659,130.878 C117.729,131.236 117.764,131.517 117.764,131.718 L117.764,142.66" id="Fill-62"></path>
            <path d="M127.238,132.357 L127.238,132.087 C127.238,131.911 127.203,131.727 127.133,131.544 C127.063,131.35 126.932,131.184 126.756,131.018 C126.572,130.861 126.345,130.729 126.047,130.634 C125.75,130.537 125.382,130.484 124.936,130.484 C124.042,130.484 123.438,130.668 123.132,131.036 C122.817,131.404 122.659,131.842 122.659,132.357 L122.659,138.862 C122.659,139.536 122.826,140.045 123.141,140.377 C123.464,140.7 124.06,140.867 124.936,140.867 C125.829,140.867 126.433,140.692 126.756,140.35 C127.08,140.001 127.238,139.502 127.238,138.862 L129.488,138.862 L129.488,139.642 C129.488,139.957 129.426,140.307 129.313,140.692 C129.199,141.077 128.971,141.428 128.63,141.752 C128.289,142.075 127.824,142.338 127.238,142.557 C126.651,142.767 125.881,142.872 124.936,142.872 C123.99,142.872 123.22,142.767 122.633,142.557 C122.046,142.338 121.583,142.075 121.241,141.752 C120.899,141.428 120.681,141.077 120.558,140.692 C120.444,140.307 120.383,139.957 120.383,139.642 L120.383,131.719 C120.383,131.272 120.471,130.851 120.637,130.458 C120.812,130.064 121.083,129.723 121.46,129.426 C121.836,129.137 122.3,128.9 122.878,128.734 C123.447,128.567 124.13,128.479 124.936,128.479 C126.52,128.479 127.675,128.786 128.402,129.399 C129.12,130.02 129.488,130.791 129.488,131.719 L129.488,132.357 L127.238,132.357" id="Fill-63"></path>
            <path d="M136.684,128.479 C137.752,128.479 138.592,128.611 139.196,128.865 C139.809,129.128 140.265,129.434 140.562,129.793 C140.869,130.142 141.052,130.511 141.123,130.869 C141.201,131.237 141.236,131.517 141.236,131.719 L141.236,133.006 C141.236,133.304 141.175,133.644 141.061,134.021 C140.947,134.39 140.667,134.792 140.238,135.221 C140.045,135.439 139.827,135.598 139.573,135.702 C139.328,135.808 139.1,135.894 138.908,135.947 C138.671,136.017 138.435,136.053 138.181,136.053 L136.15,136.053 C135.686,136.053 135.274,136.219 134.916,136.56 C134.557,136.901 134.381,137.321 134.381,137.82 L134.381,139.02 C134.381,139.449 134.46,139.791 134.626,140.035 C134.697,140.167 134.775,140.272 134.863,140.359 C134.95,140.447 135.091,140.525 135.266,140.604 C135.406,140.675 135.59,140.736 135.817,140.788 C136.036,140.841 136.325,140.867 136.684,140.867 C137.148,140.867 137.515,140.815 137.778,140.718 C138.049,140.622 138.233,140.534 138.347,140.465 C138.575,140.29 138.732,140.079 138.829,139.825 C138.916,139.571 138.96,139.309 138.96,139.02 L141.236,139.02 L141.236,139.668 C141.236,140.149 141.131,140.596 140.921,141.007 C140.72,141.41 140.404,141.768 139.976,142.075 C139.669,142.285 139.249,142.478 138.715,142.636 C138.181,142.793 137.507,142.872 136.684,142.872 C136.08,142.872 135.554,142.828 135.108,142.732 C134.662,142.627 134.268,142.505 133.944,142.355 C133.611,142.207 133.34,142.031 133.121,141.83 C132.911,141.638 132.735,141.436 132.587,141.243 C132.271,140.779 132.114,140.246 132.131,139.642 L132.131,131.719 C132.131,131.5 132.167,131.22 132.245,130.861 C132.315,130.502 132.499,130.142 132.806,129.793 C133.103,129.434 133.559,129.128 134.171,128.865 C134.775,128.611 135.616,128.479 136.684,128.479 M138.96,132.385 L138.96,132.147 C138.96,131.981 138.934,131.807 138.89,131.622 C138.846,131.438 138.741,131.255 138.583,131.089 C138.426,130.923 138.198,130.773 137.9,130.659 C137.603,130.546 137.218,130.484 136.736,130.484 C136.237,130.484 135.834,130.546 135.52,130.659 C135.205,130.773 134.968,130.913 134.802,131.071 C134.626,131.237 134.513,131.412 134.46,131.597 C134.408,131.78 134.381,131.946 134.381,132.087 L134.381,134.879 C134.417,134.713 134.496,134.581 134.626,134.485 C134.749,134.39 134.889,134.31 135.056,134.258 C135.213,134.205 135.371,134.17 135.537,134.152 C135.695,134.136 135.817,134.126 135.905,134.126 L137.437,134.126 C137.839,134.126 138.198,133.977 138.505,133.68 C138.811,133.391 138.96,133.041 138.96,132.63 L138.96,132.385" id="Fill-64"></path>
            <path d="M157.825,139.663 C157.807,140.592 157.431,141.362 156.695,141.975 C155.969,142.597 154.831,142.903 153.272,142.903 C152.476,142.903 151.784,142.815 151.198,142.648 C150.62,142.482 150.147,142.246 149.771,141.949 C149.394,141.66 149.123,141.318 148.957,140.925 C148.781,140.53 148.703,140.11 148.703,139.663 L148.703,139.024 L148.729,139.024 L148.729,133.588 L148.703,133.588 L148.703,132.975 C148.703,132.293 148.869,131.68 149.219,131.128 C149.569,130.577 150.077,130.183 150.733,129.955 C151.058,129.842 151.417,129.719 151.828,129.579 C152.239,129.43 152.633,129.299 153.01,129.158 C153.386,129.027 153.71,128.905 153.999,128.8 C154.279,128.694 154.463,128.634 154.533,128.616 C154.603,128.58 154.699,128.528 154.813,128.467 C154.927,128.406 155.041,128.309 155.146,128.186 C155.251,128.056 155.347,127.915 155.426,127.758 C155.505,127.592 155.548,127.407 155.548,127.197 L155.548,123.258 L157.825,123.258 L157.825,139.663 Z M153.272,140.898 C153.719,140.898 154.095,140.846 154.384,140.749 C154.682,140.653 154.91,140.521 155.084,140.355 C155.251,140.198 155.373,140.022 155.443,139.821 C155.514,139.629 155.548,139.445 155.548,139.261 L155.548,130.139 C155.514,130.331 155.426,130.48 155.295,130.568 C155.163,130.655 155.023,130.717 154.883,130.752 C154.612,130.839 154.323,130.944 154.008,131.05 C153.701,131.154 153.412,131.251 153.141,131.338 C152.817,131.452 152.52,131.558 152.23,131.662 C152.021,131.75 151.811,131.89 151.618,132.064 C151.451,132.205 151.312,132.389 151.171,132.616 C151.04,132.835 150.97,133.115 150.97,133.457 L150.97,139.13 C150.987,139.357 151.04,139.585 151.119,139.795 C151.198,140.014 151.329,140.198 151.495,140.355 C151.662,140.521 151.898,140.653 152.187,140.749 C152.484,140.846 152.843,140.898 153.272,140.898 L153.272,140.898 Z" id="Fill-65"></path>
            <path d="M165.021,128.479 C166.088,128.479 166.929,128.611 167.533,128.865 C168.146,129.128 168.601,129.434 168.899,129.793 C169.205,130.142 169.389,130.511 169.459,130.869 C169.538,131.237 169.573,131.517 169.573,131.719 L169.573,133.006 C169.573,133.304 169.511,133.644 169.398,134.021 C169.284,134.39 169.013,134.792 168.583,135.221 C168.382,135.439 168.164,135.598 167.91,135.702 C167.664,135.808 167.437,135.894 167.244,135.947 C167.008,136.017 166.771,136.053 166.518,136.053 L164.487,136.053 C164.022,136.053 163.611,136.219 163.252,136.56 C162.902,136.901 162.718,137.321 162.718,137.82 L162.718,139.02 C162.718,139.449 162.797,139.791 162.963,140.035 C163.033,140.167 163.112,140.272 163.2,140.359 C163.287,140.447 163.427,140.525 163.603,140.604 C163.742,140.675 163.926,140.736 164.154,140.788 C164.373,140.841 164.662,140.867 165.021,140.867 C165.484,140.867 165.852,140.815 166.115,140.718 C166.386,140.622 166.57,140.534 166.684,140.465 C166.912,140.29 167.069,140.079 167.166,139.825 C167.253,139.571 167.297,139.309 167.297,139.02 L169.573,139.02 L169.573,139.668 C169.573,140.149 169.468,140.596 169.267,141.007 C169.057,141.41 168.741,141.768 168.312,142.075 C168.006,142.285 167.586,142.478 167.052,142.636 C166.518,142.793 165.844,142.872 165.021,142.872 C164.417,142.872 163.891,142.828 163.445,142.732 C162.999,142.627 162.604,142.505 162.28,142.355 C161.948,142.207 161.676,142.031 161.466,141.83 C161.248,141.638 161.072,141.436 160.923,141.243 C160.608,140.779 160.451,140.246 160.468,139.642 L160.468,131.719 C160.468,131.5 160.503,131.22 160.582,130.861 C160.652,130.502 160.836,130.142 161.143,129.793 C161.44,129.434 161.895,129.128 162.508,128.865 C163.112,128.611 163.953,128.479 165.021,128.479 M167.297,132.385 L167.297,132.147 C167.297,131.981 167.271,131.807 167.227,131.622 C167.183,131.438 167.078,131.255 166.92,131.089 C166.763,130.923 166.535,130.773 166.237,130.659 C165.949,130.546 165.555,130.484 165.073,130.484 C164.574,130.484 164.171,130.546 163.856,130.659 C163.541,130.773 163.305,130.913 163.138,131.071 C162.963,131.237 162.858,131.412 162.797,131.597 C162.745,131.78 162.718,131.946 162.718,132.087 L162.718,134.879 C162.753,134.713 162.832,134.581 162.963,134.485 C163.086,134.39 163.226,134.31 163.393,134.258 C163.55,134.205 163.708,134.17 163.874,134.152 C164.031,134.136 164.154,134.126 164.241,134.126 L165.773,134.126 C166.176,134.126 166.535,133.977 166.841,133.68 C167.148,133.391 167.297,133.041 167.297,132.63 L167.297,132.385" id="Fill-66"></path>
            <path d="M184.984,140.762 L184.984,142.662 L180.09,142.662 C179.565,142.662 179.127,142.566 178.751,142.382 C178.375,142.198 178.06,141.953 177.814,141.655 C177.561,141.366 177.376,141.043 177.254,140.684 C177.123,140.324 177.062,139.975 177.062,139.642 L177.062,123.263 L179.312,123.263 L179.312,139.213 C179.312,139.642 179.452,140.001 179.723,140.308 C180.003,140.613 180.371,140.762 180.834,140.762 L184.984,140.762" id="Fill-67"></path>
            <path d="M187.927,125.992 L190.176,125.992 L190.176,123.287 L187.927,123.287 L187.927,125.992 Z M187.927,142.66 L190.176,142.66 L190.176,128.697 L187.927,128.697 L187.927,142.66 Z" id="Fill-68"></path>
            <path d="M197.346,128.479 C198.414,128.479 199.254,128.611 199.868,128.865 C200.472,129.128 200.927,129.434 201.224,129.793 C201.531,130.142 201.715,130.511 201.785,130.869 C201.863,131.237 201.898,131.517 201.898,131.719 L201.898,133.006 C201.898,133.304 201.837,133.644 201.724,134.021 C201.609,134.39 201.347,134.792 200.935,135.221 C200.716,135.439 200.489,135.598 200.252,135.702 C200.007,135.808 199.78,135.894 199.57,135.947 C199.316,136.017 199.08,136.043 198.843,136.026 L196.812,136.026 C196.348,136.026 195.937,136.201 195.578,136.552 C195.219,136.892 195.044,137.312 195.044,137.794 L195.044,138.994 C195.044,139.44 195.123,139.791 195.289,140.035 C195.359,140.167 195.438,140.272 195.525,140.359 C195.613,140.447 195.753,140.525 195.928,140.604 C196.068,140.675 196.26,140.736 196.488,140.788 C196.725,140.841 197.005,140.867 197.346,140.867 C197.81,140.867 198.178,140.815 198.44,140.718 C198.712,140.622 198.896,140.534 199.009,140.465 L199.009,140.438 C199.237,140.263 199.395,140.053 199.491,139.808 C199.579,139.571 199.622,139.309 199.622,139.02 L201.898,139.02 L201.898,139.668 C201.898,140.149 201.793,140.596 201.592,141.007 C201.382,141.41 201.067,141.768 200.638,142.075 C200.331,142.285 199.92,142.478 199.395,142.636 C198.869,142.793 198.187,142.872 197.346,142.872 C196.138,142.872 195.219,142.705 194.588,142.364 C193.967,142.031 193.521,141.655 193.249,141.243 C192.934,140.762 192.785,140.219 192.794,139.615 L192.794,131.719 C192.794,131.5 192.829,131.22 192.908,130.861 C192.978,130.502 193.162,130.142 193.468,129.793 C193.766,129.434 194.221,129.128 194.833,128.865 C195.438,128.611 196.278,128.479 197.346,128.479 M198.021,127.35 C197.941,127.28 197.714,127.061 197.32,126.685 C196.926,126.309 196.506,125.889 196.05,125.424 C195.595,124.961 195.158,124.522 194.737,124.102 C194.317,123.683 194.028,123.393 193.871,123.235 L196.865,123.235 C196.899,123.307 196.97,123.42 197.083,123.586 C197.188,123.744 197.311,123.936 197.442,124.155 C197.574,124.383 197.723,124.628 197.88,124.891 C198.038,125.162 198.204,125.424 198.362,125.695 C198.738,126.317 199.158,127.017 199.622,127.779 C199.386,127.762 199.167,127.726 198.957,127.675 C198.755,127.64 198.572,127.596 198.405,127.543 C198.23,127.49 198.107,127.429 198.021,127.35 M199.622,132.147 C199.622,131.981 199.596,131.807 199.552,131.622 C199.508,131.438 199.403,131.255 199.246,131.089 C199.088,130.923 198.86,130.773 198.563,130.659 C198.265,130.546 197.88,130.484 197.398,130.484 C196.899,130.484 196.497,130.546 196.182,130.659 C195.867,130.773 195.63,130.913 195.464,131.071 C195.289,131.237 195.175,131.412 195.123,131.597 C195.07,131.78 195.044,131.946 195.044,132.087 L195.044,134.879 C195.079,134.713 195.158,134.581 195.289,134.485 C195.412,134.39 195.551,134.31 195.718,134.258 C195.875,134.205 196.033,134.17 196.199,134.152 C196.357,134.136 196.479,134.126 196.567,134.126 L198.099,134.126 C198.528,134.126 198.887,133.977 199.176,133.68 C199.473,133.391 199.622,133.032 199.622,132.602 L199.622,132.147" id="Fill-69"></path>
            <path d="M209.388,128.479 C210.456,128.479 211.296,128.611 211.9,128.865 C212.513,129.128 212.969,129.434 213.266,129.793 C213.573,130.142 213.756,130.511 213.826,130.869 C213.896,131.237 213.94,131.517 213.94,131.719 L213.94,133.006 C213.94,133.304 213.879,133.644 213.774,134.03 C213.669,134.415 213.397,134.809 212.977,135.221 C212.758,135.439 212.531,135.598 212.294,135.702 C212.049,135.808 211.831,135.894 211.638,135.947 C211.401,136.017 211.165,136.053 210.911,136.053 L208.854,136.053 C208.39,136.053 207.979,136.21 207.62,136.534 C207.261,136.857 207.085,137.277 207.085,137.82 L207.085,138.381 C207.085,138.573 207.129,138.74 207.208,138.871 C207.287,139.011 207.383,139.116 207.497,139.195 C207.62,139.274 207.733,139.344 207.847,139.379 C207.961,139.432 208.048,139.467 208.101,139.502 C208.171,139.519 208.355,139.58 208.635,139.677 C208.924,139.773 209.256,139.895 209.624,140.026 C210,140.158 210.395,140.298 210.815,140.438 C211.235,140.587 211.612,140.71 211.927,140.815 C212.574,141.051 213.065,141.436 213.415,141.987 C213.765,142.548 213.94,143.16 213.94,143.835 L213.94,145.096 C213.94,145.42 213.879,145.769 213.765,146.155 C213.651,146.54 213.424,146.891 213.083,147.214 C212.741,147.529 212.277,147.801 211.69,148.011 C211.104,148.229 210.333,148.335 209.388,148.335 C208.442,148.335 207.672,148.229 207.085,148.011 C206.499,147.801 206.035,147.529 205.693,147.214 C205.352,146.891 205.125,146.54 205.011,146.155 C204.897,145.769 204.835,145.42 204.835,145.096 L204.835,131.719 C204.835,131.517 204.871,131.237 204.94,130.869 C205.02,130.511 205.203,130.142 205.51,129.793 C205.807,129.434 206.263,129.128 206.875,128.865 C207.479,128.611 208.32,128.479 209.388,128.479 L209.388,128.479 Z M211.664,132.175 C211.664,132.008 211.638,131.842 211.594,131.649 C211.55,131.465 211.454,131.281 211.305,131.098 C211.147,130.923 210.929,130.773 210.631,130.659 C210.333,130.546 209.939,130.484 209.44,130.484 C208.941,130.484 208.539,130.546 208.224,130.659 C207.909,130.773 207.672,130.913 207.497,131.071 C207.331,131.237 207.217,131.412 207.164,131.597 C207.112,131.78 207.085,131.955 207.085,132.121 L207.085,134.896 C207.121,134.739 207.199,134.607 207.331,134.512 C207.453,134.415 207.602,134.336 207.768,134.284 C207.935,134.231 208.101,134.196 208.267,134.179 C208.425,134.161 208.539,134.152 208.609,134.152 L210.167,134.152 C210.57,134.152 210.929,134.004 211.218,133.706 C211.515,133.417 211.664,133.059 211.664,132.63 L211.664,132.175 Z M207.76,141.62 C207.628,141.585 207.497,141.524 207.357,141.428 C207.208,141.34 207.121,141.209 207.085,141.025 L207.085,144.316 C207.085,144.965 207.243,145.454 207.567,145.805 C207.891,146.155 208.495,146.33 209.388,146.33 C210.263,146.33 210.859,146.163 211.183,145.831 C211.498,145.507 211.664,144.999 211.664,144.316 C211.664,143.984 211.603,143.703 211.471,143.475 C211.349,143.258 211.208,143.073 211.051,142.925 C210.85,142.767 210.64,142.644 210.403,142.557 C210.114,142.443 209.817,142.338 209.493,142.233 C209.23,142.145 208.941,142.04 208.635,141.927 C208.337,141.812 208.04,141.708 207.76,141.62 L207.76,141.62 Z" id="Fill-70"></path>
            <path d="M220.974,128.479 C222.042,128.479 222.883,128.611 223.496,128.865 C224.1,129.128 224.555,129.434 224.853,129.793 C225.159,130.142 225.343,130.511 225.413,130.869 C225.492,131.237 225.526,131.517 225.526,131.719 L225.526,133.006 C225.526,133.304 225.465,133.644 225.352,134.021 C225.238,134.39 224.966,134.792 224.537,135.221 C224.336,135.439 224.117,135.598 223.863,135.702 C223.618,135.808 223.39,135.894 223.198,135.947 C222.961,136.017 222.725,136.053 222.471,136.053 L220.44,136.053 C219.976,136.053 219.565,136.219 219.206,136.56 C218.847,136.901 218.672,137.321 218.672,137.82 L218.672,139.02 C218.672,139.449 218.75,139.791 218.917,140.035 C218.987,140.167 219.066,140.272 219.153,140.359 C219.241,140.447 219.381,140.525 219.556,140.604 C219.696,140.675 219.88,140.736 220.107,140.788 C220.327,140.841 220.615,140.867 220.974,140.867 C221.438,140.867 221.806,140.815 222.068,140.718 C222.34,140.622 222.523,140.534 222.637,140.465 C222.865,140.29 223.022,140.079 223.11,139.825 C223.207,139.571 223.25,139.309 223.25,139.02 L225.526,139.02 L225.526,139.668 C225.526,140.149 225.421,140.596 225.22,141.007 C225.01,141.41 224.695,141.768 224.266,142.075 C223.959,142.285 223.54,142.478 223.005,142.636 C222.471,142.793 221.797,142.872 220.974,142.872 C220.37,142.872 219.845,142.828 219.398,142.732 C218.952,142.627 218.558,142.505 218.234,142.355 C217.901,142.207 217.63,142.031 217.411,141.83 C217.201,141.638 217.026,141.436 216.877,141.243 C216.562,140.779 216.404,140.246 216.422,139.642 L216.422,131.719 C216.422,131.5 216.457,131.22 216.536,130.861 C216.605,130.502 216.79,130.142 217.096,129.793 C217.394,129.434 217.857,129.128 218.461,128.865 C219.066,128.611 219.906,128.479 220.974,128.479 M223.25,132.385 L223.25,132.147 C223.25,131.981 223.224,131.807 223.18,131.622 C223.136,131.438 223.031,131.255 222.874,131.089 C222.716,130.923 222.489,130.773 222.191,130.659 C221.894,130.546 221.508,130.484 221.027,130.484 C220.528,130.484 220.125,130.546 219.81,130.659 C219.495,130.773 219.258,130.913 219.092,131.071 C218.917,131.237 218.812,131.412 218.75,131.597 C218.698,131.78 218.672,131.946 218.672,132.087 L218.672,134.879 C218.707,134.713 218.786,134.581 218.917,134.485 C219.04,134.39 219.18,134.31 219.346,134.258 C219.503,134.205 219.661,134.17 219.827,134.152 C219.985,134.136 220.107,134.126 220.195,134.126 L221.727,134.126 C222.13,134.126 222.489,133.977 222.795,133.68 C223.102,133.391 223.25,133.041 223.25,132.63 L223.25,132.385" id="Fill-71"></path>
            <path d="M16.438,99.912 L16.438,99.615 C16.438,99.448 16.412,99.273 16.36,99.081 C16.298,98.889 16.193,98.714 16.018,98.556 C15.843,98.39 15.607,98.25 15.3,98.136 C14.985,98.013 14.574,97.951 14.048,97.951 C13.558,97.951 13.164,98.013 12.867,98.136 C12.569,98.25 12.333,98.398 12.175,98.582 C12.009,98.766 11.904,98.949 11.86,99.134 C11.816,99.326 11.79,99.501 11.79,99.668 L11.79,112.326 C11.79,112.492 11.816,112.668 11.86,112.86 C11.904,113.044 12.009,113.228 12.175,113.403 C12.333,113.569 12.569,113.719 12.867,113.832 C13.164,113.954 13.558,114.008 14.048,114.008 C14.574,114.008 14.985,113.954 15.3,113.832 C15.607,113.719 15.843,113.578 16.018,113.412 C16.193,113.245 16.298,113.07 16.36,112.887 C16.412,112.694 16.438,112.528 16.438,112.379 L16.438,112.081 L18.749,112.081 L18.749,112.764 C18.749,112.983 18.714,113.271 18.636,113.631 C18.565,113.99 18.373,114.357 18.066,114.717 C17.76,115.084 17.296,115.391 16.684,115.653 C16.071,115.915 15.213,116.047 14.127,116.047 C13.042,116.047 12.192,115.915 11.571,115.653 C10.958,115.391 10.494,115.084 10.179,114.717 C9.855,114.357 9.663,113.99 9.592,113.613 C9.522,113.245 9.487,112.957 9.487,112.764 L9.487,99.203 C9.487,99.003 9.522,98.722 9.592,98.346 C9.663,97.978 9.855,97.61 10.179,97.252 C10.494,96.884 10.958,96.577 11.571,96.314 C12.192,96.052 13.042,95.921 14.127,95.921 C15.213,95.921 16.071,96.052 16.684,96.314 C17.296,96.577 17.76,96.884 18.066,97.252 C18.373,97.61 18.565,97.978 18.636,98.346 C18.714,98.722 18.749,99.003 18.749,99.203 L18.749,99.912 L16.438,99.912" id="Fill-72"></path>
            <path d="M25.295,101.46 C26.381,101.46 27.229,101.592 27.852,101.854 C28.464,102.116 28.928,102.432 29.234,102.791 C29.541,103.15 29.733,103.517 29.804,103.893 C29.873,104.262 29.917,104.551 29.917,104.743 L29.917,106.048 C29.917,106.363 29.856,106.704 29.733,107.08 C29.62,107.466 29.339,107.868 28.911,108.307 C28.709,108.524 28.481,108.683 28.227,108.796 C27.974,108.901 27.747,108.979 27.554,109.041 C27.317,109.111 27.072,109.146 26.818,109.146 L24.752,109.146 C24.279,109.146 23.868,109.321 23.5,109.663 C23.142,110.004 22.957,110.434 22.957,110.94 L22.957,112.158 C22.957,112.596 23.036,112.937 23.203,113.191 C23.273,113.322 23.36,113.427 23.448,113.523 C23.535,113.611 23.675,113.69 23.851,113.768 C23.999,113.839 24.183,113.9 24.411,113.952 C24.639,114.014 24.936,114.04 25.295,114.04 C25.768,114.04 26.135,113.987 26.407,113.892 C26.678,113.786 26.871,113.698 26.976,113.629 C27.212,113.454 27.378,113.234 27.466,112.981 C27.562,112.727 27.606,112.456 27.606,112.158 L29.917,112.158 L29.917,112.814 C29.917,113.305 29.813,113.76 29.602,114.172 C29.392,114.592 29.068,114.95 28.639,115.257 C28.324,115.475 27.904,115.669 27.361,115.835 C26.818,115.992 26.126,116.071 25.295,116.071 C24.682,116.071 24.148,116.027 23.693,115.923 C23.238,115.826 22.844,115.703 22.511,115.546 C22.178,115.388 21.898,115.213 21.679,115.012 C21.46,114.819 21.286,114.618 21.137,114.417 C20.812,113.943 20.655,113.401 20.673,112.788 L20.673,104.743 C20.673,104.524 20.716,104.235 20.787,103.876 C20.856,103.517 21.049,103.15 21.355,102.791 C21.662,102.432 22.126,102.116 22.739,101.854 C23.36,101.592 24.209,101.46 25.295,101.46 M27.606,105.426 L27.606,105.181 C27.606,105.015 27.58,104.84 27.536,104.655 C27.492,104.463 27.387,104.279 27.221,104.103 C27.063,103.937 26.827,103.789 26.529,103.675 C26.232,103.553 25.838,103.5 25.348,103.5 C24.84,103.5 24.428,103.553 24.113,103.675 C23.798,103.789 23.553,103.929 23.378,104.095 C23.211,104.262 23.098,104.436 23.036,104.63 C22.984,104.813 22.957,104.979 22.957,105.128 L22.957,107.956 C22.993,107.789 23.08,107.658 23.203,107.561 C23.325,107.457 23.474,107.378 23.64,107.325 C23.798,107.272 23.964,107.238 24.13,107.221 C24.288,107.203 24.419,107.194 24.507,107.194 L26.057,107.194 C26.468,107.194 26.836,107.045 27.142,106.739 C27.448,106.441 27.606,106.092 27.606,105.671 L27.606,105.426" id="Fill-73"></path>
            <path d="M41.35,115.857 L39.039,115.857 L39.039,105.178 C39.039,105.02 39.021,104.845 38.977,104.652 C38.925,104.46 38.82,104.285 38.662,104.109 C38.496,103.934 38.268,103.794 37.97,103.672 C37.673,103.559 37.279,103.497 36.789,103.497 C36.281,103.497 35.87,103.559 35.554,103.672 C35.23,103.794 34.985,103.934 34.819,104.092 C34.644,104.259 34.53,104.434 34.477,104.626 C34.425,104.818 34.398,104.985 34.398,105.125 L34.398,115.857 L32.087,115.857 L32.087,104.749 C32.087,104.53 32.123,104.241 32.192,103.882 C32.263,103.515 32.464,103.155 32.779,102.788 C33.094,102.429 33.558,102.114 34.18,101.85 C34.792,101.589 35.642,101.457 36.727,101.457 C37.822,101.457 38.67,101.589 39.284,101.85 C39.905,102.114 40.36,102.429 40.667,102.788 C40.982,103.155 41.165,103.522 41.245,103.891 C41.315,104.267 41.35,104.547 41.35,104.749 L41.35,115.857" id="Fill-74"></path>
            <path d="M50.396,113.819 L50.396,115.859 C49.311,115.859 48.462,115.727 47.84,115.466 C47.227,115.203 46.764,114.888 46.439,114.529 C46.124,114.161 45.932,113.793 45.862,113.426 C45.783,113.058 45.748,112.768 45.748,112.568 L45.748,103.385 L44.015,103.385 L44.015,101.458 L45.748,101.458 L45.748,97.843 L48.059,97.843 L48.059,101.458 L50.396,101.458 L50.396,103.385 L48.059,103.385 L48.059,112.112 C48.059,112.27 48.085,112.445 48.129,112.638 C48.173,112.83 48.278,113.014 48.444,113.198 C48.602,113.373 48.838,113.521 49.136,113.644 C49.434,113.759 49.828,113.819 50.318,113.819 L50.396,113.819" id="Fill-75"></path>
            <path d="M56.917,101.486 C57.223,101.486 57.494,101.486 57.713,101.478 C57.941,101.47 58.186,101.478 58.44,101.514 L57.923,103.5 C57.705,103.5 57.52,103.5 57.38,103.509 C57.231,103.518 57.057,103.526 56.864,103.526 C56.374,103.526 55.98,103.588 55.682,103.711 C55.384,103.842 55.148,103.99 54.991,104.166 C54.824,104.332 54.719,104.516 54.675,104.709 C54.632,104.892 54.605,105.076 54.605,105.233 L54.605,115.861 L52.294,115.861 L52.294,104.778 C52.294,104.577 52.338,104.288 52.408,103.921 C52.478,103.544 52.671,103.185 52.977,102.817 C53.284,102.459 53.748,102.143 54.36,101.881 C54.982,101.618 55.831,101.486 56.917,101.486" id="Fill-76"></path>
            <path d="M64.332,101.46 C65.418,101.46 66.267,101.592 66.889,101.854 C67.502,102.116 67.965,102.432 68.272,102.791 C68.578,103.15 68.771,103.517 68.841,103.893 C68.911,104.262 68.955,104.551 68.955,104.743 L68.955,106.048 C68.955,106.363 68.894,106.704 68.771,107.08 C68.657,107.466 68.377,107.868 67.948,108.307 C67.747,108.524 67.519,108.683 67.265,108.796 C67.011,108.901 66.784,108.979 66.591,109.041 C66.354,109.111 66.109,109.146 65.855,109.146 L63.79,109.146 C63.317,109.146 62.905,109.321 62.538,109.663 C62.179,110.004 61.995,110.434 61.995,110.94 L61.995,112.158 C61.995,112.596 62.074,112.937 62.24,113.191 C62.31,113.322 62.398,113.427 62.485,113.523 C62.573,113.611 62.713,113.69 62.897,113.768 C63.037,113.839 63.221,113.9 63.448,113.952 C63.676,114.014 63.974,114.04 64.332,114.04 C64.805,114.04 65.173,113.987 65.444,113.892 C65.716,113.786 65.908,113.698 66.013,113.629 C66.249,113.454 66.416,113.234 66.503,112.981 C66.6,112.727 66.644,112.456 66.644,112.158 L68.955,112.158 L68.955,112.814 C68.955,113.305 68.85,113.76 68.64,114.172 C68.43,114.592 68.105,114.95 67.677,115.257 C67.37,115.475 66.941,115.669 66.398,115.835 C65.855,115.992 65.164,116.071 64.332,116.071 C63.72,116.071 63.185,116.027 62.73,115.923 C62.275,115.826 61.881,115.703 61.548,115.546 C61.216,115.388 60.936,115.213 60.717,115.012 C60.507,114.819 60.323,114.618 60.174,114.417 C59.85,113.943 59.692,113.401 59.719,112.788 L59.719,104.743 C59.719,104.524 59.754,104.235 59.824,103.876 C59.894,103.517 60.086,103.15 60.393,102.791 C60.699,102.432 61.163,102.116 61.776,101.854 C62.398,101.592 63.247,101.46 64.332,101.46 M66.644,105.426 L66.644,105.181 C66.644,105.015 66.617,104.84 66.574,104.655 C66.53,104.463 66.425,104.279 66.258,104.103 C66.101,103.937 65.864,103.789 65.567,103.675 C65.269,103.553 64.875,103.5 64.385,103.5 C63.877,103.5 63.466,103.553 63.15,103.675 C62.835,103.789 62.59,103.929 62.415,104.095 C62.249,104.262 62.135,104.436 62.074,104.63 C62.021,104.813 61.995,104.979 61.995,105.128 L61.995,107.956 C62.03,107.789 62.118,107.658 62.24,107.561 C62.371,107.457 62.512,107.378 62.678,107.325 C62.835,107.272 63.002,107.238 63.168,107.221 C63.326,107.203 63.457,107.194 63.544,107.194 L65.094,107.194 C65.505,107.194 65.873,107.045 66.18,106.739 C66.486,106.441 66.644,106.092 66.644,105.671 L66.644,105.426" id="Fill-77"></path>
            <path d="M85.793,112.815 C85.775,113.761 85.399,114.54 84.655,115.161 C83.911,115.792 82.755,116.099 81.171,116.099 C80.356,116.099 79.656,116.019 79.07,115.845 C78.483,115.67 77.993,115.433 77.616,115.136 C77.24,114.838 76.96,114.487 76.785,114.094 C76.619,113.691 76.531,113.27 76.531,112.815 L76.531,112.159 L76.557,112.159 L76.557,106.643 L76.531,106.643 L76.531,106.022 C76.531,105.34 76.706,104.709 77.056,104.148 C77.415,103.589 77.923,103.185 78.597,102.949 C78.921,102.845 79.289,102.722 79.709,102.573 C80.129,102.425 80.523,102.284 80.899,102.153 C81.285,102.013 81.617,101.89 81.906,101.785 C82.195,101.68 82.379,101.618 82.449,101.593 C82.528,101.558 82.615,101.514 82.738,101.444 C82.852,101.383 82.965,101.286 83.079,101.163 C83.184,101.032 83.28,100.892 83.359,100.725 C83.447,100.559 83.482,100.376 83.482,100.156 L83.482,96.165 L85.793,96.165 L85.793,112.815 Z M81.171,114.067 C81.626,114.067 82.002,114.015 82.3,113.919 C82.598,113.813 82.834,113.683 83.009,113.525 C83.184,113.358 83.307,113.175 83.377,112.982 C83.447,112.78 83.482,112.588 83.482,112.404 L83.482,103.142 C83.447,103.344 83.359,103.492 83.228,103.579 C83.088,103.667 82.948,103.737 82.808,103.772 C82.537,103.86 82.239,103.956 81.923,104.07 C81.608,104.175 81.31,104.271 81.039,104.367 C80.715,104.473 80.409,104.587 80.111,104.691 C79.901,104.788 79.691,104.919 79.49,105.102 C79.332,105.243 79.175,105.427 79.043,105.654 C78.903,105.882 78.842,106.171 78.842,106.513 L78.842,112.273 C78.859,112.509 78.903,112.736 78.991,112.946 C79.07,113.166 79.192,113.358 79.367,113.525 C79.542,113.683 79.779,113.813 80.076,113.919 C80.374,114.015 80.742,114.067 81.171,114.067 L81.171,114.067 Z" id="Fill-78"></path>
            <path d="M88.455,94.612 L90.792,94.612 L90.792,97.003 C90.792,97.931 90.6,98.648 90.206,99.174 C89.821,99.699 89.226,99.962 88.429,99.962 L88.429,99.209 C88.735,99.174 88.972,99.086 89.138,98.964 C89.295,98.833 89.418,98.675 89.505,98.474 C89.584,98.272 89.628,98.045 89.637,97.782 C89.646,97.519 89.646,97.248 89.62,96.976 L88.867,96.976 C88.718,96.976 88.586,96.985 88.455,97.003 L88.455,94.612" id="Fill-79"></path>
            <path d="M102.691,115.857 L100.379,115.857 L100.379,106.763 C100.345,106.771 100.152,106.85 99.802,106.973 C99.443,107.103 99.058,107.234 98.646,107.384 L97.009,107.927 C96.799,107.979 96.589,108.075 96.388,108.197 C96.221,108.303 96.072,108.443 95.941,108.618 C95.801,108.794 95.74,109.012 95.74,109.283 L95.74,115.857 L93.455,115.857 L93.455,99.233 C93.455,99.032 93.49,98.752 93.56,98.376 C93.639,98.008 93.823,97.64 94.138,97.281 C94.444,96.914 94.899,96.599 95.521,96.336 C96.134,96.073 96.983,95.942 98.068,95.942 C99.163,95.942 100.012,96.073 100.625,96.336 C101.237,96.599 101.702,96.914 102.017,97.281 C102.323,97.64 102.507,98.008 102.585,98.376 C102.656,98.752 102.691,99.032 102.691,99.233 L102.691,115.857 Z M96.554,105.791 C96.93,105.659 97.315,105.519 97.71,105.388 C98.095,105.248 98.445,105.125 98.769,105.02 C99.084,104.906 99.259,104.845 99.294,104.828 C99.767,104.67 100.064,104.442 100.196,104.153 C100.318,103.855 100.379,103.594 100.379,103.366 L100.379,99.637 C100.379,99.478 100.353,99.304 100.301,99.111 C100.248,98.918 100.134,98.743 99.96,98.577 C99.784,98.42 99.548,98.279 99.242,98.156 C98.935,98.043 98.515,97.981 97.99,97.981 C97.499,97.981 97.105,98.043 96.808,98.156 C96.51,98.279 96.282,98.428 96.116,98.612 C95.95,98.787 95.854,98.971 95.801,99.163 C95.757,99.356 95.74,99.531 95.74,99.697 L95.74,106.08 C95.898,106.026 96.169,105.931 96.554,105.791 L96.554,105.791 Z" id="Fill-80"></path>
            <path d="M112.307,105.398 L112.307,105.128 C112.307,104.944 112.272,104.76 112.202,104.567 C112.123,104.384 112.001,104.208 111.817,104.042 C111.633,103.876 111.397,103.745 111.099,103.648 C110.801,103.543 110.425,103.499 109.97,103.499 C109.068,103.499 108.456,103.684 108.14,104.059 C107.816,104.428 107.659,104.874 107.659,105.398 L107.659,112 C107.659,112.691 107.825,113.199 108.149,113.532 C108.473,113.873 109.085,114.04 109.97,114.04 C110.88,114.04 111.493,113.864 111.817,113.506 C112.141,113.155 112.307,112.656 112.307,112 L114.592,112 L114.592,112.788 C114.592,113.112 114.531,113.471 114.417,113.864 C114.294,114.25 114.067,114.608 113.717,114.933 C113.375,115.257 112.902,115.537 112.307,115.747 C111.712,115.966 110.933,116.071 109.97,116.071 C109.016,116.071 108.236,115.966 107.632,115.747 C107.037,115.537 106.564,115.257 106.223,114.933 C105.881,114.608 105.645,114.25 105.531,113.864 C105.409,113.471 105.356,113.112 105.356,112.788 L105.356,104.743 C105.356,104.296 105.435,103.867 105.61,103.474 C105.785,103.07 106.057,102.721 106.442,102.423 C106.818,102.125 107.3,101.889 107.877,101.723 C108.456,101.548 109.156,101.46 109.97,101.46 C111.581,101.46 112.754,101.775 113.489,102.396 C114.225,103.017 114.592,103.806 114.592,104.743 L114.592,105.398 L112.307,105.398" id="Fill-81"></path>
            <path d="M123.636,113.819 L123.636,115.859 C122.55,115.859 121.701,115.727 121.079,115.466 C120.466,115.203 120.002,114.888 119.678,114.529 C119.363,114.161 119.171,113.793 119.101,113.426 C119.031,113.058 118.987,112.768 118.987,112.568 L118.987,103.385 L117.253,103.385 L117.253,101.458 L118.987,101.458 L118.987,97.843 L121.298,97.843 L121.298,101.458 L123.636,101.458 L123.636,103.385 L121.298,103.385 L121.298,112.112 C121.298,112.27 121.324,112.445 121.368,112.638 C121.412,112.83 121.517,113.014 121.683,113.198 C121.841,113.373 122.077,113.521 122.375,113.644 C122.672,113.759 123.066,113.819 123.557,113.819 L123.636,113.819" id="Fill-82"></path>
            <path d="M125.858,98.933 L128.143,98.933 L128.143,96.192 L125.858,96.192 L125.858,98.933 Z M125.858,115.855 L128.143,115.855 L128.143,101.682 L125.858,101.682 L125.858,115.855 Z" id="Fill-83"></path>
            <path d="M140.044,112.354 L140.044,112.792 C140.044,113.002 140.008,113.291 139.938,113.659 C139.86,114.017 139.676,114.386 139.37,114.744 C139.055,115.103 138.59,115.419 137.978,115.681 C137.365,115.943 136.516,116.075 135.421,116.075 C134.336,116.075 133.486,115.943 132.874,115.681 C132.252,115.419 131.797,115.103 131.482,114.744 C131.176,114.386 130.992,114.017 130.913,113.642 C130.843,113.273 130.808,112.984 130.808,112.792 L130.808,104.747 C130.808,104.546 130.843,104.266 130.913,103.889 C130.992,103.521 131.176,103.153 131.482,102.795 C131.797,102.427 132.252,102.121 132.874,101.858 C133.486,101.596 134.336,101.464 135.421,101.464 C136.516,101.464 137.365,101.596 137.978,101.858 C138.59,102.121 139.055,102.427 139.37,102.795 C139.676,103.153 139.86,103.513 139.938,103.88 C140.008,104.239 140.044,104.528 140.044,104.747 L140.044,112.354 Z M137.732,112.083 L137.732,105.158 C137.732,104.992 137.706,104.817 137.654,104.624 C137.601,104.432 137.487,104.257 137.313,104.099 C137.137,103.933 136.901,103.793 136.594,103.67 C136.288,103.557 135.868,103.495 135.343,103.495 C134.853,103.495 134.458,103.557 134.161,103.67 C133.863,103.793 133.635,103.941 133.469,104.108 C133.303,104.282 133.198,104.467 133.154,104.668 C133.11,104.869 133.093,105.035 133.093,105.184 L133.093,112.354 C133.093,112.495 133.11,112.67 133.154,112.871 C133.198,113.072 133.303,113.256 133.469,113.422 C133.635,113.598 133.863,113.747 134.161,113.86 C134.458,113.982 134.853,114.035 135.343,114.035 C135.868,114.035 136.288,113.982 136.594,113.86 C136.901,113.747 137.137,113.606 137.313,113.44 C137.487,113.282 137.601,113.099 137.654,112.915 C137.706,112.723 137.732,112.547 137.732,112.381 L137.732,112.083 L137.732,112.083 Z" id="Fill-84"></path>
            <path d="M151.971,115.857 L149.66,115.857 L149.66,105.178 C149.66,105.02 149.633,104.845 149.589,104.652 C149.546,104.46 149.44,104.285 149.283,104.109 C149.117,103.934 148.889,103.794 148.591,103.672 C148.285,103.559 147.891,103.497 147.41,103.497 C146.902,103.497 146.49,103.559 146.167,103.672 C145.852,103.794 145.606,103.934 145.431,104.092 C145.265,104.259 145.151,104.434 145.099,104.626 C145.046,104.818 145.011,104.985 145.011,105.125 L145.011,115.857 L142.708,115.857 L142.708,104.749 C142.708,104.53 142.744,104.241 142.813,103.882 C142.883,103.515 143.076,103.155 143.4,102.788 C143.715,102.429 144.179,102.114 144.801,101.85 C145.414,101.589 146.263,101.457 147.348,101.457 C148.434,101.457 149.292,101.589 149.904,101.85 C150.517,102.114 150.981,102.429 151.288,102.788 C151.603,103.155 151.787,103.522 151.857,103.891 C151.936,104.267 151.971,104.547 151.971,104.749 L151.971,115.857" id="Fill-85"></path>
            <path d="M168.107,113.929 L168.107,115.855 L163.134,115.855 C162.609,115.855 162.153,115.759 161.777,115.575 C161.401,115.382 161.077,115.137 160.823,114.839 C160.569,114.542 160.385,114.209 160.254,113.85 C160.131,113.482 160.062,113.133 160.062,112.791 L160.062,96.166 L162.346,96.166 L162.346,112.353 C162.346,112.791 162.486,113.159 162.767,113.465 C163.047,113.771 163.423,113.929 163.896,113.929 L168.107,113.929" id="Fill-86"></path>
            <path d="M175.387,101.46 C176.98,101.46 178.153,101.775 178.889,102.397 C179.633,103.018 180.009,103.806 180.009,104.743 L180.009,112.788 C180.009,113.112 179.948,113.471 179.825,113.865 C179.711,114.251 179.484,114.609 179.134,114.933 C178.792,115.257 178.319,115.528 177.724,115.747 C177.129,115.966 176.35,116.071 175.387,116.071 C174.424,116.071 173.645,115.966 173.049,115.747 C172.454,115.528 171.981,115.257 171.64,114.933 C171.29,114.609 171.062,114.251 170.948,113.865 C170.826,113.471 170.765,113.112 170.765,112.788 L170.765,111.51 C170.765,110.818 170.948,110.197 171.298,109.637 C171.649,109.077 172.156,108.674 172.804,108.437 C173.128,108.332 173.504,108.21 173.916,108.06 C174.336,107.912 174.739,107.771 175.124,107.641 C175.518,107.5 175.859,107.378 176.148,107.272 C176.438,107.168 176.621,107.098 176.691,107.08 C176.761,107.045 176.857,106.993 176.98,106.932 C177.094,106.87 177.208,106.774 177.313,106.651 C177.426,106.519 177.523,106.38 177.602,106.214 C177.681,106.048 177.724,105.864 177.724,105.644 L177.724,105.128 C177.724,104.944 177.689,104.761 177.619,104.568 C177.54,104.375 177.418,104.2 177.234,104.043 C177.05,103.876 176.814,103.745 176.516,103.648 C176.218,103.544 175.842,103.5 175.387,103.5 C174.477,103.5 173.873,103.684 173.548,104.052 C173.233,104.428 173.076,104.874 173.076,105.399 L170.765,105.399 L170.765,104.743 C170.765,104.297 170.852,103.867 171.027,103.474 C171.202,103.071 171.474,102.721 171.859,102.423 C172.235,102.126 172.717,101.889 173.294,101.714 C173.873,101.548 174.573,101.46 175.387,101.46 M177.724,108.656 C177.689,108.84 177.593,108.979 177.453,109.067 C177.304,109.155 177.172,109.217 177.042,109.251 C176.77,109.348 176.481,109.453 176.166,109.566 C175.842,109.689 175.553,109.786 175.282,109.882 C174.949,109.987 174.643,110.1 174.354,110.206 C174.135,110.293 173.925,110.425 173.732,110.591 C173.566,110.73 173.417,110.915 173.277,111.142 C173.146,111.37 173.076,111.659 173.076,112 C173.076,112.691 173.242,113.199 173.566,113.532 C173.89,113.874 174.502,114.04 175.387,114.04 C176.297,114.04 176.91,113.865 177.234,113.506 C177.558,113.156 177.724,112.648 177.724,112 L177.724,108.656" id="Fill-87"></path>
            <path d="M187.314,100.264 L189.625,100.264 L189.625,97.55 L187.314,97.55 L187.314,100.264 Z M182.665,100.264 L184.977,100.264 L184.977,97.55 L182.665,97.55 L182.665,100.264 Z M184.977,115.855 L187.252,115.855 L187.252,101.682 L184.977,101.682 L184.977,115.855 Z" id="Fill-88"></path>
            <path d="M201.521,121.372 L199.21,121.372 L199.21,117.407 C199.21,117.188 199.166,116.995 199.087,116.838 C199.008,116.672 198.912,116.531 198.807,116.4 C198.693,116.277 198.588,116.182 198.475,116.111 C198.37,116.05 198.282,116.006 198.203,115.972 C198.133,115.945 197.949,115.884 197.661,115.778 C197.372,115.665 197.039,115.543 196.645,115.411 C196.251,115.271 195.848,115.131 195.437,114.991 C195.017,114.842 194.649,114.72 194.325,114.605 C193.651,114.378 193.143,113.975 192.784,113.415 C192.434,112.854 192.259,112.225 192.259,111.541 L192.259,110.911 L192.285,110.911 L192.285,105.396 L192.259,105.396 L192.259,104.748 C192.259,104.293 192.347,103.864 192.513,103.47 C192.688,103.076 192.968,102.726 193.344,102.429 C193.721,102.122 194.211,101.886 194.798,101.719 C195.384,101.544 196.084,101.457 196.899,101.457 C198.475,101.457 199.639,101.771 200.383,102.393 C201.118,103.023 201.503,103.794 201.521,104.722 L201.521,121.372 Z M199.21,110.911 L199.21,105.151 C199.21,104.958 199.175,104.757 199.105,104.573 C199.026,104.381 198.903,104.205 198.737,104.039 C198.562,103.882 198.326,103.751 198.028,103.645 C197.73,103.549 197.354,103.496 196.899,103.496 C196.47,103.496 196.102,103.54 195.805,103.637 C195.507,103.724 195.271,103.847 195.095,104.013 C194.92,104.179 194.798,104.363 194.719,104.582 C194.631,104.801 194.579,105.028 194.57,105.265 L194.57,111.052 C194.57,111.392 194.631,111.682 194.771,111.9 C194.903,112.128 195.052,112.32 195.218,112.461 C195.419,112.627 195.629,112.75 195.839,112.846 C196.128,112.951 196.443,113.057 196.767,113.17 C197.039,113.258 197.336,113.362 197.651,113.485 C197.967,113.6 198.265,113.704 198.536,113.792 C198.676,113.826 198.816,113.896 198.956,113.984 C199.087,114.071 199.175,114.221 199.21,114.422 L199.21,110.911 L199.21,110.911 Z" id="Fill-89"></path>
            <path d="M213.42,112.271 L213.42,112.763 C213.42,112.981 213.385,113.27 213.307,113.629 C213.236,113.997 213.043,114.355 212.737,114.715 C212.431,115.082 211.967,115.389 211.354,115.651 C210.741,115.914 209.883,116.045 208.798,116.045 C207.712,116.045 206.863,115.914 206.25,115.651 C205.629,115.389 205.165,115.082 204.858,114.715 C204.552,114.355 204.359,113.988 204.289,113.62 C204.219,113.244 204.184,112.964 204.184,112.763 L204.184,101.653 L206.46,101.653 L206.46,112.054 L206.496,112.054 L206.496,112.325 C206.496,112.474 206.513,112.64 206.557,112.841 C206.601,113.042 206.706,113.226 206.854,113.401 C207.012,113.567 207.24,113.717 207.537,113.83 C207.835,113.953 208.238,114.015 208.745,114.015 C209.271,114.015 209.691,113.953 209.997,113.83 C210.304,113.717 210.54,113.577 210.706,113.41 C210.864,113.253 210.978,113.068 211.03,112.885 C211.083,112.692 211.109,112.517 211.109,112.35 L211.109,112.054 L211.135,112.054 L211.135,101.653 L213.42,101.653 L213.42,112.271" id="Fill-90"></path>
            <path d="M220.727,101.46 C221.812,101.46 222.661,101.592 223.283,101.854 C223.896,102.116 224.359,102.432 224.666,102.791 C224.972,103.15 225.165,103.517 225.235,103.893 C225.305,104.262 225.349,104.551 225.349,104.743 L225.349,106.048 C225.349,106.363 225.288,106.704 225.165,107.08 C225.051,107.466 224.771,107.868 224.342,108.307 C224.141,108.524 223.913,108.683 223.659,108.796 C223.405,108.901 223.178,108.979 222.985,109.041 C222.749,109.111 222.503,109.146 222.25,109.146 L220.184,109.146 C219.711,109.146 219.299,109.321 218.932,109.663 C218.573,110.004 218.389,110.434 218.389,110.94 L218.389,112.158 C218.389,112.596 218.468,112.937 218.634,113.191 C218.704,113.322 218.792,113.427 218.879,113.523 C218.967,113.611 219.107,113.69 219.291,113.768 C219.431,113.839 219.615,113.9 219.842,113.952 C220.07,114.014 220.368,114.04 220.727,114.04 C221.199,114.04 221.567,113.987 221.838,113.892 C222.11,113.786 222.302,113.698 222.416,113.629 C222.644,113.454 222.81,113.234 222.897,112.981 C222.994,112.727 223.038,112.456 223.038,112.158 L225.349,112.158 L225.349,112.814 C225.349,113.305 225.244,113.76 225.034,114.172 C224.824,114.592 224.5,114.95 224.071,115.257 C223.764,115.475 223.335,115.669 222.792,115.835 C222.25,115.992 221.558,116.071 220.727,116.071 C220.114,116.071 219.58,116.027 219.125,115.923 C218.669,115.826 218.275,115.703 217.942,115.546 C217.61,115.388 217.33,115.213 217.111,115.012 C216.892,114.819 216.717,114.618 216.568,114.417 C216.244,113.943 216.086,113.401 216.113,112.788 L216.113,104.743 C216.113,104.524 216.148,104.235 216.218,103.876 C216.288,103.517 216.48,103.15 216.787,102.791 C217.093,102.432 217.557,102.116 218.179,101.854 C218.792,101.592 219.641,101.46 220.727,101.46 M223.038,105.426 L223.038,105.181 C223.038,105.015 223.011,104.84 222.968,104.655 C222.924,104.463 222.819,104.279 222.652,104.103 C222.495,103.937 222.258,103.789 221.961,103.675 C221.663,103.553 221.269,103.5 220.779,103.5 C220.271,103.5 219.86,103.553 219.545,103.675 C219.229,103.789 218.984,103.929 218.809,104.095 C218.643,104.262 218.529,104.436 218.468,104.63 C218.416,104.813 218.389,104.979 218.389,105.128 L218.389,107.956 C218.424,107.789 218.512,107.658 218.634,107.561 C218.766,107.457 218.906,107.378 219.072,107.325 C219.229,107.272 219.396,107.238 219.562,107.221 C219.72,107.203 219.851,107.194 219.938,107.194 L221.488,107.194 C221.908,107.194 222.268,107.045 222.574,106.739 C222.88,106.441 223.038,106.092 223.038,105.671 L223.038,105.426" id="Fill-91"></path>
            <path d="M250.681,47.743 C254.638,47.743 257.737,48.225 259.979,49.178 C262.22,50.133 263.9,51.271 265.029,52.593 C266.15,53.914 266.842,55.246 267.104,56.594 C267.367,57.951 267.499,58.992 267.499,59.71 L267.499,64.464 C267.499,65.584 267.306,66.853 266.903,68.272 C266.509,69.69 265.52,71.152 263.935,72.676 C263.147,73.464 262.307,74.059 261.414,74.452 C260.521,74.847 259.716,75.143 258.989,75.346 C258.131,75.608 257.238,75.739 256.319,75.739 L248.703,75.739 C246.987,75.739 245.473,76.335 244.15,77.517 C242.829,78.707 242.172,80.292 242.172,82.27 L242.172,84.345 C242.172,85.071 242.321,85.684 242.618,86.184 C242.916,86.674 243.275,87.067 243.704,87.365 C244.133,87.663 244.562,87.891 244.991,88.057 C245.42,88.223 245.735,88.372 245.937,88.503 C246.199,88.573 246.855,88.783 247.906,89.142 C248.965,89.511 250.191,89.938 251.574,90.437 C252.958,90.929 254.419,91.435 255.969,91.97 C257.527,92.495 258.893,92.959 260.083,93.353 C262.456,94.211 264.286,95.665 265.572,97.704 C266.859,99.753 267.499,102.019 267.499,104.533 L267.499,109.181 C267.499,110.372 267.288,111.667 266.859,113.086 C266.43,114.504 265.581,115.808 264.338,116.999 C263.077,118.181 261.37,119.17 259.19,119.966 C257.011,120.754 254.174,121.148 250.681,121.148 C247.188,121.148 244.352,120.754 242.172,119.966 C239.992,119.17 238.276,118.181 237.024,116.999 C235.772,115.808 234.932,114.504 234.503,113.086 C234.074,111.667 233.864,110.372 233.864,109.181 L233.864,59.71 C233.864,58.992 233.996,57.951 234.258,56.594 C234.521,55.246 235.212,53.914 236.333,52.593 C237.453,51.271 239.143,50.133 241.384,49.178 C243.625,48.225 246.724,47.743 250.681,47.743 L250.681,47.743 Z M259.094,61.4 C259.094,60.805 259.007,60.156 258.84,59.465 C258.674,58.773 258.315,58.1 257.755,57.434 C257.194,56.778 256.372,56.235 255.286,55.806 C254.191,55.376 252.729,55.166 250.882,55.166 C249.035,55.166 247.53,55.376 246.374,55.806 C245.227,56.235 244.334,56.742 243.704,57.337 C243.083,57.933 242.671,58.572 242.47,59.272 C242.268,59.964 242.172,60.603 242.172,61.198 L242.172,71.485 C242.303,70.89 242.601,70.417 243.065,70.049 C243.52,69.69 244.072,69.41 244.693,69.209 C245.323,69.017 245.937,68.885 246.523,68.814 C247.118,68.753 247.547,68.719 247.81,68.719 L253.553,68.719 C255.067,68.719 256.372,68.167 257.457,67.081 C258.542,65.996 259.094,64.656 259.094,63.08 L259.094,61.4 Z M244.641,96.32 C244.186,96.189 243.687,95.953 243.161,95.629 C242.636,95.297 242.303,94.798 242.172,94.142 L242.172,106.309 C242.172,108.683 242.767,110.52 243.958,111.799 C245.14,113.086 247.381,113.733 250.681,113.733 C253.912,113.733 256.118,113.12 257.308,111.903 C258.499,110.678 259.094,108.822 259.094,106.309 C259.094,105.058 258.858,104.016 258.402,103.193 C257.938,102.37 257.413,101.696 256.818,101.162 C256.091,100.575 255.295,100.111 254.437,99.779 C253.386,99.385 252.266,98.991 251.075,98.597 C250.086,98.265 249.035,97.888 247.906,97.459 C246.786,97.03 245.7,96.645 244.641,96.32 L244.641,96.32 Z" id="Fill-92"></path>
            <path d="M268.681,91.838 L257.511,91.812 L256.18,91.356 C254.63,90.832 253.168,90.315 251.785,89.825 C250.402,89.335 249.176,88.896 248.117,88.538 C247.215,88.231 246.629,88.03 246.252,87.926 L246.13,87.873 C245.902,87.741 245.64,87.619 245.219,87.452 C244.852,87.312 244.466,87.111 244.073,86.84 C243.722,86.595 243.425,86.27 243.171,85.842 C242.935,85.448 242.812,84.958 242.812,84.345 L242.812,82.27 C242.83,80.423 243.372,79.101 244.58,77.998 C245.806,76.903 247.119,76.388 248.704,76.378 L256.32,76.378 C257.309,76.378 258.272,76.238 259.183,75.958 C259.918,75.757 260.75,75.45 261.677,75.039 C262.632,74.619 263.542,73.971 264.391,73.131 C266.072,71.519 267.088,69.987 267.525,68.438 C267.937,66.959 268.138,65.654 268.138,64.464 L268.138,59.71 C268.138,58.931 268.016,57.933 267.736,56.471 C267.447,55.017 266.703,53.565 265.512,52.173 C264.313,50.763 262.588,49.59 260.233,48.583 C257.887,47.585 254.761,47.103 250.682,47.095 C246.603,47.103 243.477,47.585 241.131,48.583 C238.776,49.59 237.043,50.763 235.843,52.173 C234.653,53.573 233.909,55.017 233.628,56.471 C233.349,57.889 233.226,58.923 233.217,59.71 L233.217,91.838 L200.589,91.838 C194.173,91.838 188.964,86.577 188.964,80.116 L188.964,12.218 C188.964,5.748 194.173,0.496 200.589,0.496 L268.681,0.496 C275.089,0.496 280.307,5.748 280.307,12.218 L280.307,80.116 C280.307,86.577 275.089,91.838 268.681,91.838 L268.681,91.838 Z M257.782,90.735 L268.681,90.735 C274.485,90.735 279.204,85.973 279.204,80.116 L279.204,12.218 C279.204,6.361 274.485,1.599 268.681,1.599 L200.589,1.599 C194.786,1.599 190.067,6.361 190.067,12.218 L190.067,80.116 C190.067,85.973 194.786,90.735 200.589,90.735 L232.114,90.735 L232.114,59.71 C232.123,58.852 232.254,57.758 232.543,56.261 C232.867,54.615 233.69,53.004 235.003,51.454 C236.316,49.923 238.181,48.644 240.693,47.568 C243.188,46.517 246.454,46.001 250.682,46.001 C254.91,46.001 258.176,46.517 260.662,47.568 C263.183,48.644 265.039,49.914 266.352,51.454 C267.666,52.996 268.497,54.615 268.821,56.261 C269.11,57.793 269.241,58.861 269.241,59.71 L269.241,64.464 C269.241,65.76 269.031,67.16 268.584,68.735 C268.094,70.478 266.974,72.177 265.162,73.918 C264.225,74.855 263.201,75.573 262.124,76.046 C261.152,76.483 260.259,76.808 259.489,77.017 C258.491,77.324 257.423,77.481 256.32,77.481 L248.704,77.481 C247.391,77.49 246.349,77.901 245.315,78.82 C244.353,79.705 243.932,80.738 243.915,82.278 L243.915,84.345 C243.915,84.757 243.985,85.062 244.116,85.272 C244.283,85.561 244.475,85.771 244.703,85.93 C245.018,86.148 245.324,86.314 245.613,86.429 C245.946,86.559 246.296,86.7 246.629,86.884 C247.014,86.997 247.601,87.199 248.476,87.496 C249.535,87.855 250.77,88.293 252.162,88.792 C253.536,89.282 254.989,89.79 256.539,90.315 L257.782,90.735 Z M242.812,69.349 L242.812,61.198 C242.812,60.664 242.908,60.077 243.083,59.447 C243.258,58.852 243.6,58.318 244.151,57.802 C244.694,57.285 245.543,56.795 246.603,56.41 C247.653,56.016 249.115,55.806 250.839,55.806 C252.634,55.806 254.061,56.016 255.05,56.401 C256.031,56.786 256.775,57.276 257.265,57.854 C257.764,58.441 258.079,59.018 258.22,59.614 C258.368,60.262 258.447,60.857 258.447,61.391 L258.447,63.072 C258.43,64.534 257.992,65.628 257.002,66.626 C255.996,67.615 254.937,68.061 253.553,68.07 L247.811,68.07 C247.46,68.07 247.014,68.114 246.454,68.176 C245.814,68.246 245.158,68.386 244.501,68.596 C244.187,68.692 243.889,68.814 243.608,68.955 L242.812,69.349 Z M250.918,56.909 C249.247,56.909 247.916,57.092 246.988,57.443 C245.823,57.872 245.21,58.309 244.904,58.607 C244.501,58.983 244.265,59.35 244.143,59.745 C243.994,60.279 243.915,60.769 243.915,61.198 L243.915,67.633 L244.169,67.545 C244.896,67.317 245.622,67.16 246.331,67.081 C246.935,67.011 247.408,66.968 247.811,66.968 L253.553,66.968 C254.63,66.959 255.436,66.626 256.224,65.847 C256.994,65.059 257.335,64.227 257.344,63.072 L257.344,61.391 C257.344,60.944 257.283,60.428 257.143,59.867 C257.046,59.456 256.801,59.01 256.425,58.563 C256.066,58.142 255.444,57.74 254.639,57.425 C254.043,57.189 252.914,56.909 250.918,56.909 L250.918,56.909 Z" id="Fill-93"></path>
            <path d="M127.849,24.917 L127.849,23.806 C127.849,23.211 127.744,22.554 127.551,21.845 C127.35,21.144 126.93,20.488 126.291,19.884 C125.651,19.28 124.758,18.764 123.621,18.326 C122.482,17.888 120.933,17.669 118.989,17.669 C117.177,17.669 115.715,17.888 114.612,18.326 C113.5,18.764 112.651,19.315 112.047,19.989 C111.443,20.654 111.058,21.346 110.883,22.046 C110.717,22.756 110.638,23.412 110.638,24.016 L110.638,70.922 C110.638,71.526 110.717,72.183 110.883,72.883 C111.058,73.592 111.443,74.258 112.047,74.896 C112.651,75.535 113.5,76.069 114.612,76.507 C115.715,76.945 117.177,77.164 118.989,77.164 C120.933,77.164 122.482,76.945 123.621,76.507 C124.758,76.069 125.651,75.553 126.291,74.949 C126.93,74.345 127.35,73.688 127.551,72.988 C127.744,72.279 127.849,71.657 127.849,71.123 L127.849,70.011 L136.402,70.011 L136.402,72.532 C136.402,73.338 136.271,74.415 135.999,75.754 C135.736,77.094 135.027,78.441 133.889,79.781 C132.743,81.121 131.035,82.276 128.759,83.248 C126.475,84.228 123.314,84.71 119.296,84.71 C115.269,84.71 112.108,84.228 109.833,83.248 C107.547,82.276 105.823,81.121 104.65,79.781 C103.468,78.441 102.75,77.076 102.479,75.702 C102.216,74.327 102.076,73.267 102.076,72.532 L102.076,22.3 C102.076,21.564 102.216,20.505 102.479,19.131 C102.75,17.756 103.468,16.4 104.65,15.052 C105.823,13.712 107.547,12.557 109.833,11.576 C112.108,10.604 115.269,10.123 119.296,10.123 C123.314,10.123 126.475,10.604 128.759,11.576 C131.035,12.557 132.743,13.712 133.889,15.052 C135.027,16.4 135.736,17.756 135.999,19.131 C136.271,20.505 136.402,21.564 136.402,22.3 L136.402,24.917 L127.849,24.917" id="Fill-94"></path>
            <path d="M177.678,84.007 L169.125,84.007 L169.125,50.286 C168.984,50.355 168.267,50.619 166.954,51.091 C165.649,51.563 164.222,52.062 162.682,52.597 L156.641,54.61 C155.835,54.812 155.065,55.153 154.321,55.617 C153.717,56.02 153.166,56.545 152.658,57.184 C152.159,57.815 151.905,58.638 151.905,59.644 L151.905,84.007 L143.448,84.007 L143.448,22.403 C143.448,21.659 143.588,20.609 143.851,19.225 C144.122,17.86 144.822,16.494 145.969,15.154 C147.107,13.815 148.823,12.651 151.1,11.679 C153.384,10.707 156.536,10.217 160.563,10.217 C164.59,10.217 167.742,10.707 170.026,11.679 C172.312,12.651 174.018,13.815 175.156,15.154 C176.303,16.494 177.003,17.86 177.275,19.225 C177.546,20.609 177.678,21.659 177.678,22.403 L177.678,84.007 Z M154.925,46.714 C156.334,46.206 157.761,45.707 159.206,45.199 C160.65,44.7 161.955,44.245 163.128,43.843 C164.301,43.44 164.958,43.204 165.098,43.134 C166.84,42.538 167.943,41.698 168.416,40.621 C168.888,39.544 169.125,38.573 169.125,37.706 L169.125,23.909 C169.125,23.305 169.02,22.657 168.818,21.948 C168.617,21.239 168.197,20.591 167.558,19.987 C166.918,19.383 166.034,18.866 164.896,18.42 C163.75,17.991 162.208,17.772 160.265,17.772 C158.453,17.772 156.991,17.991 155.888,18.42 C154.776,18.866 153.918,19.417 153.314,20.083 C152.71,20.757 152.325,21.449 152.159,22.149 C151.992,22.85 151.905,23.506 151.905,24.11 L151.905,47.765 C152.509,47.563 153.516,47.213 154.925,46.714 L154.925,46.714 Z" id="Fill-95"></path>
            <path d="M226.831,77.564 L226.831,84.709 L208.412,84.709 C206.459,84.709 204.788,84.358 203.378,83.658 C201.968,82.949 200.795,82.048 199.85,80.935 C198.913,79.833 198.204,78.606 197.74,77.259 C197.268,75.919 197.031,74.615 197.031,73.337 L197.031,11.732 L205.488,11.732 L205.488,71.725 C205.488,73.337 206.013,74.711 207.055,75.85 C208.088,76.996 209.479,77.564 211.23,77.564 L226.831,77.564" id="Fill-96"></path>
            <path d="M8.825,15.716 C9.104,14.789 8.886,14.123 8.947,13.309 C9.131,11.129 10.602,9.204 10.602,7.593 C10.602,6.788 10.12,6.358 10.094,5.693 C12.309,6.27 13.263,8.109 14.024,10.132 C13.718,6.577 14.305,3.548 15.53,1.044 L11.074,1.044 C6.33,1.044 2.276,4.064 0.701,8.302 C1.926,8.52 3.082,9.072 4.001,9.623 C6.294,10.989 7.888,13.029 8.825,15.716 M79.165,1.044 L31.008,1.044 C33.328,3.425 35.35,6.314 35.849,10.517 C36.462,10.228 36.794,9.387 37.364,8.862 C38.896,7.47 41.216,6.647 44.096,6.577 C44.647,11.182 48.569,13.869 48.911,18.886 C49.182,22.86 47.072,25.381 44.98,27.641 C47.632,26.537 51.047,26.502 53.734,27.771 C55.012,28.367 56.299,29.277 56.781,30.301 C52.316,31.185 50.802,35.371 48.026,38.294 C45.96,40.474 42.967,42.453 38.633,42.225 C36.462,42.12 33.984,41.367 31.787,40.964 C28.277,40.317 25.125,39.756 20.879,39.949 C18.419,40.054 16.169,40.535 13.902,40.964 C11.731,41.367 9.481,42.111 7.179,42.225 C4.307,42.374 1.9,41.525 0,40.273 L0,80.113 C0,86.285 4.964,91.284 11.074,91.284 L17.272,91.284 C15.959,81.733 14.664,72.156 13.263,62.526 C12.948,60.347 12.816,57.869 12.248,56.057 C11.512,53.719 9.813,52.021 8.448,50.349 C7.03,48.624 5.498,47.127 4.255,45.149 C7.748,45.525 10.768,44.326 13.902,43.748 C19.137,42.794 25.169,42.663 30.771,43.626 C34.3,44.229 37.329,45.412 41.303,45.149 C41.128,46.094 40.121,46.97 39.394,47.81 C38.659,48.659 37.941,49.482 37.241,50.349 C35.884,52.021 34.151,53.702 33.433,55.934 C32.908,57.571 32.724,60.355 32.417,62.526 C31.087,72.008 29.844,81.619 28.496,91.284 L79.165,91.284 C85.285,91.284 90.249,86.285 90.249,80.113 L90.249,12.215 C90.249,6.043 85.285,1.044 79.165,1.044 M61.981,58.719 C62.042,57.606 62.48,56.459 64.52,56.31 C65.947,56.205 67.348,57.142 67.313,58.972 C67.242,62.509 61.814,62.211 61.981,58.719 M44.989,56.442 C46.696,55.969 48.464,56.897 48.534,58.719 C48.657,61.475 44.315,62.745 43.334,59.865 C42.835,58.393 43.649,56.801 44.989,56.442 M72.136,84.343 C72.32,85.077 72.871,86.101 72.136,86.627 C71.156,86.724 71.015,85.629 70.735,85.112 C69.685,83.16 67.741,81.173 64.651,81.173 C61.919,81.173 59.923,82.696 58.812,84.474 C58.356,85.2 58.356,86.618 57.035,86.627 C56.457,85.183 57.525,83.352 57.796,81.934 C57.438,81.619 56.413,81.97 56.019,81.681 C57.315,78.258 59.862,74.975 60.843,71.149 C61.053,70.335 61,69.188 60.72,68.111 C59.828,69.284 59.451,70.615 58.435,72.042 C57.805,72.927 56.317,75.08 55.267,75.089 C54.128,75.089 52.745,72.944 52.088,72.042 C51.09,70.659 50.451,69.582 49.935,68.111 C48.832,69.529 49.742,71.929 50.312,73.941 C51.327,77.478 52.631,80.936 53.489,84.596 C53.621,85.174 53.979,86.137 53.358,86.627 C52.15,86.749 52.185,85.269 51.966,84.596 C51.222,82.355 50.136,79.457 48.534,78.004 C47.589,77.138 45.943,76.516 44.35,77.242 C42.056,78.293 40.831,81.479 39.911,84.22 C39.648,85.008 39.465,86.828 38.519,86.627 C37.373,86.399 38.642,83.336 38.773,82.827 C39.57,79.737 40.331,77.907 41.181,75.089 C41.724,73.267 42.458,71.473 42.196,69.25 C41.934,67.009 40.515,65.494 39.657,63.796 C38.747,62.001 37.828,60.32 38.012,57.711 C38.3,57.878 38.484,57.379 38.519,57.711 L38.773,57.711 C39.561,60.451 40.716,63.34 43.465,64.304 C45.566,65.039 47.895,64.295 49.935,65.318 C53.095,66.912 52.43,71.534 55.267,73.819 C57.98,71.797 57.35,66.965 60.335,65.318 C61.876,64.461 63.67,64.767 65.413,64.558 C68.389,64.198 70.018,62.132 70.989,59.733 C71.269,59.059 71.331,57.895 72.258,57.58 C73.046,58.552 72.39,59.892 72.136,60.749 C71.838,61.756 71.462,62.745 70.989,63.664 C69.877,65.836 67.995,67.56 68.328,70.642 C68.529,72.541 69.816,74.756 70.613,76.357 C71.514,78.179 72.547,79.764 73.274,81.681 C72.766,81.803 72.162,81.839 71.497,81.812 C71.69,82.573 71.909,83.449 72.136,84.343" id="Fill-97"></path>
            <path d="M237.826,130.287 C239.208,130.287 240.215,130.558 240.863,131.1 C241.502,131.643 241.826,132.318 241.826,133.141 L241.826,140.109 C241.826,140.39 241.773,140.704 241.677,141.037 C241.572,141.379 241.371,141.684 241.073,141.966 C240.775,142.254 240.364,142.49 239.848,142.675 C239.331,142.867 238.657,142.954 237.826,142.954 C236.994,142.954 236.319,142.867 235.803,142.675 C235.278,142.49 234.875,142.254 234.578,141.966 C234.28,141.684 234.079,141.379 233.974,141.037 C233.868,140.704 233.825,140.39 233.825,140.109 L233.825,139.006 C233.825,138.402 233.974,137.859 234.28,137.378 C234.586,136.888 235.024,136.546 235.584,136.336 C235.873,136.249 236.188,136.135 236.556,136.013 C236.915,135.89 237.265,135.758 237.598,135.644 C237.939,135.531 238.237,135.426 238.482,135.329 C238.736,135.232 238.894,135.181 238.955,135.163 C239.016,135.137 239.104,135.093 239.2,135.032 C239.305,134.979 239.401,134.9 239.498,134.787 C239.594,134.673 239.673,134.551 239.743,134.41 C239.813,134.269 239.848,134.103 239.848,133.911 L239.848,133.465 C239.848,133.308 239.821,133.149 239.76,132.983 C239.69,132.816 239.585,132.668 239.427,132.528 C239.27,132.388 239.06,132.274 238.806,132.186 C238.543,132.099 238.219,132.056 237.826,132.056 C237.038,132.056 236.512,132.213 236.232,132.537 C235.961,132.86 235.821,133.246 235.821,133.701 L233.825,133.701 L233.825,133.141 C233.825,132.747 233.895,132.379 234.043,132.029 C234.192,131.687 234.429,131.381 234.761,131.127 C235.094,130.865 235.505,130.663 236.013,130.515 C236.512,130.365 237.116,130.287 237.826,130.287 M239.848,136.528 C239.821,136.686 239.743,136.8 239.611,136.879 C239.489,136.958 239.375,137.019 239.261,137.045 C239.025,137.124 238.771,137.221 238.5,137.316 C238.219,137.422 237.965,137.509 237.729,137.588 C237.449,137.684 237.178,137.78 236.933,137.868 C236.74,137.946 236.556,138.06 236.39,138.201 C236.25,138.323 236.118,138.489 236.004,138.683 C235.882,138.884 235.821,139.129 235.821,139.426 C235.821,140.022 235.961,140.468 236.25,140.757 C236.53,141.046 237.055,141.195 237.826,141.195 C238.613,141.195 239.147,141.037 239.427,140.731 C239.708,140.425 239.848,139.986 239.848,139.426 L239.848,136.528" id="Fill-98"></path>
            <path d="M249.729,132.536 C249.458,132.212 248.923,132.055 248.136,132.055 C247.75,132.055 247.417,132.099 247.164,132.186 C246.901,132.273 246.691,132.379 246.533,132.527 C246.385,132.668 246.271,132.816 246.209,132.982 C246.148,133.149 246.113,133.307 246.113,133.464 L246.113,133.911 C246.113,134.103 246.148,134.269 246.218,134.41 C246.289,134.55 246.376,134.672 246.472,134.786 C246.56,134.9 246.665,134.979 246.761,135.031 C246.866,135.084 246.945,135.137 247.006,135.163 C247.076,135.18 247.234,135.232 247.479,135.329 C247.733,135.417 248.022,135.521 248.363,135.644 C248.705,135.758 249.055,135.881 249.414,136.012 C249.772,136.134 250.097,136.248 250.376,136.336 C250.946,136.546 251.383,136.887 251.681,137.378 C251.987,137.859 252.145,138.402 252.145,138.997 L252.145,140.109 C252.145,140.389 252.092,140.704 251.987,141.037 C251.891,141.378 251.69,141.684 251.392,141.965 C251.094,142.254 250.683,142.49 250.167,142.674 C249.65,142.867 248.976,142.954 248.136,142.954 C247.313,142.954 246.63,142.867 246.113,142.674 C245.597,142.49 245.185,142.254 244.888,141.965 C244.59,141.684 244.389,141.378 244.292,141.037 C244.187,140.704 244.135,140.389 244.135,140.109 L244.135,139.426 L246.113,139.426 C246.113,139.986 246.253,140.424 246.533,140.73 C246.822,141.037 247.356,141.194 248.136,141.194 C248.906,141.194 249.44,141.046 249.72,140.757 C250,140.468 250.14,140.021 250.14,139.426 C250.14,139.129 250.088,138.884 249.974,138.682 C249.869,138.489 249.746,138.323 249.598,138.2 C249.431,138.06 249.238,137.946 249.037,137.867 C248.564,137.701 248.127,137.544 247.715,137.395 C247.356,137.272 247.006,137.15 246.665,137.036 C246.332,136.913 246.087,136.835 245.929,136.791 C245.771,136.721 245.588,136.634 245.387,136.502 C245.176,136.38 244.984,136.213 244.791,136.012 C244.607,135.802 244.45,135.557 244.328,135.267 C244.196,134.979 244.135,134.646 244.135,134.269 L244.135,133.141 C244.135,132.317 244.458,131.643 245.106,131.1 C245.746,130.558 246.761,130.287 248.136,130.287 C248.845,130.287 249.449,130.365 249.956,130.515 C250.456,130.663 250.867,130.864 251.2,131.127 C251.532,131.381 251.769,131.687 251.917,132.028 C252.066,132.379 252.145,132.747 252.145,133.141 L252.145,133.701 L250.14,133.701 C250.14,133.246 250.009,132.86 249.729,132.536" id="Fill-99"></path>
            <path d="M262.459,139.544 L262.459,140.104 C262.459,140.499 262.381,140.866 262.232,141.217 C262.083,141.559 261.847,141.864 261.514,142.118 C261.19,142.381 260.77,142.582 260.271,142.731 C259.763,142.88 259.159,142.959 258.458,142.959 C257.075,142.959 256.069,142.687 255.43,142.144 C254.791,141.601 254.466,140.936 254.449,140.131 L254.449,125.695 L256.454,125.695 L256.454,129.136 C256.454,129.319 256.489,129.485 256.55,129.626 C256.611,129.767 256.69,129.897 256.787,130.002 C256.874,130.116 256.979,130.194 257.075,130.256 C257.18,130.309 257.259,130.352 257.321,130.379 C257.391,130.396 257.548,130.449 257.793,130.545 C258.047,130.642 258.336,130.747 258.678,130.86 C259.019,130.982 259.369,131.105 259.728,131.228 C260.087,131.359 260.411,131.464 260.691,131.56 C261.26,131.762 261.698,132.112 261.996,132.594 C262.311,133.084 262.459,133.627 262.459,134.222 L262.459,139.544 Z M260.481,134.782 L260.455,134.782 L260.455,134.642 C260.455,134.345 260.402,134.1 260.288,133.906 C260.183,133.705 260.061,133.548 259.92,133.417 C259.745,133.276 259.553,133.172 259.352,133.093 C259.098,132.996 258.835,132.9 258.546,132.804 C258.31,132.725 258.064,132.638 257.793,132.541 C257.531,132.436 257.268,132.349 257.014,132.269 C256.909,132.234 256.795,132.183 256.673,132.103 C256.559,132.024 256.489,131.893 256.454,131.727 L256.454,139.781 L256.454,139.755 C256.454,139.912 256.489,140.079 256.55,140.254 C256.611,140.42 256.716,140.578 256.865,140.718 C257.014,140.866 257.215,140.972 257.478,141.059 C257.741,141.146 258.064,141.19 258.458,141.19 C259.211,141.19 259.728,141.041 260.025,140.735 C260.314,140.429 260.463,140.07 260.481,139.658 L260.481,134.782 L260.481,134.782 Z" id="Fill-100"></path>
            <polygon id="Fill-101" points="265.376 142.766 267.363 142.766 267.363 125.694 265.376 125.694"></polygon>
        </g>
    </g>
</svg>
