<?xml version="1.0" encoding="UTF-8" standalone="no"?>
<svg width="166px" height="152px" viewBox="0 0 166 152" version="1.1" xmlns="http://www.w3.org/2000/svg" xmlns:xlink="http://www.w3.org/1999/xlink">
    <title>cpcr</title>
    <defs></defs>
    <g id="Page-1" stroke="none" stroke-width="1" fill="none" fill-rule="evenodd">
        <g id="cpcr" fill="#FFFFFF">
            <path d="M89.06,1.548 C92.35,6.651 91.11,16.296 91.64,24.162 C89.49,26.109 85.55,26.256 81.3,26.099 C80,18.509 74.32,-3.977 89.06,1.548" id="Fill-182"></path>
            <path d="M78.72,26.746 C75.57,27.474 73.05,28.831 71.61,31.269 C71.95,33.078 72.56,34.631 72.91,36.441 C69.96,36.588 68.39,35.349 66.44,34.504 C65.98,25.183 64.03,14.201 65.8,4.782 C78.77,-4.323 78.16,15.637 78.72,26.746" id="Fill-183"></path>
            <path d="M102.63,2.84 C104.4,8.012 105.42,17.205 103.91,23.517 C101.91,24.549 96.23,24.549 94.23,23.517 C93.77,17.451 91.9,8.347 94.23,3.489 C96.7,2.938 99.41,2.644 102.63,2.84" id="Fill-184"></path>
            <path d="M62.56,8.009 C63.18,15.265 66.04,28.745 61.92,34.506 C56.69,36.03 53.64,26.572 52.87,19.641 C51.88,10.575 54.7,2.611 62.56,8.009" id="Fill-185"></path>
            <path d="M50.93,10.593 C52.42,20.101 51.66,31.831 58.69,35.793 C60.71,35.665 63.43,36.226 64.5,35.144 C68.49,38.045 75.52,37.917 78.72,41.614 C84.19,41.495 90.55,38.782 92.29,43.551 C94.91,34.722 83.95,41.063 78.72,39.667 C74.67,38.595 73.89,36.177 73.55,31.27 C80.36,25.951 94.66,27.406 105.86,26.099 C110.13,29.048 108.03,35.4 107.79,40.316 C107.66,43.069 108.38,46.343 107.79,48.712 C106.08,55.604 95.92,59.685 94.22,64.867 C94.46,78.67 94.06,91.846 93.57,104.932 L67.74,104.932 C67.29,89.644 67.39,73.824 65.15,60.344 C60.15,56.736 56.29,51.977 52.22,47.424 C51.48,35.233 48.51,22.146 50.93,10.593" id="Fill-186"></path>
            <path d="M63.21,104.932 C43.81,104.519 22.73,105.778 4.41,104.283 C4.22,92.868 4.03,75.917 5.05,63.578 C5.02,62.477 5.54,61.907 6.35,61.642 L29.61,61.642 C37.48,61.642 46.5,60.796 52.23,62.29 C57.43,63.638 59.77,68.475 63.21,70.687 C64.45,82.23 63.21,92.956 63.21,104.932 M19.92,99.121 C28.55,101.766 32.92,96.742 37.36,93.3 C36.51,91.354 35.75,89.309 33.49,88.778 C31.15,90.095 29.47,92.081 26.38,92.652 C19.62,90.754 20.86,77.294 27.03,75.858 C27.41,78.268 30,78.484 30.25,81.02 C40.36,79.28 32.51,73.322 29.61,70.038 C12.58,67.157 13.4,91.452 19.92,99.121 M53.52,77.146 C52.85,73.174 46.6,70.117 40.6,70.687 C39.72,78.798 41.36,89.633 41.25,99.121 L47.06,99.121 L47.06,86.841 C49.73,82.859 54.43,82.524 53.52,77.146" id="Fill-187"></path>
            <path d="M157.55,62.286 C158.12,75.519 159.32,91.507 158.2,104.288 C154.99,106.638 151.15,105.065 147.21,104.928 C131.69,104.396 112.93,105.33 96.81,104.928 C95.69,94.633 96.32,82.589 96.17,71.332 C99.05,67.546 103.53,65.344 107.15,62.286 C123.58,62.334 141.53,60.497 157.55,62.286 M103.28,77.152 C102.35,80.072 102.08,86.866 102.63,90.071 C103.19,93.424 106.45,96.629 107.8,99.117 C109.82,98.025 112.63,100.355 115.55,99.766 C117.31,99.402 125.24,92.579 125.24,92.008 C125.23,90.534 121.71,89.776 122,88.134 C118.01,88.655 117.45,92.628 112.32,92.008 C107.11,88.625 108.39,76.651 114.26,75.205 C115.55,77.142 116.69,79.246 118.78,80.377 C120.08,79.305 121.17,78.037 123.3,77.791 C120.68,66.749 106.66,66.346 103.28,77.152 M127.83,70.043 C128.6,79.384 128.72,89.393 129.11,99.117 L135.58,99.117 L135.58,85.548 C141.19,88.989 142.73,99.933 152.38,97.18 C148,89.982 138.92,86.394 142.68,74.566 C138.38,72.294 134.24,68.284 127.83,70.043" id="Fill-188"></path>
            <path d="M46.41,77.146 C47.9,77.323 47.89,78.877 47.06,79.732 C46.18,79.536 46.52,78.11 46.41,77.146" id="Fill-189"></path>
            <path d="M134.29,77.793 C134.39,76.191 136.48,77.606 136.87,77.793 C136.65,78.64 135.73,78.806 135.58,79.73 C134.65,79.583 135.36,77.804 134.29,77.793" id="Fill-190"></path>
            <path d="M7.64,121.731 C6.14,123.295 5.91,120.719 4.41,120.443 C1.43,120.994 2.14,126.794 4.41,127.541 C6.09,127.286 6.36,125.615 8.29,125.605 C9.55,128.486 6.29,130.403 2.47,130.127 C0.29,128.447 0.39,124.464 0.53,120.443 C2.06,116.687 9.21,117.897 7.64,121.731" id="Fill-191"></path>
            <path d="M16.69,118.501 C16.83,121.018 12.7,119.249 12.16,121.087 C11.52,123.241 13.06,123.201 14.75,123.024 C15.33,125.109 12.64,123.929 12.16,124.961 C11.9,126.514 13.34,126.367 12.81,128.196 C14.52,128.953 16.62,126.957 16.69,128.196 C17.46,131.775 12.38,129.494 10.23,130.133 C10.24,126.652 8.46,121.579 10.23,118.501 C11.2,117.715 15.79,117.233 16.69,118.501" id="Fill-192"></path>
            <path d="M25.73,125.609 C24.88,124.282 24.5,119.12 25.73,117.852 C28.28,119.828 27.39,125.235 27.67,129.483 C23.66,129.837 23.53,126.307 21.86,124.321 C19.98,124.803 22.44,129.64 20.56,130.132 C16.45,129.719 19.63,122.03 18.63,118.5 C23.09,118.786 22.53,124.076 25.73,125.609" id="Fill-193"></path>
            <path d="M37.36,117.855 C38.46,121.11 35.32,120.117 34.13,121.091 C34.49,122.929 36.18,129.448 33.49,130.136 C30.7,129.694 32.89,124.267 32.19,121.73 C32.31,119.901 27.96,122.517 28.97,119.792 C29.69,117.079 35.35,119.291 37.36,117.855" id="Fill-194"></path>
            <path d="M56.1,118.501 C56.25,121.018 52.11,119.249 51.58,121.087 C50.93,123.241 52.47,123.201 54.17,123.024 C54.75,125.109 52.05,123.929 51.58,124.961 C51.31,126.514 52.76,126.367 52.23,128.196 C53.94,128.953 56.03,126.957 56.1,128.196 C56.88,131.775 51.8,129.494 49.64,130.133 C49.65,126.652 47.87,121.579 49.64,118.501 C50.62,117.715 55.21,117.233 56.1,118.501" id="Fill-195"></path>
            <path d="M76.78,130.132 C71.47,130.093 72.18,120.379 74.84,117.852 C80.44,117.773 80.6,128.097 76.78,130.132 M76.78,126.897 C77.76,124.842 77.01,124.056 76.78,121.736 C73.77,121.155 74.33,127.291 76.78,126.897" id="Fill-196"></path>
            <path d="M80.66,117.855 C83.97,118.2 81.95,123.883 83.24,126.252 C83.74,127.904 87.4,126.4 87.12,128.838 C87.27,131.326 81.57,130.077 80.66,129.487 L80.66,117.855" id="Fill-197"></path>
            <path d="M95.52,117.854 C93.12,120.952 90.47,124.639 92.28,130.135 L89.71,130.135 C90.92,123.744 87.14,122.348 85.82,118.503 C88.57,118.13 88.82,120.244 89.71,121.728 C92.1,120.903 92.11,117.667 95.52,117.854" id="Fill-198"></path>
            <path d="M103.92,117.855 C104.08,119.586 106.64,120.313 105.21,121.73 C103.15,122.29 103.21,120.717 101.98,120.441 C97.21,123.195 102.11,130.51 105.85,125.613 C107.33,128.297 103.22,130.244 101.98,130.136 C96.62,129.664 95.02,116.244 103.92,117.855" id="Fill-199"></path>
            <path d="M107.15,117.855 C110.78,118.534 108.5,125.132 111.02,126.901 C114.07,126.291 112.65,121.199 112.96,117.855 C115.66,119.931 115.62,128.169 112.96,130.136 C106.67,130.401 108.01,123.017 107.15,117.855" id="Fill-200"></path>
            <path d="M116.19,117.855 L118.13,117.855 C119.07,119.94 118.74,123.273 118.78,126.252 C119.44,127.747 123.11,126.233 122.65,128.838 C122.27,131.995 118.89,128.789 116.84,129.487 C115.67,126.557 116.38,121.759 116.19,117.855" id="Fill-201"></path>
            <path d="M130.41,119.147 C131.03,121.487 127.62,119.806 127.17,121.084 C126.34,124.122 129.85,128.822 126.54,130.129 C123.74,129.687 125.94,124.27 125.24,121.733 C125.36,119.894 121.01,122.51 122.01,119.796 C123.03,117.908 129.37,117.004 130.41,119.147" id="Fill-202"></path>
            <path d="M156.9,118.501 C156.85,120.606 153.97,119.878 152.38,120.438 C151.26,123.722 155.18,121.943 154.96,124.312 C152.8,123.663 152.84,125.217 153.03,126.898 C153.51,129.995 157.2,125.875 157.55,128.835 C157.47,131.558 152.59,129.484 150.44,130.133 C151.37,125.748 148.68,121.579 150.44,118.501 C151.42,117.715 156.01,117.233 156.9,118.501" id="Fill-203"></path>
            <path d="M158.19,117.855 C159.35,117.777 159.56,118.642 160.78,118.505 L160.78,126.252 C161.31,128.091 165.45,126.321 165.3,128.838 C165.39,131.513 160.81,129.517 158.84,130.136 C158.64,126.036 159.38,120.973 158.19,117.855" id="Fill-204"></path>
            <path d="M131.06,118.501 L132.99,118.501 C133.38,121.569 133.15,125.237 134.93,126.898 C138.13,126.642 136.44,121.519 136.87,118.501 C140.01,119.651 139.46,128.874 136.87,130.133 C130.1,131.086 132.38,122.995 131.06,118.501" id="Fill-205"></path>
            <path d="M52.87,135.3 C51.93,136.726 51.16,138.329 48.35,137.886 C48.85,136.018 49.94,134.741 52.87,135.3" id="Fill-206"></path>
            <path d="M53.52,139.824 C54.04,142.282 50.46,140.65 49,141.112 C48.49,143.344 49.36,144.199 51.58,143.698 C52.26,146.107 49.4,144.966 49,146.284 C47.81,150.059 52.49,147.955 53.52,149.518 C53.61,152.193 49.02,150.187 47.06,150.807 C45.89,147.877 46.6,143.079 46.41,139.175 C49.24,140.346 52.88,136.688 53.52,139.824" id="Fill-207"></path>
            <path d="M100.04,146.286 C99.19,144.959 98.81,139.797 100.04,138.529 C102.75,140.357 101.7,145.913 101.98,150.16 C97.97,150.514 97.84,146.984 96.17,144.998 C94.29,145.48 96.75,150.317 94.87,150.809 C90.99,150.17 93.78,142.854 92.93,139.178 C97.23,139.62 96.95,144.634 100.04,146.286" id="Fill-208"></path>
            <path d="M111.03,142.409 C108.2,143.431 106.96,139.45 105.21,143.697 C104.78,146.066 106.61,146.175 106.5,148.219 C109.07,148.642 109.1,146.518 111.67,146.932 C111.58,150.284 108.8,150.963 105.21,150.805 C98.91,145.85 107.78,132.194 111.03,142.409" id="Fill-209"></path>
            <path d="M119.43,139.824 C119.95,142.282 116.37,140.65 114.9,141.112 C113.74,144.219 116.69,143.197 117.49,144.347 C117.69,146.491 114.31,145.045 115.55,148.221 C115.64,150.079 119.99,147.67 120.07,149.518 C120,152.242 115.11,150.158 112.97,150.807 C113.39,146.294 112.39,143.207 112.32,139.175 C115.03,140.227 118.68,136.57 119.43,139.824" id="Fill-210"></path>
            <path d="M62.56,141.116 C61.8,143.378 60.35,142.925 58.69,141.765 C58.08,142.237 57.71,142.935 57.39,143.702 C58.92,144.98 60.75,145.944 62.56,146.927 C62.31,150.122 57.31,153.593 55.46,149.513 C55.95,147.212 58.65,150.27 59.33,147.576 C58.29,146.258 56.22,145.954 54.81,144.99 C54.35,139.376 59.18,137.862 62.56,141.116" id="Fill-211"></path>
            <path d="M63.86,139.178 L65.79,139.178 C65.37,142.846 66.65,148.214 65.14,150.81 C62.26,149.384 64.62,142.718 63.86,139.178" id="Fill-212"></path>
            <path d="M74.19,142.409 C72.57,144.532 70.63,139.754 69.67,143.058 C70.22,145.083 72.16,145.732 74.19,146.283 C74.51,150.304 70.52,152.998 67.74,150.166 C67.58,146.735 70.13,150.019 71.61,148.219 C70.93,146.322 68.69,145.978 67.09,144.995 C65.87,139.263 73.17,137.09 74.19,142.409" id="Fill-213"></path>
            <path d="M75.49,139.178 C77.88,139.592 81.93,138.343 83.25,139.828 C83.89,141.981 82.34,141.941 80.66,141.764 C80.24,144.793 81.5,149.502 80.01,151.459 C77.29,150.525 78.32,145.825 78.07,142.413 C77.92,140.742 76.96,143.298 75.49,142.413 L75.49,139.178" id="Fill-214"></path>
            <path d="M91,151.454 C88.54,151.976 90.17,148.397 89.71,146.932 C84.71,145.939 88.13,149.793 86.47,151.454 C84.04,151.71 83.5,144.975 83.89,143.059 C84.35,140.728 86.32,140.325 86.47,139.175 C92.75,138.083 92.24,147.178 91,151.454 M86.47,144.346 C87.35,144.553 87.7,145.27 89.06,144.995 C89.19,143.147 89.14,141.465 87.12,141.761 C87.26,142.979 86.39,143.186 86.47,144.346" id="Fill-215"></path>
            <path d="M128.47,142.409 C126.85,144.532 124.91,139.754 123.95,143.058 C124.5,145.083 126.44,145.732 128.47,146.283 C128.79,150.304 124.79,152.998 122.01,150.166 C122.13,147.354 123.13,148.986 125.24,148.869 C125.76,145.771 122.75,146.184 121.36,144.995 C119.95,139.066 127.53,137.168 128.47,142.409" id="Fill-216"></path>
            <path d="M71.61,121.731 C71.71,123.55 69.78,123.353 69.02,124.317 C68.63,125.861 69.84,129.007 68.38,129.488 C65.61,127.945 67.88,121.367 66.44,118.496 C69.09,117.808 71.38,118.437 71.61,121.731" id="Fill-217"></path>
            <path d="M38.66,118.501 C41.61,117.921 42.31,119.573 44.47,119.789 C42.25,125.03 48.13,126.633 47.7,129.484 C43.97,129.346 44.2,125.226 41.24,124.312 C40.62,126.495 43.22,128.727 41.24,130.133 C36.86,129.779 40.92,120.979 38.66,118.501" id="Fill-218"></path>
            <path d="M140.1,118.501 C143.05,117.921 143.76,119.573 145.91,119.789 C144.29,124.578 147.38,126.416 149.8,128.835 C146.06,131.264 145.39,125.079 142.69,124.312 C142.29,126.072 143.5,129.445 142.04,130.133 C139.34,128.304 140.38,122.748 140.1,118.501" id="Fill-219"></path>
            <path d="M37.36,139.178 C39.65,139.267 40.25,141.027 42.54,141.115 C40.48,146.327 44.85,146.887 45.76,150.81 C41.72,150.977 42.22,146.592 39.3,145.638 C38.9,147.398 40.13,150.77 38.65,151.459 C35.04,150.839 36.86,141.813 37.36,139.178" id="Fill-220"></path>
        </g>
    </g>
</svg>
