<?xml version="1.0" encoding="UTF-8" standalone="no"?>
<svg width="128px" height="157px" viewBox="0 0 128 157" version="1.1" xmlns="http://www.w3.org/2000/svg" xmlns:xlink="http://www.w3.org/1999/xlink">
    <title>lehangar</title>
    <defs></defs>
    <g id="Page-1" stroke="none" stroke-width="1" fill="none" fill-rule="evenodd">
        <g id="lehangar" fill="#FFFFFF">
            <path d="M52.491,0.11 L75.316,0.11 L75.316,27.716 C96.27,32.079 124.96,33.26 127.876,54.791 C116.363,56.021 102.577,54.976 90.18,55.322 C90.445,58.954 94.173,63.718 95.491,68.064 C75.493,69.302 53.198,68.241 32.317,68.595 C33.892,63.975 36.117,60.006 38.158,55.852 C26.653,54.615 12.85,55.675 0.461,55.322 C-0.471,48.782 3.539,43.777 7.363,40.989 C18.169,33.131 36.624,30.456 52.491,27.716 L52.491,0.11" id="Fill-131"></path>
            <path d="M20.637,77.087 C21.866,76.919 22.678,77.176 23.288,77.618 C23.087,80.551 23.087,80.526 23.288,83.459 C24.051,82.174 27.008,81.193 28.599,82.398 C26.116,83.74 31.105,83.21 30.197,86.11 C28.784,86.11 27.161,86.31 26.478,85.58 C26.389,84.431 28.358,85.339 29.129,85.05 C27.771,83.724 24.244,84.744 23.288,85.58 C23.658,89.661 22.396,92.112 22.758,96.201 L20.106,96.201 C21.055,88.199 19.456,84.607 20.637,77.087" id="Fill-132"></path>
            <path d="M100.8,78.148 C102.423,77.763 102.359,79.064 103.982,78.679 L103.982,84.519 C110.835,77.016 115.31,92.498 109.823,96.201 C107.276,96.274 104.512,96.555 103.982,94.602 C103.419,95.631 102.969,96.78 100.8,96.201 L100.8,78.148" id="Fill-133"></path>
            <path d="M0.464,79.211 L3.116,79.211 C4.562,87.823 3.501,90.651 4.176,96.203 L0.995,96.203 C1.388,89.961 0.151,85.365 0.464,79.211" id="Fill-134"></path>
            <path d="M19.576,89.299 C16.924,89.628 13.566,89.451 8.962,89.829 C8.577,91.452 9.878,91.388 9.493,93.011 C11.453,93.324 15.269,94.352 15.325,91.42 L19.045,91.42 C18.571,96.176 11.573,97.277 7.363,95.14 C9.203,93.999 7.5,94.28 6.303,93.549 C6.463,92.826 7.636,93.107 8.424,93.011 C8.207,91.821 5.612,93.003 5.242,91.95 C5.001,90.472 8.135,92.368 7.894,90.89 C7.412,89.443 6.038,91.829 5.242,90.359 C5.467,89.17 8.063,90.343 8.424,89.299 C7.484,87.556 4.929,90.713 5.242,87.708 L8.424,87.708 C8.521,86.551 6.544,87.467 5.772,87.178 C5.226,85.394 7.419,86.35 8.424,86.109 C8.521,84.96 6.544,85.876 5.772,85.579 C5.853,84.422 7.114,84.446 8.424,84.518 C2.985,80.188 22.13,78.252 19.576,89.299" id="Fill-135"></path>
            <path d="M127.344,89.299 C124.869,89.805 121.246,89.363 116.73,89.829 C115.895,93.669 122.587,94.955 123.094,91.42 L126.813,91.42 C126.444,95.975 120.82,97.004 116.192,95.67 C115.943,94.191 115.935,94.184 114.071,93.549 C114.232,92.826 115.396,93.107 116.192,93.011 C116.289,91.508 112.722,93.653 113.541,91.42 C114.312,91.131 116.281,92.038 116.192,90.89 C115.742,89.339 114.489,91.211 113.541,90.89 C112.722,88.656 116.289,90.809 116.192,89.299 C115.485,87.66 113.838,90.287 113.011,88.768 C113.067,87.411 114.786,87.716 116.192,87.708 C116.281,86.551 114.312,87.467 113.541,87.178 C112.995,85.394 115.188,86.35 116.192,86.109 C116.361,84.703 113.219,86.607 114.071,84.518 L116.192,84.518 C114.393,78.581 130.437,80.084 127.344,89.299" id="Fill-136"></path>
            <path d="M43.466,82.928 L37.095,82.928 C38.461,84.398 43.128,82.559 44.527,83.989 C39.521,84.149 36.766,84.688 32.314,86.11 C31.672,79.859 40.936,80.888 43.466,82.928" id="Fill-137"></path>
            <path d="M85.405,82.928 L79.034,82.928 C80.287,84.149 83.798,83.121 85.935,83.459 C81.838,84.624 78.287,84.647 73.723,86.11 C73.731,80.342 82.464,80.551 85.405,82.928" id="Fill-138"></path>
            <path d="M96.022,84.519 C93.612,83.917 88.735,85.789 88.06,83.459 L94.431,83.459 C94.64,82.182 92.013,83.757 92.84,81.868 C96.103,80.76 95.821,82.278 96.022,84.519" id="Fill-139"></path>
            <path d="M91.775,81.865 C91.703,83.384 89.558,82.838 88.063,82.926 C87.638,80.909 90.57,82.251 91.775,81.865" id="Fill-140"></path>
            <path d="M40.811,85.052 L44.531,85.052 C44.957,87.068 42.016,85.726 40.811,86.112 L40.811,85.052" id="Fill-141"></path>
            <path d="M82.75,85.052 C84.164,85.052 85.778,84.85 86.461,85.582 C86.341,86.353 82.099,86.819 82.75,85.052" id="Fill-142"></path>
            <path d="M92.307,85.051 C92.628,87.147 89.39,85.677 88.056,86.111 C87.735,84.022 90.973,85.484 92.307,85.051" id="Fill-143"></path>
            <path d="M46.12,86.112 L50.37,86.112 C50.378,87.365 49.454,87.679 49.84,89.302 C48.739,88.98 46.353,89.953 46.12,88.764 C45.574,86.98 47.775,87.936 48.771,87.703 C48.868,86.192 45.3,88.346 46.12,86.112" id="Fill-144"></path>
            <path d="M27.009,86.643 L30.19,86.643 C30.696,88.563 28.102,87.383 27.009,87.704 L27.009,86.643" id="Fill-145"></path>
            <path d="M90.712,86.643 C91.677,88.025 90.479,88.242 91.243,89.825 L88.061,89.825 C87.523,88.234 89.242,88.885 90.182,88.765 C90.351,87.358 87.209,89.263 88.061,87.174 C89.338,87.391 89.21,86.201 90.712,86.643" id="Fill-146"></path>
            <path d="M27.009,88.235 L30.19,88.235 C30.696,90.156 28.102,88.975 27.009,89.296 L27.009,88.235" id="Fill-147"></path>
            <path d="M27.009,89.827 L30.19,89.827 C30.696,91.747 28.102,90.566 27.009,90.888 L27.009,89.827" id="Fill-148"></path>
            <path d="M46.12,89.827 L49.84,89.827 C50.266,91.844 47.325,90.503 46.12,90.888 L46.12,89.827" id="Fill-149"></path>
            <path d="M44.528,90.358 C44.407,92.015 41.884,91.259 40.277,91.42 C39.956,89.322 43.194,90.801 44.528,90.358" id="Fill-150"></path>
            <path d="M86.466,90.358 C86.353,92.015 83.822,91.259 82.215,91.42 C81.894,89.322 85.132,90.801 86.466,90.358" id="Fill-151"></path>
            <path d="M88.06,90.358 L91.241,90.358 C91.747,92.279 89.152,91.099 88.06,91.42 L88.06,90.358" id="Fill-152"></path>
            <path d="M27.009,91.422 L30.19,91.422 C30.696,93.342 28.102,92.161 27.009,92.482 L27.009,91.422" id="Fill-153"></path>
            <path d="M46.12,91.422 L49.84,91.422 C49.141,93.559 48.787,92.724 49.84,94.603 L46.12,94.603 C45.268,92.515 48.41,94.419 48.241,93.014 C47.711,91.72 45.895,94.058 46.12,91.422" id="Fill-154"></path>
            <path d="M85.936,91.95 C86.257,94.048 83.02,92.577 81.686,93.011 C81.807,91.364 84.329,92.12 85.936,91.95" id="Fill-155"></path>
            <path d="M91.775,92.482 C91.984,93.809 88.457,94.058 88.063,93.014 C87.622,91.028 91.333,92.033 91.775,92.482" id="Fill-156"></path>
            <path d="M27.009,93.014 L30.19,93.014 C30.696,94.934 28.102,93.753 27.009,94.074 L27.009,93.014" id="Fill-157"></path>
            <path d="M97.084,93.545 C98.812,93.408 99.639,94.18 99.736,95.666 C99.109,96.276 97.864,96.268 96.554,96.196 C96.385,94.967 96.634,94.164 97.084,93.545" id="Fill-158"></path>
            <path d="M88.06,94.076 L91.241,94.076 C91.747,95.997 89.152,94.815 88.06,95.137 L88.06,94.076" id="Fill-159"></path>
            <path d="M27.539,94.604 L30.19,94.604 C30.383,96.421 27.122,96.847 27.539,94.604" id="Fill-160"></path>
            <path d="M46.12,95.137 L49.84,95.137 C50.266,97.154 47.325,95.812 46.12,96.197 L46.12,95.137" id="Fill-161"></path>
            <path d="M40.281,96.199 C40.538,95.469 45.069,94.906 44.531,96.73 C43.101,95.862 41.807,97.453 40.281,96.199" id="Fill-162"></path>
            <path d="M82.219,96.199 C82.476,95.469 87.007,94.906 86.469,96.73 C84.476,96.071 83.721,96.987 82.219,96.199" id="Fill-163"></path>
            <path d="M69.478,156.719 L58.327,156.719 L58.327,129.113 C35.983,126.325 12.587,121.763 0.994,110 L126.28,110 C127.365,112.241 123.999,112.788 122.568,113.72 C109.055,122.485 89.531,127.53 69.478,128.583 L69.478,156.719" id="Fill-164"></path>
            <path d="M60.984,93.545 C61.426,92.043 60.237,92.172 60.454,90.894 L64.166,90.894 C64.367,91.794 63.756,91.891 63.105,91.954 C66.672,95.112 68.151,91.931 70.537,90.894 C68.593,90.389 68.89,87.744 68.946,86.644 C68.207,85.149 66.207,84.933 64.696,85.584 C63.29,86.122 64.664,89.439 62.044,88.765 C61.836,90.043 64.463,88.475 63.635,90.355 L60.454,90.355 C61.137,88.741 59.739,87.648 62.575,87.704 C62.495,87.086 61.611,87.255 60.984,87.175 C60.896,85.495 62.398,85.398 62.044,83.454 C65.323,81.317 68.143,84.233 70.537,82.394 C71.887,86.146 70.521,93.738 71.067,96.727 L68.946,96.727 C68.898,95.28 69.83,95.658 68.946,94.605 C67.419,94.848 67.291,96.486 65.234,96.196 C64.367,95.297 62.253,95.642 62.044,94.076 L65.764,94.076 C65.194,92.87 62.422,93.875 60.984,93.545" id="Fill-165"></path>
            <path d="M56.738,81.334 C54.995,82.129 53.315,82.531 58.859,82.394 C59.984,85.367 57.911,85.31 59.389,87.175 L57.798,87.175 C57.887,87.802 58.771,87.624 59.389,87.705 L59.389,90.894 L56.208,90.894 C56.272,92.067 58.458,91.111 59.389,91.425 C59.55,92.823 58.658,93.16 57.268,93.016 C57.1,94.422 60.241,92.517 59.389,94.606 L56.208,94.606 C56.216,96.189 60.145,93.859 59.389,96.197 L55.147,96.197 C56.144,93.481 55.493,89.11 55.677,85.584 C55.525,84.491 54.255,84.523 53.556,83.985 C51.564,85.006 49.628,86.082 46.117,85.584 C46.719,82.651 48.013,84.748 46.117,82.394 C51.259,83.64 51.395,80.844 56.738,81.334" id="Fill-166"></path>
            <path d="M44.528,87.175 C44.769,88.653 41.635,86.758 41.876,88.235 C41.78,89.746 45.347,87.593 44.528,89.826 C39.795,88.982 34.758,89.392 34.975,93.017 C36.542,94.679 39.498,93.851 41.346,93.546 C41.257,92.92 40.374,93.097 39.747,93.017 C39.868,91.361 42.39,92.116 43.997,91.947 C44.536,93.546 42.816,92.895 41.876,93.017 C41.699,94.422 44.849,92.517 43.997,94.606 C42.422,95.49 39.956,95.057 39.217,94.606 C38.55,94.735 38.687,95.659 39.217,95.667 C26.097,100.664 31.705,81.913 44.528,87.175" id="Fill-167"></path>
            <path d="M86.466,87.175 C84.818,88.476 84.441,87.729 82.215,88.235 C82.617,89.433 85.196,88.444 86.466,88.766 C83.38,90.187 74.495,88.814 77.443,94.076 C80.825,93.554 82.304,94.1 85.936,93.546 C83.107,95.53 80.568,96.334 75.314,96.727 C68.782,90.381 79.235,84.548 86.466,87.175" id="Fill-168"></path>
            <path d="M71.07,97.261 C71.986,103.157 62.771,102.098 60.987,99.382 C61.148,98.667 62.313,98.939 63.108,98.851 C62.948,98.136 61.783,98.418 60.987,98.321 C64.546,98.048 67.278,99.133 71.07,97.261" id="Fill-169"></path>
        </g>
    </g>
</svg>
