<?xml version="1.0" encoding="UTF-8" standalone="no"?>
<svg width="138px" height="173px" viewBox="0 0 138 173" version="1.1" xmlns="http://www.w3.org/2000/svg" xmlns:xlink="http://www.w3.org/1999/xlink">
    <title>liege</title>
    <defs></defs>
    <g id="Page-1" stroke="none" stroke-width="1" fill="none" fill-rule="evenodd">
        <g id="liege" transform="translate(0.000000, -1.000000)" fill="#FFFFFF">
            <path d="M72.413,89.009 C72.413,91.061 74.081,92.719 76.123,92.719 C78.174,92.719 79.832,91.061 79.832,89.009 L79.832,4.684 C79.832,2.633 78.174,0.974 76.123,0.974 C74.081,0.974 72.413,2.633 72.413,4.684 L72.413,89.009" id="Fill-102"></path>
            <path d="M88.031,89.009 C88.031,91.061 89.689,92.719 91.749,92.719 C93.8,92.719 95.459,91.061 95.459,89.009 L95.459,73.78 C95.459,71.728 93.8,70.061 91.749,70.061 C89.689,70.061 88.031,71.728 88.031,73.78 L88.031,89.009" id="Fill-103"></path>
            <path d="M103.653,89.009 C103.653,91.061 105.312,92.719 107.362,92.719 C109.413,92.719 111.081,91.061 111.081,89.009 L111.081,86.406 C111.081,84.355 109.413,82.697 107.362,82.697 C105.312,82.697 103.653,84.355 103.653,86.406 L103.653,89.009" id="Fill-104"></path>
            <path d="M56.795,89.009 C56.795,91.061 58.453,92.719 60.504,92.719 C62.555,92.719 64.223,91.061 64.223,89.009 L64.223,73.78 C64.223,71.728 62.555,70.061 60.504,70.061 C58.453,70.061 56.795,71.728 56.795,73.78 L56.795,89.009" id="Fill-105"></path>
            <path d="M41.175,89.009 C41.175,91.061 42.833,92.719 44.885,92.719 C46.936,92.719 48.603,91.061 48.603,89.009 L48.603,86.406 C48.603,84.355 46.936,82.697 44.885,82.697 C42.833,82.697 41.175,84.355 41.175,86.406 L41.175,89.009" id="Fill-106"></path>
            <path d="M37.562,156.615 L17.409,156.615 C15.956,156.615 14.716,155.376 14.716,153.931 L14.716,115.224 C14.716,113.458 16.063,112.539 17.409,112.539 C18.747,112.539 20.093,113.458 20.093,115.224 L20.093,151.238 L37.562,151.238 C39.335,151.238 40.254,152.585 40.254,153.931 C40.254,155.269 39.335,156.615 37.562,156.615" id="Fill-107"></path>
            <path d="M47.774,156.615 C46.428,156.615 45.09,155.697 45.09,153.931 L45.09,127.315 C45.09,125.549 46.428,124.631 47.774,124.631 C49.121,124.631 50.458,125.549 50.458,127.315 L50.458,153.931 C50.458,155.697 49.121,156.615 47.774,156.615 M47.774,121.136 C46.428,121.136 45.09,120.225 45.09,118.452 L45.09,115.224 C45.09,113.458 46.428,112.539 47.774,112.539 C49.121,112.539 50.458,113.458 50.458,115.224 L50.458,118.452 C50.458,120.225 49.121,121.136 47.774,121.136" id="Fill-108"></path>
            <path d="M72.124,121.193 C71.695,121.193 71.268,121.033 70.777,120.658 L64.928,115.977 C64.277,115.496 64.063,114.907 64.063,114.363 C64.063,113.186 65.079,112.107 66.266,112.107 C66.64,112.107 67.121,112.268 67.611,112.651 L73.47,117.324 C74.059,117.806 74.326,118.393 74.326,118.937 C74.326,120.061 73.247,121.193 72.124,121.193" id="Fill-109"></path>
            <path d="M103.136,135.651 C103.136,132.218 100.389,129.472 96.956,129.472 C93.514,129.472 90.776,132.218 90.776,135.651 L90.776,144.523 C90.776,147.956 93.514,150.703 96.956,150.703 C100.389,150.703 103.136,147.956 103.136,144.523 M96.956,167.368 C93.675,167.368 89.27,165.915 87.326,162.954 C86.951,162.419 86.791,161.938 86.791,161.403 C86.791,159.95 88.19,158.71 89.591,158.71 C90.394,158.71 91.151,159.085 91.739,159.95 C91.739,159.95 91.793,160.003 91.9,160.11 C93.184,161.456 95.128,161.992 96.956,161.992 C100.389,161.992 103.136,159.245 103.136,155.803 L103.136,154.305 C101.361,155.429 99.212,156.079 96.956,156.079 C90.554,156.079 85.399,150.917 85.399,144.523 L85.399,135.651 C85.399,129.258 90.554,124.095 96.956,124.095 C103.35,124.095 108.503,129.258 108.503,135.651 L108.503,155.803 C108.503,162.205 103.35,167.368 96.956,167.368" id="Fill-110"></path>
            <path d="M132.161,135.651 C132.161,132.218 129.415,129.472 125.973,129.472 C122.54,129.472 119.794,132.218 119.794,135.651 L119.794,136.73 L132.161,136.73 M134.845,142.098 L119.794,142.098 L119.794,145.594 C119.794,148.821 122.914,151.782 126.517,151.782 C128.559,151.782 130.333,151.184 131.733,149.74 C132.321,148.875 133.07,148.5 133.882,148.5 C135.273,148.5 136.673,149.74 136.673,151.184 C136.673,151.728 136.513,152.21 136.138,152.745 C136.138,152.745 135.924,153.119 135.442,153.61 C133.187,156.026 129.789,157.159 126.517,157.159 C120.338,157.159 114.426,152.156 114.426,145.594 L114.426,135.651 C114.426,129.258 119.579,124.095 125.973,124.095 C132.375,124.095 137.529,129.258 137.529,135.651 L137.529,139.414 C137.529,140.868 136.299,142.098 134.845,142.098" id="Fill-111"></path>
            <path d="M74.653,135.651 C74.653,132.218 71.907,129.472 68.465,129.472 C65.032,129.472 62.285,132.218 62.285,135.651 L62.285,136.73 L74.653,136.73 M77.337,142.098 L62.285,142.098 L62.285,145.594 C62.285,148.821 65.406,151.782 69,151.782 C71.051,151.782 72.825,151.184 74.217,149.74 C74.813,148.875 75.563,148.5 76.365,148.5 C77.766,148.5 79.165,149.74 79.165,151.184 C79.165,151.728 78.996,152.21 78.621,152.745 C78.621,152.745 78.407,153.119 77.926,153.61 C75.67,156.026 72.281,157.159 69,157.159 C62.82,157.159 56.918,152.156 56.918,145.594 L56.918,135.651 C56.918,129.258 62.071,124.095 68.465,124.095 C74.858,124.095 80.021,129.258 80.021,135.651 L80.021,139.414 C80.021,140.868 78.791,142.098 77.337,142.098" id="Fill-112"></path>
            <path d="M3.078,171.406 C1.616,171.406 0.439,170.229 0.439,168.767 L0.439,163.987 C0.439,163.675 0.67,163.515 0.912,163.515 C1.152,163.515 1.384,163.675 1.384,163.987 L1.384,168.767 C1.384,169.694 2.151,170.461 3.078,170.461 C4.005,170.461 4.772,169.694 4.772,168.767 L4.772,163.987 C4.772,163.675 5.004,163.515 5.245,163.515 C5.486,163.515 5.718,163.675 5.718,163.987 L5.718,168.767 C5.718,170.229 4.541,171.406 3.078,171.406" id="Fill-113"></path>
            <path d="M10.477,171.312 C10.236,171.312 9.995,171.153 9.995,170.84 L9.995,167.603 C9.995,166.997 9.514,166.507 8.907,166.507 C8.301,166.507 7.811,166.997 7.811,167.603 L7.811,170.84 C7.811,171.153 7.579,171.312 7.338,171.312 C7.097,171.312 6.865,171.153 6.865,170.84 L6.865,167.603 C6.865,166.471 7.775,165.561 8.907,165.561 C10.04,165.561 10.949,166.471 10.949,167.603 L10.949,170.84 C10.949,171.153 10.717,171.312 10.477,171.312" id="Fill-114"></path>
            <path d="M15.608,168.747 L12.951,168.747 L12.951,169.363 C12.951,169.934 13.495,170.46 14.137,170.46 C14.502,170.46 14.814,170.353 15.055,170.094 C15.162,169.943 15.296,169.88 15.439,169.88 C15.688,169.88 15.929,170.094 15.929,170.353 C15.929,170.451 15.902,170.531 15.84,170.629 L15.715,170.781 C15.314,171.208 14.716,171.405 14.137,171.405 C13.04,171.405 11.997,170.522 11.997,169.363 L11.997,167.606 C11.997,166.475 12.906,165.564 14.039,165.564 C15.171,165.564 16.09,166.475 16.09,167.606 L16.09,168.275 C16.09,168.525 15.867,168.747 15.608,168.747 M15.136,167.606 C15.136,167 14.645,166.51 14.039,166.51 C13.433,166.51 12.951,167 12.951,167.606 L12.951,167.793 L15.136,167.793 L15.136,167.606" id="Fill-115"></path>
            <path d="M23.566,166.304 L21.756,171.012 C21.667,171.27 21.498,171.387 21.319,171.387 C21.141,171.387 20.972,171.27 20.874,171.012 L19.072,166.304 L19.028,166.108 C19.028,165.831 19.277,165.663 19.527,165.663 C19.696,165.663 19.866,165.742 19.955,165.957 L21.319,169.505 L22.683,165.957 C22.764,165.742 22.942,165.663 23.111,165.663 C23.361,165.663 23.602,165.831 23.602,166.108 L23.566,166.304" id="Fill-116"></path>
            <path d="M24.936,165.037 C24.695,165.037 24.463,164.877 24.463,164.564 L24.463,163.994 C24.463,163.673 24.695,163.521 24.936,163.521 C25.177,163.521 25.409,163.673 25.409,163.994 L25.409,164.564 C25.409,164.877 25.177,165.037 24.936,165.037 M24.936,171.315 C24.695,171.315 24.463,171.145 24.463,170.833 L24.463,166.125 C24.463,165.813 24.695,165.661 24.936,165.661 C25.177,165.661 25.409,165.813 25.409,166.125 L25.409,170.833 C25.409,171.145 25.177,171.315 24.936,171.315" id="Fill-117"></path>
            <path d="M27.807,171.416 L27.62,171.381 C27.62,171.381 27.54,171.345 27.424,171.273 C26.88,170.926 26.648,170.266 26.648,169.633 L26.648,163.989 C26.648,163.676 26.88,163.516 27.121,163.516 C27.361,163.516 27.602,163.676 27.602,163.989 L27.602,169.633 C27.602,169.945 27.683,170.301 27.959,170.489 C28.182,170.569 28.262,170.747 28.262,170.917 C28.262,171.158 28.083,171.416 27.807,171.416" id="Fill-118"></path>
            <path d="M30.279,171.416 L30.091,171.381 C30.091,171.381 30.011,171.345 29.896,171.273 C29.352,170.926 29.12,170.266 29.12,169.633 L29.12,163.989 C29.12,163.676 29.36,163.516 29.592,163.516 C29.833,163.516 30.074,163.676 30.074,163.989 L30.074,169.633 C30.074,169.945 30.154,170.301 30.431,170.489 C30.653,170.569 30.734,170.747 30.734,170.917 C30.734,171.158 30.555,171.416 30.279,171.416" id="Fill-119"></path>
            <path d="M35.108,168.747 L32.451,168.747 L32.451,169.363 C32.451,169.934 32.995,170.46 33.637,170.46 C33.994,170.46 34.306,170.353 34.555,170.094 C34.662,169.943 34.796,169.88 34.939,169.88 C35.188,169.88 35.429,170.094 35.429,170.353 C35.429,170.451 35.402,170.531 35.34,170.629 L35.215,170.781 C34.814,171.208 34.216,171.405 33.637,171.405 C32.54,171.405 31.497,170.522 31.497,169.363 L31.497,167.606 C31.497,166.475 32.406,165.564 33.539,165.564 C34.671,165.564 35.581,166.475 35.581,167.606 L35.581,168.275 C35.581,168.525 35.367,168.747 35.108,168.747 M34.636,167.606 C34.636,167 34.145,166.51 33.539,166.51 C32.933,166.51 32.451,167 32.451,167.606 L32.451,167.793 L34.636,167.793 L34.636,167.606" id="Fill-120"></path>
            <path d="M36.781,172.36 C36.683,172.432 36.585,172.459 36.487,172.459 C36.229,172.459 36.014,172.218 36.014,171.968 C36.014,171.834 36.068,171.701 36.21,171.593 L36.3,171.522 C36.683,171.139 36.879,170.613 36.879,170.078 C36.879,169.766 37.111,169.596 37.352,169.596 C37.592,169.596 37.824,169.766 37.824,170.078 C37.824,170.871 37.45,171.861 36.781,172.36" id="Fill-121"></path>
            <path d="M43.199,171.406 C42.066,171.406 41.157,170.496 41.157,169.364 L41.157,166.127 C41.157,165.815 41.389,165.655 41.629,165.655 C41.87,165.655 42.102,165.815 42.102,166.127 L42.102,169.364 C42.102,169.971 42.592,170.461 43.199,170.461 C43.805,170.461 44.286,169.971 44.286,169.364 L44.286,166.127 C44.286,165.815 44.527,165.655 44.768,165.655 C45.008,165.655 45.24,165.815 45.24,166.127 L45.24,169.364 C45.24,170.496 44.331,171.406 43.199,171.406" id="Fill-122"></path>
            <path d="M49.9,171.312 C49.668,171.312 49.428,171.153 49.428,170.84 L49.428,167.603 C49.428,166.997 48.946,166.507 48.331,166.507 C47.725,166.507 47.243,166.997 47.243,167.603 L47.243,170.84 C47.243,171.153 47.002,171.312 46.762,171.312 C46.53,171.312 46.289,171.153 46.289,170.84 L46.289,167.603 C46.289,166.471 47.199,165.561 48.331,165.561 C49.463,165.561 50.373,166.471 50.373,167.603 L50.373,170.84 C50.373,171.153 50.141,171.312 49.9,171.312" id="Fill-123"></path>
            <path d="M57.317,168.747 L54.66,168.747 L54.66,169.363 C54.66,169.934 55.204,170.46 55.846,170.46 C56.203,170.46 56.515,170.353 56.764,170.094 C56.871,169.943 57.005,169.88 57.147,169.88 C57.397,169.88 57.638,170.094 57.638,170.353 C57.638,170.451 57.611,170.531 57.549,170.629 L57.424,170.781 C57.023,171.208 56.425,171.405 55.846,171.405 C54.749,171.405 53.706,170.522 53.706,169.363 L53.706,167.606 C53.706,166.475 54.615,165.564 55.748,165.564 C56.88,165.564 57.79,166.475 57.79,167.606 L57.79,168.275 C57.79,168.525 57.576,168.747 57.317,168.747 M56.845,167.606 C56.845,167 56.354,166.51 55.748,166.51 C55.142,166.51 54.66,167 54.66,167.606 L54.66,167.793 L56.845,167.793 L56.845,167.606" id="Fill-124"></path>
            <path d="M60.35,171.406 C59.797,171.406 59.066,171.156 58.745,170.675 C58.673,170.577 58.647,170.488 58.647,170.39 C58.647,170.131 58.896,169.916 59.137,169.916 C59.271,169.916 59.423,169.979 59.521,170.122 L59.539,170.148 C59.744,170.371 60.056,170.461 60.35,170.461 C61.027,170.461 61.357,170.077 61.357,169.721 C61.357,168.543 58.683,168.98 58.683,167.108 C58.683,166.064 59.592,165.565 60.421,165.565 C61.01,165.565 61.688,165.887 62.026,166.395 L62.098,166.662 C62.098,166.93 61.865,167.143 61.607,167.143 C61.465,167.143 61.321,167.072 61.224,166.912 C61.01,166.662 60.76,166.511 60.421,166.511 C59.904,166.511 59.637,166.787 59.637,167.108 C59.637,168.089 62.312,167.759 62.312,169.721 C62.312,170.782 61.349,171.406 60.35,171.406" id="Fill-125"></path>
            <path d="M65.304,171.406 C64.902,171.406 64.527,171.29 64.206,171.094 L64.206,172.744 C64.206,173.056 63.975,173.216 63.733,173.216 C63.493,173.216 63.262,173.056 63.262,172.744 L63.262,167.607 C63.262,166.475 64.171,165.565 65.304,165.565 C66.436,165.565 67.345,166.475 67.345,167.607 L67.345,169.364 C67.345,170.496 66.436,171.406 65.304,171.406 M66.4,167.607 C66.4,166.992 65.909,166.511 65.304,166.511 C64.697,166.511 64.206,166.992 64.206,167.607 L64.206,169.364 C64.206,169.971 64.697,170.461 65.304,170.461 C65.909,170.461 66.4,169.971 66.4,169.364 L66.4,167.607" id="Fill-126"></path>
            <path d="M71.226,166.9 C71.109,166.9 70.994,166.856 70.887,166.748 L70.869,166.731 C70.69,166.588 70.468,166.508 70.245,166.508 C69.71,166.508 69.344,166.873 69.344,167.667 L69.344,170.841 C69.344,171.154 69.104,171.314 68.872,171.314 C68.631,171.314 68.39,171.154 68.39,170.841 L68.39,167.667 C68.39,166.561 68.996,165.563 70.245,165.563 C70.682,165.563 71.243,165.75 71.573,166.089 C71.662,166.187 71.707,166.303 71.707,166.419 C71.707,166.677 71.476,166.9 71.226,166.9" id="Fill-127"></path>
            <path d="M72.946,165.037 C72.706,165.037 72.474,164.877 72.474,164.564 L72.474,163.994 C72.474,163.673 72.706,163.521 72.946,163.521 C73.188,163.521 73.419,163.673 73.419,163.994 L73.419,164.564 C73.419,164.877 73.188,165.037 72.946,165.037 M72.946,171.315 C72.706,171.315 72.474,171.145 72.474,170.833 L72.474,166.125 C72.474,165.813 72.706,165.661 72.946,165.661 C73.188,165.661 73.419,165.813 73.419,166.125 L73.419,170.833 C73.419,171.145 73.188,171.315 72.946,171.315" id="Fill-128"></path>
            <path d="M78.087,171.026 C77.767,171.267 77.364,171.41 76.964,171.41 C76.045,171.41 75.332,170.759 75.332,169.876 L75.332,166.603 L74.663,166.603 C74.342,166.603 74.182,166.371 74.182,166.131 C74.182,165.89 74.342,165.658 74.663,165.658 L75.332,165.658 L75.332,164.829 C75.332,164.517 75.572,164.356 75.805,164.356 C76.045,164.356 76.277,164.517 76.277,164.829 L76.277,165.658 L77.775,165.658 C78.087,165.658 78.247,165.89 78.247,166.131 C78.247,166.371 78.087,166.603 77.775,166.603 L76.277,166.603 L76.277,169.876 C76.277,170.17 76.5,170.455 76.964,170.455 C77.428,170.455 77.588,170.108 77.882,170.108 C78.194,170.108 78.363,170.366 78.363,170.624 C78.363,170.821 78.229,170.919 78.087,171.026" id="Fill-129"></path>
            <path d="M79.6,171.312 C79.358,171.312 79.127,171.153 79.127,170.84 L79.127,170.073 C79.127,169.762 79.358,169.601 79.6,169.601 C79.831,169.601 80.081,169.762 80.081,170.073 L80.081,170.84 C80.081,171.153 79.831,171.312 79.6,171.312" id="Fill-130"></path>
        </g>
    </g>
</svg>
