<?xml version="1.0" encoding="UTF-8" standalone="no"?>
<svg width="148px" height="215px" viewBox="0 0 148 215" version="1.1" xmlns="http://www.w3.org/2000/svg" xmlns:xlink="http://www.w3.org/1999/xlink">
    <title>naos</title>
    <defs></defs>
    <g id="Page-1" stroke="none" stroke-width="1" fill="none" fill-rule="evenodd">
        <g id="naos" fill="#FFFFFF">
            <polygon id="Fill-170" points="0.841 145.122 146.21 145.122 146.21 0.414 0.841 0.414"></polygon>
            <polyline id="Fill-171" points="37.692 195.197 33.991 195.197 5.795 160.804 5.795 195.197 1.564 195.197 1.564 153.462 5.266 153.462 33.462 187.856 33.462 153.462 37.692 153.462 37.692 195.197"></polyline>
            <path d="M79.136,195.197 L74.623,195.197 L68.893,181.794 L50.829,181.794 L45.209,195.197 L40.696,195.197 L58.231,153.217 L61.134,153.217 L79.136,195.197 Z M59.683,160.434 L52.501,177.761 L67.098,177.761 L59.683,160.434 L59.683,160.434 Z" id="Fill-172"></path>
            <path d="M79.422,174.329 C79.422,163.31 87.242,152.908 100.498,152.908 C113.35,152.908 121.62,162.942 121.62,174.329 C121.62,186.809 112.13,195.75 100.265,195.75 C88.681,195.75 79.422,186.625 79.422,174.329 M116.99,174.206 C116.99,165.943 110.975,157.249 100.498,157.249 C90.365,157.249 84.058,165.389 84.058,174.391 C84.058,184.548 91.755,191.409 100.203,191.409 C109.646,191.409 116.99,184.24 116.99,174.206" id="Fill-173"></path>
            <path d="M145.53,160.863 C143.73,159.462 140.55,157.064 136.55,157.064 C130.3,157.064 129.2,161.971 129.2,163.495 C129.2,167.713 133.19,169.865 136.67,171.697 C144.37,175.73 147.15,178.129 147.15,184.301 C147.15,192.196 140.78,195.75 135.63,195.75 C131.93,195.75 128.34,194.225 125.26,191.949 L125.26,186.317 C127.35,188.531 131.12,191.593 135.52,191.593 C141.06,191.593 142.86,187.117 142.86,184.608 C142.86,181.977 142.11,179.469 134,175.435 C127.35,172.127 124.92,168.635 124.92,163.987 C124.92,157.433 130.01,152.907 136.61,152.907 C141.01,152.907 143.97,154.678 145.53,155.662 L145.53,160.863" id="Fill-174"></path>
            <path d="M82.325,202.139 L77.196,214.411 L78.513,214.411 L80.16,210.501 L85.448,210.501 L87.12,214.411 L88.436,214.411 L83.173,202.139 L82.325,202.139 Z M82.743,204.255 L84.919,209.308 L80.652,209.308 L82.743,204.255 L82.743,204.255 Z" id="Fill-175"></path>
            <polyline id="Fill-176" points="88.146 202.216 88.146 203.385 92.303 203.385 92.303 214.415 93.581 214.415 93.581 203.385 97.737 203.385 97.737 202.216 88.146 202.216"></polyline>
            <polyline id="Fill-177" points="100.674 202.216 100.674 214.415 107.253 214.415 107.253 213.234 101.953 213.234 101.953 208.844 106.958 208.844 106.958 207.677 101.953 207.677 101.953 203.385 107.117 203.385 107.117 202.216 100.674 202.216"></polyline>
            <polyline id="Fill-178" points="110.812 202.216 110.812 214.415 117.53 214.415 117.53 213.234 112.09 213.234 112.09 202.216 110.812 202.216"></polyline>
            <polygon id="Fill-179" points="120.7 214.415 121.96 214.415 121.96 202.216 120.7 202.216"></polygon>
            <polyline id="Fill-180" points="126.42 202.216 126.42 214.415 132.98 214.415 132.98 213.234 127.68 213.234 127.68 208.844 132.69 208.844 132.69 207.677 127.68 207.677 127.68 203.385 132.85 203.385 132.85 202.216 126.42 202.216"></polyline>
            <path d="M139.49,202.213 C142.49,202.213 143.3,204.02 143.3,205.484 C143.3,207.143 142.33,208.042 141.24,208.472 C142.06,209.05 142.64,209.997 144.06,212.357 C144.54,213.182 144.8,213.551 145.38,214.411 L143.85,214.411 L142.76,212.566 C142.29,211.805 141.79,211.029 141.26,210.316 C140.52,209.32 139.88,208.828 138.64,208.828 L137.82,208.828 L137.82,214.411 L136.54,214.411 L136.54,202.213 L139.49,202.213 Z M137.82,203.392 L137.82,207.647 L139.3,207.647 C140.94,207.647 141.95,206.898 141.95,205.508 C141.95,204.229 141.06,203.392 139.3,203.392 L137.82,203.392 L137.82,203.392 Z" id="Fill-181"></path>
        </g>
    </g>
</svg>
