<?xml version="1.0" encoding="UTF-8" standalone="no"?>
<svg width="231px" height="104px" viewBox="0 0 231 104" version="1.1" xmlns="http://www.w3.org/2000/svg" xmlns:xlink="http://www.w3.org/1999/xlink">
    <title>pac</title>
    <defs></defs>
    <g id="Page-1" stroke="none" stroke-width="1" fill="none" fill-rule="evenodd">
        <g id="pac" fill="#FFFFFF">
            <path d="M32.402,0.821 L35.426,0.821 C44.643,1.589 50.966,4.895 55.962,9.553 C60.325,13.621 63.882,19.078 65.75,25.69 C66.021,26.648 66.064,27.724 66.463,28.682 C69.056,34.796 80.996,34.391 83.177,27.932 C83.625,26.618 83.884,25.198 84.375,23.779 C85.279,21.155 86.587,18.513 87.798,16.626 C93.39,7.9 101.311,1.921 113.981,0.821 L117.084,0.821 C126.222,1.497 132.391,4.945 137.301,9.388 C141.055,12.792 144.22,17.111 146.21,22.359 C146.88,24.11 147.188,26.009 147.882,28.019 C150.205,34.698 162.415,34.612 164.756,27.932 C165.21,26.642 165.469,25.217 165.954,23.779 C166.814,21.198 168.215,18.506 169.377,16.626 C174.796,7.802 183.055,2.032 195.56,0.821 L198.663,0.821 C208.292,1.497 215.353,5.54 220.551,10.967 C225.743,16.393 229.614,23.779 230.26,33.838 L230.26,37.082 C229.264,49.114 224.539,56.911 217.528,62.7 C214.172,65.465 209.877,67.782 204.949,69.023 C199.861,70.301 193.593,70.332 188.395,68.771 C178.803,65.889 171.988,59.836 167.706,51.387 C166.654,49.323 165.757,46.736 165.155,44.321 C164.504,41.709 163.232,40.025 161.02,38.914 C155.957,36.375 149.504,38.588 147.962,42.656 C147.507,43.86 147.354,45.132 147.01,46.232 C146.635,47.417 146.192,48.487 145.738,49.556 C141.375,59.72 132.809,67.653 120.667,69.6 C115.179,70.479 109.618,69.871 104.985,68.273 C94.601,64.685 86.434,55.965 83.577,44.401 C82.956,41.875 81.684,40.148 79.761,39.079 C74.802,36.32 67.907,38.453 66.31,42.908 C65.511,45.113 65.13,47.252 64.319,49.224 C61.904,55.105 58.094,59.769 53.492,63.284 C47.654,67.739 39.223,71.413 28.107,69.521 L28.107,54.3 C31.567,55.873 35.733,56.506 39.647,55.627 C43.254,54.822 46.419,52.832 48.557,50.638 C53.031,46.06 56.699,38.766 55.003,29.512 C53.608,21.886 48.987,16.196 43.07,13.461 C39.825,11.968 35.383,11.36 31.45,12.38 C27.843,13.32 24.992,15.182 22.694,17.541 C21.76,16.86 20.924,16.024 19.91,15.126 C19.265,14.556 17.852,12.909 17.041,12.712 C16.174,12.509 15.369,12.865 14.337,12.712 C14.152,29.321 14.312,46.287 14.257,63.032 C13.704,63.112 13.347,62.516 12.985,62.202 C6.44,56.549 1.611,48.592 0.806,37.082 L0.806,33.838 C0.867,33.819 0.898,33.77 0.886,33.672 C1.494,23.637 5.353,16.276 10.515,10.887 C15.695,5.473 22.847,1.547 32.402,0.821 M112.789,11.882 C105.802,12.423 100.659,17.069 97.826,22.193 C94.748,27.754 93.894,36.234 96.548,42.988 C98.859,48.862 103.584,53.587 109.287,55.295 C116.758,57.539 123.788,54.306 127.672,50.306 C128.421,51.172 129.368,51.817 130.375,52.721 C131.027,53.305 132.311,54.933 133.159,55.129 C134.063,55.345 134.886,54.976 135.949,55.129 L135.949,12.712 C134.867,12.909 134.001,12.448 133.079,12.712 C132.692,12.828 132.133,13.523 131.728,13.879 C130.277,15.164 128.919,16.448 127.592,17.541 C123.985,14.266 119.855,11.342 112.789,11.882 M198.663,11.882 C191.258,12.417 185.599,16.19 182.188,21.112 C178.809,25.991 177.027,34.581 179.718,41.906 C181.931,47.909 186.49,52.389 192.616,54.632 C195.333,55.627 199.29,56.395 203.518,55.793 C206.356,55.394 208.489,54.546 210.522,53.298 C210.996,53.01 212.206,52.352 212.354,51.885 C212.575,51.166 212.354,49.937 212.354,48.978 L212.354,40.241 C209.465,41.648 206.725,43.153 202.958,43.405 C199.142,43.657 195.984,42.109 194.288,39.411 C192.487,36.566 192.438,32.056 193.888,29.18 C195.234,26.513 197.956,24.369 201.766,24.356 C206.375,24.35 208.87,26.298 212.354,27.601 L212.354,15.71 C208.956,13.13 204.79,11.44 198.663,11.882" id="Fill-30"></path>
            <path d="M198.663,0.821 L230.259,0.821 L230.259,33.838 C229.614,23.779 225.743,16.393 220.55,10.967 C215.352,5.54 208.292,1.497 198.663,0.821" id="Fill-31"></path>
            <path d="M33.597,22.444 C36.355,22.088 38.131,24.325 39.17,26.352 C41.683,31.293 41.327,40.092 37.578,43.902 C36.46,45.033 34.524,46.01 32.484,45.149 C29.099,43.73 27.323,38.611 27.31,34.003 C27.298,29.05 29.031,24.933 31.526,23.194 C32.005,22.862 32.644,22.567 33.597,22.444" id="Fill-32"></path>
            <path d="M115.572,22.444 C118.614,22.015 120.555,24.748 121.539,27.016 C124.132,32.97 122.78,42.741 117.962,45.069 C115.443,46.28 113.028,44.578 111.83,42.907 C107.903,37.419 108.936,26.07 113.821,23.028 C114.27,22.745 114.951,22.53 115.572,22.444" id="Fill-33"></path>
            <path d="M116.209,86.069 C116.418,87.047 116.006,88.066 115.81,89.062 C115.22,92.03 114.335,95.231 114.218,98.463 C114.777,98.734 115.214,98.322 115.65,98.211 C115.693,98.586 115.828,99.023 115.73,99.293 C114.863,99.877 112.965,99.895 112.787,98.795 C112.639,97.898 112.958,96.614 113.186,95.465 C113.745,92.644 114.599,88.859 115.097,86.321 C115.509,86.285 115.792,86.106 116.209,86.069" id="Fill-34"></path>
            <path d="M177.173,86.069 C177.327,87.047 176.903,88.048 176.694,89.062 C176.276,91.121 175.84,93.246 175.422,95.385 C175.219,96.417 174.801,97.579 175.262,98.543 C175.871,98.629 176.11,98.322 176.534,98.211 C176.632,98.5 176.682,98.838 176.694,99.213 C175.803,99.889 173.947,99.963 173.671,98.709 C173.486,97.873 173.941,96.503 174.15,95.465 C174.709,92.693 175.453,88.847 175.981,86.401 C176.294,86.204 176.75,86.149 177.173,86.069" id="Fill-35"></path>
            <path d="M36.62,86.319 C37.935,86.202 37.892,88.353 36.7,88.395 C35.631,88.433 35.121,86.448 36.62,86.319" id="Fill-36"></path>
            <path d="M154.332,87.65 C154.258,88.129 153.957,88.369 153.772,88.731 C152.937,88.289 152.353,87.65 151.309,87.816 C149.238,88.148 147.714,93.807 148.125,96.799 C148.433,99.061 150.688,98.483 152.101,97.383 C152.193,97.703 152.322,97.985 152.5,98.213 C150.928,100.37 146.964,100.247 146.614,96.879 C146.546,96.277 146.571,95.528 146.614,94.882 C146.915,90.194 149.858,83.84 154.332,87.65" id="Fill-37"></path>
            <path d="M11.312,86.817 C11.729,90.953 12.086,95.156 12.424,99.377 C12.11,99.513 11.312,99.513 10.992,99.377 C10.98,98.062 10.783,96.932 10.752,95.636 L7.096,95.636 C6.353,96.797 5.836,98.204 5.185,99.457 C4.743,99.421 4.141,99.55 3.833,99.377 C5.874,95.107 7.901,90.824 10.12,86.738 C10.507,86.775 11.047,86.645 11.312,86.817 M7.729,94.388 C8.448,94.278 9.769,94.523 10.593,94.302 C10.451,92.747 10.372,90.523 10.199,88.729 C9.486,90.738 8.423,92.366 7.729,94.388" id="Fill-38"></path>
            <path d="M186.963,87.566 C186.828,88.586 186.545,89.459 186.403,90.479 C187.067,90.669 188.075,90.503 188.874,90.559 C188.99,90.878 188.579,91.278 188.474,91.64 L186.164,91.64 C186.108,92.937 184.923,96.132 184.972,97.711 C185.015,98.989 186.803,98.295 187.602,97.963 C187.608,98.424 187.792,98.664 187.682,99.045 C186.52,99.715 184.038,100.255 183.7,98.547 C183.313,96.587 184.818,93.521 184.812,91.726 C184.523,91.53 183.884,91.696 183.46,91.64 C183.417,91.179 183.552,90.909 183.62,90.559 L184.972,90.559 C185.34,89.84 185.377,88.764 185.611,87.898 C185.985,87.745 186.606,87.468 186.963,87.566" id="Fill-39"></path>
            <path d="M10.197,88.73 C10.369,90.518 10.449,92.749 10.596,94.304" id="Fill-40"></path>
            <path d="M21.896,103.369 L20.944,103.369 C20.047,103.166 19.162,102.957 18.474,102.539 C18.597,102.078 18.726,101.636 18.953,101.292 C20.108,101.795 21.546,102.607 22.695,101.789 C23.795,101.003 23.537,99.258 24.047,97.795 C23.568,97.955 23.372,98.742 22.695,99.129 C20.938,100.118 19.568,98.735 19.433,97.132 C19.107,93.304 22.124,88.234 25.559,91.14 C25.878,90.894 26.02,90.458 26.432,90.31 C26.696,90.508 26.898,90.766 27.15,90.975 C24.576,93.807 26.573,102.938 21.896,103.369 M21.098,97.961 C24.14,98.483 24.521,94.84 25.08,92.222 C21.854,89.61 20.201,95.325 21.098,97.961" id="Fill-41"></path>
            <path d="M45.932,91.891 C46.46,91.308 47.566,89.808 49.035,90.478 C48.974,91.019 48.716,91.363 48.556,91.805 C45.269,91.154 45.404,96.764 44.5,99.462 L43.308,99.462 C43.585,96.512 44.924,93.962 44.5,90.81 C45.336,90.085 46.129,90.38 45.932,91.891" id="Fill-42"></path>
            <path d="M63.521,103.369 L63.202,103.369 C63.564,99.319 65.635,94.95 65.033,90.809 C65.469,90.71 65.66,90.36 66.225,90.397 C66.403,90.68 66.557,90.993 66.544,91.472 C67.036,91.423 67.349,90.729 67.976,90.477 C68.978,90.071 70.244,90.292 70.766,91.14 C72.044,93.236 70.612,98.336 68.775,99.374 C67.841,99.903 66.342,99.823 65.352,98.963 C65.076,100.278 64.769,101.568 64.554,102.951 C64.271,103.154 63.828,103.19 63.521,103.369 M65.592,97.715 C68.683,100.991 70.753,93.672 69.254,91.644 C66.003,91.214 66.305,95.214 65.592,97.715" id="Fill-43"></path>
            <path d="M83.976,91.226 C84.16,91.085 84.178,90.771 84.295,90.562 L85.327,90.562 C85.044,93.487 83.705,96.074 84.135,99.208 C83.754,99.368 83.484,99.638 82.943,99.626 C82.752,98.956 82.667,98.452 82.783,97.96 C82.156,98.692 80.202,100.621 78.722,99.294 C76.835,97.598 78.722,92.013 80.393,90.808 C81.444,90.052 83.324,90.132 83.976,91.226 M79.36,96.633 C79.342,98.477 80.485,98.833 81.585,97.96 C82.906,96.922 83.349,94.458 83.656,92.387 C81.13,89.591 79.379,94.151 79.36,96.633" id="Fill-44"></path>
            <path d="M97.665,90.477 C97.56,90.944 97.352,91.313 97.186,91.725 C93.745,91.393 93.99,96.721 93.13,99.461 L91.932,99.461 C92.184,96.524 93.45,93.881 93.13,90.895 C93.357,90.613 93.929,90.318 94.242,90.392 C94.506,90.76 94.592,91.7 94.482,91.976 C95.164,91.166 96.141,89.863 97.665,90.477" id="Fill-45"></path>
            <path d="M128.306,91.226 C128.49,91.085 128.509,90.771 128.625,90.562 L129.658,90.562 C129.387,93.506 128.042,96.074 128.465,99.208 C128.115,99.398 127.796,99.62 127.273,99.626 C127.089,99.042 127.034,98.434 127.114,97.96 C126.524,98.932 123.9,100.781 122.732,98.876 C120.987,96.019 124.386,87.453 128.306,91.226 M125.043,92.222 C124.109,93.371 122.493,100.025 125.682,98.127 C127.268,97.181 127.618,94.421 128.066,92.308 C127.273,91.398 125.787,91.318 125.043,92.222" id="Fill-46"></path>
            <path d="M214.262,90.477 C214.139,90.932 213.93,91.295 213.782,91.725 C210.194,91.626 210.691,96.463 209.727,99.375 C209.457,99.51 208.719,99.51 208.449,99.375 C208.873,96.622 209.985,93.82 209.727,90.895 C209.923,90.551 210.378,90.465 210.839,90.392 C211.072,90.803 211.195,91.571 211.079,91.891 C211.687,91.356 212.731,89.783 214.262,90.477" id="Fill-47"></path>
            <path d="M220.47,95.966 C219.77,98.885 223.389,98.842 224.605,97.465 C224.9,97.711 225.109,98.049 225.244,98.461 C223.296,100.31 219.474,100.145 219.118,97.134 C218.712,93.692 220.881,89.785 224.132,90.313 C226.406,90.676 226.295,94.111 224.685,95.137 C223.487,95.898 222.018,95.782 220.47,95.966 M224.372,93.723 C224.913,92.875 224.52,91.646 223.813,91.475 C221.908,91.019 220.869,93.225 220.629,94.799 C221.717,94.7 223.763,94.663 224.372,93.723" id="Fill-48"></path>
            <path d="M162.131,90.394 C161.941,93.092 160.638,95.463 161.019,98.21 C164.835,99.138 164.811,93.848 165.554,90.646 C166.002,90.56 166.334,90.351 166.906,90.394 C166.642,93.325 165.154,96.152 165.714,99.126 C165.296,99.273 165.063,99.611 164.521,99.623 C164.251,99.329 164.27,98.721 164.282,98.13 C163.213,99.673 159.114,100.902 159.507,97.215 C159.723,95.163 160.62,92.447 160.859,90.646 C161.234,90.511 161.627,90.394 162.131,90.394" id="Fill-49"></path>
            <path d="M197.15,90.394 C196.941,91.783 196.665,92.95 196.352,94.468 C196.056,95.912 195.036,98.714 197.07,98.376 C199.897,97.909 199.842,93.565 200.573,90.646 C201.021,90.56 201.353,90.351 201.925,90.394 C201.587,93.246 200.29,95.924 200.653,98.96 C200.413,99.347 200.032,99.587 199.46,99.623 C199.295,99.071 199.203,98.56 199.301,98.13 C198.57,99.347 194.741,100.883 194.446,98.13 C194.323,97.006 194.815,95.562 195.08,94.302 C195.362,92.975 195.608,91.697 195.878,90.646 C196.265,90.523 196.616,90.364 197.15,90.394" id="Fill-50"></path>
            <path d="M36.7,90.642 C36.085,93.58 35.557,96.603 34.869,99.461 L33.677,99.461 C34.089,96.781 34.703,94.324 35.188,91.724 C34.844,91.534 34.156,91.693 33.677,91.638 C33.284,89.899 35.729,90.685 36.7,90.642" id="Fill-51"></path>
        </g>
    </g>
</svg>
