<?xml version="1.0" encoding="UTF-8" standalone="no"?>
<svg width="218px" height="131px" viewBox="0 0 218 131" version="1.1" xmlns="http://www.w3.org/2000/svg" xmlns:xlink="http://www.w3.org/1999/xlink">
    <title>province</title>
    <defs></defs>
    <g id="Page-1" stroke="none" stroke-width="1" fill="none" fill-rule="evenodd">
        <g id="province" fill="#FFFFFF">
            <path d="M59.16,24.125 L59.16,34.378 C59.16,35.236 60.526,35.547 61.732,35.754 L61.732,24.163 C61.384,24.417 60.95,24.569 60.47,24.569 C59.97,24.569 59.508,24.399 59.16,24.125 M60.47,23.711 C61.299,23.711 61.978,22.938 61.978,21.996 C61.978,21.053 61.299,19.225 60.47,19.225 C59.641,19.225 58.962,21.053 58.962,21.996 C58.962,22.938 59.641,23.711 60.47,23.711 M54.731,43.104 L54.731,48.268 L59.518,48.268 C61.949,48.268 64.588,47.854 66.482,47.317 L66.482,41.022 L67.679,41.022 C66.784,38.468 64.673,36.536 62.081,35.99 L59.065,35.99 C56.512,36.527 54.429,38.412 53.515,40.918 L61.337,40.918 C61.337,40.918 54.985,41.428 54.731,43.104 M71.637,49.928 L49.397,49.928 L49.397,54.686 L67.961,54.686 C72.353,54.686 71.637,49.928 71.637,49.928 M73.861,55.864 L46.033,55.864 C46.033,57.362 47.55,57.984 47.55,57.984 L47.55,79.272 C47.55,79.272 47.767,85.332 43.752,89.176 C46.636,88.178 49.482,86.924 51.875,85.577 L51.875,63.685 C51.875,61.801 53.327,60.284 55.117,60.284 C56.898,60.284 58.359,61.801 58.359,63.685 L58.359,81.091 C60.008,79.705 61.506,78.245 62.873,76.719 L62.873,63.685 C62.873,61.801 64.324,60.284 66.114,60.284 C67.905,60.284 69.356,61.801 69.356,63.685 L69.356,67.323 C71.392,63.459 72.843,59.539 73.861,55.864" id="Fill-254"></path>
            <path d="M7.828,8.662 L7.828,40.844 C7.828,51.37 12.888,79.517 40.726,89.177 C36.607,85.313 36.928,79.272 36.928,79.272 L36.928,65.024 C31.669,68.285 31.745,78.405 31.745,78.405 C20.286,55.752 37.427,50.983 43.393,47.355 C49.593,43.586 47.586,37.686 47.586,37.686 C47.595,42.22 44.382,44.82 38.096,45.263 C31.66,45.715 29.417,50.946 29.417,50.946 C29.417,50.946 24.743,48.232 25.45,43.058 C25.799,43.237 32.631,45.876 34.591,38.827 C34.591,38.827 30.341,35.01 27.401,35.585 C24.46,36.16 24.291,38.62 24.291,38.62 C24.291,38.62 18.071,36.216 22.472,31.599 C20.541,32.975 18.722,31.957 18.722,31.957 C18.722,31.957 20.531,28.875 28.946,23.994 C28.871,23.844 28.833,23.626 28.861,23.448 C28.861,23.448 29.446,18.463 40.603,16.494 C49.999,14.834 60.27,19.132 61.985,8.662 L7.828,8.662 Z M30.595,25.549 C30.595,25.549 34.073,26.275 35.59,25.247 C37.107,24.211 33.771,23.712 32.357,23.551 L30.595,25.549 L30.595,25.549 Z" id="Fill-255"></path>
            <path d="M150.849,50.142 C149.577,50.142 148.54,51.218 148.54,52.556 C148.54,53.885 149.577,54.959 150.849,54.959 C152.121,54.959 153.157,53.885 153.157,52.556 C153.157,51.218 152.121,50.142 150.849,50.142 L150.849,50.142 Z M100.649,58.21 C99.82,57.955 98.897,57.851 97.87,57.851 C93.063,57.851 89.775,61.602 89.775,67.906 C89.775,74.022 92.932,77.679 98.379,77.679 C101.263,77.679 103.354,77.142 104.834,76.274 L104.834,50.746 L100.649,50.746 L100.649,58.21 Z M100.649,74.456 C100.169,74.776 99.481,74.88 98.482,74.88 C95.26,74.88 93.922,72.024 93.922,67.652 C93.922,63.572 95.156,60.32 98.793,60.32 C99.443,60.32 100.065,60.387 100.649,60.565 L100.649,74.456 Z M148.747,77.32 L152.932,77.32 L152.932,58.031 L148.747,58.031 L148.747,77.32 Z M167.001,55.986 L164.89,51.463 C164.504,50.69 163.74,50.142 162.845,50.142 C161.969,50.142 161.215,50.652 160.819,51.396 L164.701,55.986 L167.001,55.986 Z M203.988,74.636 C200.935,74.636 199.191,72.845 198.853,69.264 C203.62,69.264 208.549,68.67 210.273,67.549 C210.443,61.065 207.767,57.673 202.857,57.673 C198.023,57.673 194.97,61.319 194.97,67.614 C194.97,74.136 198.296,77.679 203.545,77.679 C206.363,77.679 208.352,77.066 209.651,76.312 L208.662,73.56 C207.663,74.098 206.118,74.636 203.988,74.636 L203.988,74.636 Z M202.726,60.358 C205.024,60.358 206.363,61.998 206.363,65.899 C204.29,66.728 201.086,67.049 198.749,67.049 C198.646,62.432 200.284,60.358 202.726,60.358 L202.726,60.358 Z M116.868,57.673 C112.033,57.673 108.98,61.319 108.98,67.614 C108.98,74.136 112.307,77.679 117.556,77.679 C120.373,77.679 122.361,77.066 123.662,76.312 L122.673,73.56 C121.674,74.098 120.128,74.636 117.998,74.636 C114.945,74.636 113.202,72.845 112.862,69.264 C117.631,69.264 122.56,68.67 124.284,67.549 C124.453,61.065 121.777,57.673 116.868,57.673 L116.868,57.673 Z M112.759,67.049 C112.655,62.432 114.295,60.358 116.735,60.358 C119.035,60.358 120.373,61.998 120.373,65.899 C118.3,66.728 115.096,67.049 112.759,67.049 L112.759,67.049 Z M165.22,57.673 C160.386,57.673 157.323,61.319 157.323,67.614 C157.323,74.136 160.659,77.679 165.908,77.679 C168.716,77.679 170.704,77.066 172.014,76.312 L171.016,73.56 C170.025,74.098 168.48,74.636 166.351,74.636 C163.298,74.636 161.554,72.845 161.205,69.264 C165.983,69.264 170.912,68.67 172.627,67.549 C172.796,61.065 170.12,57.673 165.22,57.673 L165.22,57.673 Z M161.111,67.049 C161.008,62.432 162.647,60.358 165.078,60.358 C167.378,60.358 168.716,61.998 168.716,65.899 C166.643,66.728 163.448,67.049 161.111,67.049 L161.111,67.049 Z M176.235,68.095 C176.235,73.929 179.251,77.51 183.681,77.51 C185.264,77.51 186.423,77.226 187.148,76.793 L187.148,79.488 C187.148,83.54 182.38,85.736 180.392,86.452 L181.344,89.109 C185.442,88.318 191.191,84.52 191.191,79.026 L191.191,59.077 C190.032,58.295 187.902,57.683 185.188,57.683 C179.223,57.683 176.235,61.838 176.235,68.095 L176.235,68.095 Z M187.148,74.361 C186.564,74.72 185.744,74.974 184.783,74.974 C181.692,74.974 180.392,72.571 180.392,67.888 C180.392,63.054 181.729,60.265 184.98,60.265 C185.876,60.265 186.602,60.368 187.148,60.688 L187.148,74.361 Z M138.307,68.905 L138.307,50.746 L133.915,50.746 L133.915,67.577 C133.915,74.088 137.675,77.32 142.934,77.32 L144.827,77.32 L144.827,74.277 L143.659,74.277 C140.605,74.277 138.307,72.523 138.307,68.905 L138.307,68.905 Z" id="Fill-256"></path>
            <path d="M126.895,21.47 C121.928,21.47 119.525,25.551 119.525,31.073 C119.525,36.529 121.928,40.647 126.895,40.647 C131.86,40.647 134.264,36.529 134.264,31.073 C134.264,25.551 131.889,21.47 126.895,21.47 L126.895,21.47 Z M126.895,37.801 C124.133,37.801 123.502,34.54 123.502,31.044 C123.502,27.511 124.067,24.109 126.895,24.109 C129.759,24.109 130.287,27.511 130.287,31.044 C130.287,34.54 129.759,37.801 126.895,37.801 L126.895,37.801 Z M144.855,33.749 C144.488,35.125 144.394,36.293 144.394,36.293 L144.328,36.293 C144.328,36.293 144.262,35.087 143.904,33.749 L140.775,21.809 L136.497,21.809 L142.292,40.308 L146.1,40.308 L151.791,21.809 L148.041,21.809 L144.855,33.749 Z M96.984,16.362 C94.383,16.362 92.178,16.909 90.736,17.701 L90.736,40.308 L94.816,40.308 L94.816,30.969 L95.702,31.044 C102.44,31.553 105.239,27.991 105.239,23.704 C105.239,19.51 102.808,16.362 96.984,16.362 L96.984,16.362 Z M95.674,28.472 L94.816,28.396 L94.816,19.236 C95.213,19.067 95.929,18.86 96.918,18.86 C100.009,18.86 101.225,20.471 101.225,23.666 C101.225,26.926 99.745,28.811 95.674,28.472 L95.674,28.472 Z M109.065,22.808 L109.065,40.308 L113.079,40.308 L113.079,24.693 C113.993,24.146 115.473,24.08 116.83,24.56 L117.612,21.508 C113.146,21.366 110.902,21.885 109.065,22.808 L109.065,22.808 Z M170.987,21.47 C167.99,21.47 165.72,21.989 164.042,22.808 L164.042,40.308 L168.057,40.308 L168.057,24.627 C168.811,24.316 169.508,24.109 170.817,24.109 C173.353,24.109 174.012,25.692 174.012,27.2 L174.012,40.308 L178.017,40.308 L178.017,27.133 C178.017,24.146 176.283,21.47 170.987,21.47 L170.987,21.47 Z M189.966,37.631 C187.507,37.631 186.149,35.021 186.149,30.94 C186.149,26.889 187.309,24.316 190.032,24.316 C191.182,24.316 191.907,24.693 192.407,25.108 L193.255,22.742 C192.604,22.158 191.313,21.47 189.146,21.47 C185.198,21.47 182.106,24.863 182.106,31.007 C182.106,37.113 185.065,40.647 189.108,40.647 C191.248,40.647 192.567,40.062 193.293,39.375 L192.369,36.802 C191.813,37.283 191.06,37.631 189.966,37.631 L189.966,37.631 Z M155.155,40.308 L159.17,40.308 L159.17,21.819 L155.155,21.819 L155.155,40.308 Z M157.153,14.27 C155.947,14.27 154.958,15.298 154.958,16.56 C154.958,17.832 155.947,18.86 157.153,18.86 C158.369,18.86 159.358,17.832 159.358,16.56 C159.358,15.298 158.369,14.27 157.153,14.27 L157.153,14.27 Z M204.252,37.735 C201.321,37.735 199.644,36.02 199.323,32.59 C203.903,32.59 208.624,32.015 210.273,30.94 C210.434,24.73 207.871,21.47 203.168,21.47 C198.532,21.47 195.602,24.966 195.602,31.007 C195.602,37.255 198.786,40.647 203.818,40.647 C206.523,40.647 208.427,40.062 209.68,39.347 L208.729,36.699 C207.767,37.217 206.287,37.735 204.252,37.735 L204.252,37.735 Z M203.036,24.042 C205.241,24.042 206.523,25.626 206.523,29.357 C204.535,30.159 201.463,30.46 199.229,30.46 C199.126,26.031 200.699,24.042 203.036,24.042 L203.036,24.042 Z" id="Fill-257"></path>
            <path d="M101.343,121.308 C99.929,122.071 98.497,122.41 96.574,122.41 C92.871,122.41 90.016,119.809 90.016,114.551 C90.016,108.973 93.172,105.994 97.281,105.994 C98.968,105.994 100.004,106.286 101.295,106.843 L100.485,108.755 C99.505,108.312 98.647,107.973 97.253,107.973 C94.604,107.973 92.183,110.102 92.183,113.995 C92.183,118.386 93.7,120.469 97.403,120.469 C98.619,120.469 99.731,119.97 100.636,119.546 L101.343,121.308" id="Fill-258"></path>
            <path d="M111.228,122.333 L111.03,120.911 L111.002,120.911 C110.115,121.777 108.985,122.409 107.496,122.409 C105.498,122.409 103.915,121.071 103.915,118.545 L103.915,112.655 L103.557,109.942 L105.932,109.602 L105.932,117.81 C105.932,119.62 106.563,120.571 108.175,120.571 C109.314,120.571 110.115,120.071 110.851,119.365 L110.851,112.655 L110.493,109.942 L112.867,109.602 L112.867,119.28 L113.216,121.994 L111.228,122.333" id="Fill-259"></path>
            <polyline id="Fill-260" points="116.501 104.496 116.85 107.21 116.85 122.118 118.866 122.118 118.866 104.157 116.501 104.496"></polyline>
            <path d="M128.757,121.624 C128.021,122.049 127.343,122.388 126.062,122.388 C124.242,122.388 123.084,121.153 123.084,119.042 L123.084,111.522 L121.34,111.522 L121.34,110.128 L123.084,109.76 L123.084,107.706 L125.072,107.442 L125.072,109.816 L128.38,109.816 L128.38,111.522 L125.072,111.522 L125.072,118.335 C125.072,120.022 125.449,120.522 126.636,120.522 C127.268,120.522 127.72,120.258 128.097,120.022 L128.757,121.624" id="Fill-261"></path>
            <path d="M138.768,122.333 L138.57,120.911 L138.542,120.911 C137.656,121.777 136.525,122.409 135.036,122.409 C133.038,122.409 131.455,121.071 131.455,118.545 L131.455,112.655 L131.098,109.942 L133.472,109.602 L133.472,117.81 C133.472,119.62 134.104,120.571 135.715,120.571 C136.855,120.571 137.656,120.071 138.391,119.365 L138.391,112.655 L138.033,109.942 L140.407,109.602 L140.407,119.28 L140.757,121.994 L138.768,122.333" id="Fill-262"></path>
            <path d="M149.739,111.627 C148.354,111.627 147.364,111.994 146.459,112.861 L146.459,122.125 L144.442,122.125 L144.442,112.654 L144.085,109.94 L146.083,109.6 L146.28,111.288 L146.309,111.288 C147.119,110.336 148.146,109.545 149.739,109.545 L149.739,111.627" id="Fill-263"></path>
            <path d="M160.104,121.466 C158.974,122.125 157.806,122.408 156.373,122.408 C152.867,122.408 151.096,119.996 151.096,115.887 C151.096,112.07 153.019,109.526 155.996,109.526 C158.842,109.526 160.001,111.495 160.001,114.2 L160.001,115.68 L153.065,115.68 C153.094,118.969 154.206,120.542 156.797,120.542 C157.787,120.542 158.513,120.259 159.398,119.808 L160.104,121.466 Z M158.116,114.2 C158.116,112.334 157.485,111.203 155.893,111.203 C154.375,111.203 153.442,112.419 153.169,114.2 L158.116,114.2 L158.116,114.2 Z" id="Fill-264"></path>
            <polygon id="Fill-265" points="81.536 130.088 82.799 130.088 82.799 0.741 81.536 0.741"></polygon>
            <polygon id="Fill-266" points="0.23 98.086 217.866 98.086 217.866 96.767 0.23 96.767"></polygon>
        </g>
    </g>
</svg>
