<?xml version="1.0" encoding="UTF-8" standalone="no"?>
<svg width="173px" height="84px" viewBox="0 0 173 84" version="1.1" xmlns="http://www.w3.org/2000/svg" xmlns:xlink="http://www.w3.org/1999/xlink">
    <title>ravi</title>
    <defs></defs>
    <g id="Page-1" stroke="none" stroke-width="1" fill="none" fill-rule="evenodd">
        <g id="ravi" fill="#FFFFFF">
            <path d="M118.963,60.662 C124.663,44.872 129.103,29.447 134.809,14.201 C133.246,14.106 131.38,13.993 129.331,13.869 C129.331,9.765 129.331,5.649 129.331,1.5 C133.237,0.772 157.87,0.558 172.973,1.161 C172.973,5.263 172.973,9.381 172.973,13.961 C165.259,14.06 157.353,13.953 149.407,14.018 C141.514,37.38 133.668,60.602 125.792,83.913 C121.706,83.913 117.59,83.913 113.39,83.913 C103.957,56.463 94.539,29.061 84.998,1.299 C89.642,0.643 94.202,1.184 98.7,0.982 C105.38,20.655 112.023,40.221 118.963,60.662" id="Fill-299"></path>
            <path d="M35.418,75 C31.944,65.204 28.528,55.626 25.18,46.024 C24.921,45.281 25.146,44.37 25.146,43.341 C36.058,39.516 41.095,31.598 40.09,20.119 C39.232,10.323 33.174,4.621 24.173,1.647 C24.288,1.454 24.336,1.312 24.433,1.225 C24.544,1.125 24.7,1.009 24.836,1.009 C39.478,0.999 54.12,1 69.1,1 C68.388,3.646 67.842,6.155 67.037,8.578 C65.139,14.282 63.289,20.012 61.107,25.608 C57.628,34.53 54.807,43.662 51.859,52.76 C49.721,59.359 47.301,65.869 45.209,72.482 C44.685,74.139 44.092,75.049 42.307,75.011 C40.143,74.965 37.977,75 35.418,75" id="Fill-300"></path>
            <path d="M96.264,74.907 C94.466,74.907 93.015,74.907 91.215,74.907 C91.215,77.634 91.215,80.219 91.215,82.89 C78.764,82.89 66.66,82.89 54.098,82.89 C54.935,80.23 55.713,77.65 56.561,75.094 C58.404,69.536 60.277,63.988 62.151,58.441 C62.446,57.567 62.791,56.71 63.151,55.86 C63.71,54.541 64.626,53.952 66.16,53.968 C73.148,54.041 80.137,54.042 87.124,53.971 C88.907,53.953 89.687,54.708 90.175,56.342 C91.762,61.654 93.583,66.891 95.655,72.038 C95.985,72.859 96.036,73.792 96.264,74.907" id="Fill-301"></path>
            <path d="M160.134,18.095 C164.569,18.095 168.683,18.095 172.971,18.095 C172.971,39.695 172.971,61.24 172.971,82.893 C166.75,82.893 160.638,82.893 154.336,82.893 C154.336,80.449 154.336,78 154.336,75.189 C156.012,75.095 157.913,74.988 160.134,74.863 C160.134,55.954 160.134,37.07 160.134,18.095" id="Fill-302"></path>
            <path d="M23.99,82.882 C18.113,82.882 12.342,82.882 6.225,82.882 C6.225,80.375 6.225,77.795 6.225,75.064 C4.104,75.064 2.322,75.064 0.343,75.064 C0.343,65.016 0.343,55.136 0.343,45 C3.507,45 6.631,45.015 9.754,44.993 C11.136,44.984 11.768,45.821 12.144,46.976 C15.148,56.198 18.136,65.426 21.152,74.643 C22.013,77.271 22.951,79.873 23.99,82.882" id="Fill-303"></path>
            <path d="M0.146,22.706 C0.146,20.048 0.096,17.388 0.164,14.731 C0.209,12.943 1.053,12.044 2.78,12.019 C7.099,11.959 11.462,11.631 15.724,12.126 C18.708,12.473 21.832,13.291 24.444,15.03 C26.64,16.492 28.178,18.494 28.149,21.344 C28.132,23.005 28.355,24.702 28.081,26.317 C27.855,27.641 27.397,29.304 26.442,30.051 C24.018,31.95 21.401,33.875 18.14,33.964 C13.16,34.1 8.172,34.028 3.188,33.987 C1.031,33.969 0.212,33.211 0.163,31.179 C0.095,28.356 0.146,25.53 0.146,22.706" id="Fill-304"></path>
            <path d="M85.378,42.988 C79.276,42.988 73.949,42.988 68.633,42.988 C67.12,41.314 68.77,39.95 69.209,38.611 C71.462,31.731 73.925,24.92 76.31,18.097 C78.329,18.672 77.865,20.32 78.308,21.6 C80.323,27.422 82.53,33.176 84.592,38.98 C85.001,40.133 85.078,41.402 85.378,42.988" id="Fill-305"></path>
        </g>
    </g>
</svg>
