<?xml version="1.0" encoding="UTF-8" standalone="no"?>
<svg width="132px" height="189px" viewBox="0 0 132 189" version="1.1" xmlns="http://www.w3.org/2000/svg" xmlns:xlink="http://www.w3.org/1999/xlink">
    <title>st-leonard</title>
    <defs></defs>
    <g id="Page-1" stroke="none" stroke-width="1" fill="none" fill-rule="evenodd">
        <g id="st-leonard" fill="#FFFFFF">
            <path d="M88,22.445 C69.59,59.773 125.34,62.243 119.05,31.157 C118.33,27.621 114.75,21.965 109.24,21.578 C97.1,20.72 96.69,42.5 107.61,33.769 C108.21,30.215 102.31,33.609 103.52,29.413 C114.94,16.365 121.46,48.261 101.89,45.97 C94.53,45.112 88.78,36.145 91.27,25.934 C92.5,20.862 100.9,14.847 106.79,14.601 C126.69,13.771 133.84,42.265 119.05,54.681 C118.02,59.641 131.13,64.364 131.3,68.626 C131.52,74.057 120.34,77.517 117.42,83.438 C120.03,90.235 122.6,90.65 123.95,94.762 C128.37,108.291 116.86,126.685 101.08,123.517 C96.54,122.612 89.71,117.173 88.82,110.45 C87.54,100.852 92.92,89.557 105.16,93.026 C115.3,95.902 114.1,119.454 101.89,110.45 C100.81,104.152 104.91,108.564 105.97,105.218 C95.8,95.544 93.2,116.975 106.79,116.551 C113.41,116.343 116.9,110.063 117.42,106.094 C121.4,75.188 66.86,82.061 85.55,114.806 C79.13,122.481 72.23,129.656 65.13,136.586 C57.15,130.278 51.66,121.321 43.88,114.806 C51,102.643 47.28,86.304 34.08,84.306 C21.75,82.438 8.94,93.63 13.65,107.838 C16.17,115.457 33.66,118.398 33.26,106.962 C33.08,101.88 28.83,98.985 24.27,102.605 C23.37,108.716 28.74,102.945 28.36,107.838 C19.87,122.066 12.33,94.309 24.27,92.149 C37.48,89.887 44.11,101.53 40.61,112.194 C35.67,127.224 10.3,124.97 5.48,107.838 C2.82,98.382 7.23,90.858 12.84,82.57 C9.09,77.555 5.26,72.642 0.58,68.626 C5.19,63.666 10.43,59.377 14.47,53.814 C1.92,43.791 6.59,16.346 23.45,13.734 C31.31,12.517 41.24,17.147 43.06,25.058 C45.79,36.899 38.14,45.998 29.18,45.102 C13.41,43.518 20.86,13.743 30.81,27.679 C31.41,31.224 28.12,30.62 26.72,32.035 C26.74,37.305 33.51,35.598 34.89,32.902 C35.94,14.592 15.3,20.013 14.47,32.902 C12.61,61.611 63.49,55.719 46.33,23.313 C51.46,13.96 60.9,9.227 66.76,0.666 C74.99,6.691 81.13,14.96 88,22.445 M66.76,3.278 C61.44,9.812 55.57,15.742 49.6,21.578 C66.19,59.057 12.75,65.335 12.02,35.514 C11.61,19.023 34.32,12.263 37.34,27.679 C39.26,37.484 26.8,43.933 24.27,32.035 C24.54,27.971 28.45,30.404 28.36,27.679 C26.2,24.859 23.11,28.414 21.82,29.413 C21.21,48.506 41.83,42.717 40.61,28.546 C38.86,8.086 11.05,17.062 9.56,32.902 C8.73,41.896 18.73,51.806 18.55,53.814 C18.27,56.991 4.44,65.062 3.84,67.759 C5.47,75.386 17.13,78.148 16.92,83.438 C16.85,85.041 9.55,90.622 8.74,93.026 C4.4,106.17 12.27,118.954 22.64,120.029 C40.78,121.915 44.34,88.558 21.82,97.383 C18.03,101.475 20.89,114.664 26.72,107.838 C24.61,107.499 22.44,107.272 21.82,103.482 C25.73,93.356 35.85,99.928 35.71,106.962 C35.39,123.047 12.46,117.183 10.38,106.094 C3.52,69.436 68.56,77.8 47.15,114.806 C51.79,116.691 60.02,134.21 65.13,133.975 C66.83,133.898 72.49,126.035 74.11,124.394 C77.78,120.651 81.36,118.068 83.1,113.938 C69.71,88.652 102.99,71.888 116.6,92.149 C124.2,103.492 116.09,122.962 101.89,118.295 C87,113.392 98.81,88.831 107.61,104.35 C108.75,109.055 103.77,107.225 103.52,110.45 C114.86,113.995 110.87,92.602 97.8,96.506 C90.47,98.702 90.89,112.166 94.53,116.551 C107.3,131.899 128.48,109.243 120.68,93.026 C119.63,90.839 113.17,87.435 113.32,84.306 C113.59,79.016 126.5,75.301 128.03,68.626 C123.21,64.185 119.24,58.839 114.96,53.814 C121.78,48.553 124.77,43.443 124.77,36.39 C124.77,7.106 84.93,16.412 94.53,37.258 C101.68,52.758 123.52,28.537 105.97,28.546 C105.98,31.733 110.77,29.819 110.06,33.769 C99.18,54.003 87.35,16.779 110.06,19.834 C117.13,20.777 120.59,27.49 121.5,31.157 C129.95,65.543 65.43,63.261 85.55,22.445 C78.48,16.92 74.71,7.87 66.76,3.278" id="Fill-222"></path>
            <path d="M17.25,167.785 C15.34,167.785 13.71,165.514 13.71,161.432 C13.71,157.546 15.21,154.963 17.3,154.963 C18.01,154.963 18.54,155.151 19.16,155.661 L18.5,157.122 C18.11,156.802 17.76,156.613 17.3,156.613 C16.28,156.613 15.42,158.291 15.42,161.28 C15.42,164.476 16.31,166.126 17.39,166.126 C17.83,166.126 18.17,165.937 18.52,165.627 L19.13,167.069 C18.5,167.588 17.92,167.785 17.25,167.785" id="Fill-224"></path>
            <path d="M22.04,167.768 C20.47,167.768 19.5,166.185 19.5,163.677 C19.5,161.452 20.42,159.604 22.01,159.604 C23.59,159.604 24.54,161.217 24.54,163.696 C24.54,165.949 23.64,167.768 22.04,167.768 M22.01,160.98 C21.3,160.98 21.01,162.112 21.01,163.677 C21.01,165.355 21.33,166.392 22.04,166.392 C22.76,166.392 23.03,165.252 23.03,163.696 C23.03,162.009 22.73,160.98 22.01,160.98" id="Fill-225"></path>
            <path d="M27.79,167.768 C26.22,167.768 25.25,166.185 25.25,163.677 C25.25,161.452 26.17,159.604 27.76,159.604 C29.34,159.604 30.29,161.217 30.29,163.696 C30.29,165.949 29.38,167.768 27.79,167.768 M27.76,160.98 C27.05,160.98 26.75,162.112 26.75,163.677 C26.75,165.355 27.07,166.392 27.79,166.392 C28.51,166.392 28.78,165.252 28.78,163.696 C28.78,162.009 28.48,160.98 27.76,160.98" id="Fill-226"></path>
            <path d="M32.78,162.013 L32.78,167.603 L31.25,167.603 L31.25,159.788 L32.73,159.788 L32.73,161.117 C33.14,160.278 33.62,159.637 34.49,159.637 L34.49,161.522 C33.63,161.352 33.12,161.484 32.78,162.013" id="Fill-227"></path>
            <path d="M38.2,167.599 L38.2,166.986 C37.86,167.383 37.37,167.75 36.82,167.75 C35.73,167.75 34.78,166.431 34.78,163.781 C34.78,161.282 35.83,159.632 36.93,159.632 C37.41,159.632 37.77,159.802 38.13,160.142 L38.13,155.154 L39.66,155.154 L39.66,167.599 L38.2,167.599 Z M38.13,161.282 C37.9,161.075 37.71,160.962 37.39,160.962 C36.79,160.962 36.29,161.857 36.29,163.781 C36.29,165.779 36.75,166.374 37.37,166.374 C37.67,166.374 37.92,166.241 38.13,166.006 L38.13,161.282 L38.13,161.282 Z" id="Fill-228"></path>
            <path d="M41.63,158.633 C41.09,158.633 40.69,158.105 40.69,157.549 C40.69,156.965 41.09,156.465 41.63,156.465 C42.17,156.465 42.57,156.965 42.57,157.549 C42.57,158.105 42.17,158.633 41.63,158.633 L41.63,158.633 Z M40.86,167.6 L42.39,167.6 L42.39,159.783 L40.86,159.783 L40.86,167.6 Z" id="Fill-229"></path>
            <path d="M46.82,167.599 L46.82,161.857 C46.82,161.329 46.63,161.047 46.2,161.047 C45.78,161.047 45.45,161.31 45.13,161.754 L45.13,167.599 L43.6,167.599 L43.6,159.783 L45.08,159.783 L45.08,160.905 C45.55,160.113 46.17,159.604 46.91,159.604 C47.92,159.604 48.35,160.415 48.35,161.537 L48.35,167.599 L46.82,167.599" id="Fill-230"></path>
            <path d="M52.34,167.599 L52.34,166.788 C52.01,167.325 51.47,167.75 50.85,167.75 C49.96,167.75 49.2,166.835 49.2,165.242 C49.2,163.8 49.94,162.658 51.07,162.658 C51.56,162.658 51.98,162.828 52.28,163.13 L52.28,162.084 C52.28,161.386 51.96,161.075 51.29,161.075 C50.84,161.075 50.4,161.179 49.94,161.386 L49.75,159.991 C50.32,159.755 50.91,159.604 51.54,159.604 C52.98,159.604 53.78,160.264 53.78,162.009 L53.78,167.599 L52.34,167.599 Z M52.28,164.054 C52.06,163.865 51.86,163.743 51.54,163.743 C51.07,163.743 50.68,164.168 50.68,165.12 C50.68,166.024 51.07,166.458 51.53,166.458 C51.86,166.458 52.09,166.241 52.28,166.006 L52.28,164.054 L52.28,164.054 Z" id="Fill-231"></path>
            <path d="M56.82,161.213 L56.82,165.494 C56.82,166.05 57,166.238 57.4,166.238 C57.6,166.238 57.77,166.21 57.95,166.173 L58.04,167.53 C57.6,167.662 57.26,167.719 56.89,167.719 C55.82,167.719 55.29,167.143 55.29,165.899 L55.29,161.213 L54.42,161.213 L54.42,160.384 L55.29,159.724 L55.29,158.686 L56.82,157.498 L56.82,159.79 L58.09,159.79 L58.09,161.213 L56.82,161.213" id="Fill-232"></path>
            <path d="M59.61,158.633 C59.07,158.633 58.66,158.105 58.66,157.549 C58.66,156.965 59.07,156.465 59.61,156.465 C60.14,156.465 60.55,156.965 60.55,157.549 C60.55,158.105 60.14,158.633 59.61,158.633 L59.61,158.633 Z M58.84,167.6 L60.37,167.6 L60.37,159.783 L58.84,159.783 L58.84,167.6 Z" id="Fill-233"></path>
            <path d="M63.87,167.768 C62.3,167.768 61.33,166.185 61.33,163.677 C61.33,161.452 62.25,159.604 63.84,159.604 C65.42,159.604 66.37,161.217 66.37,163.696 C66.37,165.949 65.47,167.768 63.87,167.768 M63.84,160.98 C63.13,160.98 62.83,162.112 62.83,163.677 C62.83,165.355 63.16,166.392 63.87,166.392 C64.59,166.392 64.86,165.252 64.86,163.696 C64.86,162.009 64.56,160.98 63.84,160.98" id="Fill-234"></path>
            <path d="M70.54,167.599 L70.54,161.857 C70.54,161.329 70.36,161.047 69.92,161.047 C69.51,161.047 69.18,161.31 68.86,161.754 L68.86,167.599 L67.33,167.599 L67.33,159.783 L68.81,159.783 L68.81,160.905 C69.27,160.113 69.89,159.604 70.64,159.604 C71.65,159.604 72.07,160.415 72.07,161.537 L72.07,167.599 L70.54,167.599" id="Fill-235"></path>
            <path d="M81.17,160.585 L81.17,167.025 C80.57,167.553 79.76,167.789 79,167.789 C76.82,167.789 75.37,165.526 75.37,161.396 C75.37,157.475 76.87,154.967 79.06,154.967 C79.89,154.967 80.68,155.352 81.17,155.899 L80.43,157.342 C80.01,156.918 79.62,156.616 79.06,156.616 C77.93,156.616 77.07,158.228 77.07,161.33 C77.07,164.611 77.87,166.205 79.08,166.205 C79.3,166.205 79.46,166.177 79.6,166.092 L79.6,162.197 L78.37,162.197 L78.37,160.585 L81.17,160.585" id="Fill-236"></path>
            <path d="M86.85,164.236 L83.61,164.236 C83.61,165.491 84.1,166.377 85.09,166.377 C85.48,166.377 85.91,166.207 86.41,165.972 L86.61,167.264 C85.97,167.612 85.45,167.772 84.88,167.772 C83.15,167.772 82.13,166.358 82.13,163.709 C82.13,161.483 83.08,159.599 84.67,159.599 C86.15,159.599 86.9,161.229 86.9,163.369 C86.9,163.624 86.88,163.963 86.85,164.236 L86.85,164.236 Z M85.55,163.162 C85.53,161.908 85.25,160.975 84.67,160.975 C84.1,160.975 83.71,161.72 83.65,163.162 L85.55,163.162 Z M84.35,159.07 L83.86,158.382 L85.99,156.354 L86.78,157.609 L84.35,159.07 L84.35,159.07 Z" id="Fill-237"></path>
            <path d="M91.05,167.599 L91.05,161.857 C91.05,161.329 90.87,161.047 90.43,161.047 C90.02,161.047 89.69,161.31 89.37,161.754 L89.37,167.599 L87.84,167.599 L87.84,159.783 L89.32,159.783 L89.32,160.905 C89.78,160.113 90.4,159.604 91.15,159.604 C92.16,159.604 92.58,160.415 92.58,161.537 L92.58,167.599 L91.05,167.599" id="Fill-238"></path>
            <path d="M98.22,164.236 L94.98,164.236 C94.97,165.491 95.46,166.377 96.46,166.377 C96.85,166.377 97.28,166.207 97.78,165.972 L97.98,167.264 C97.34,167.612 96.82,167.772 96.25,167.772 C94.52,167.772 93.5,166.358 93.5,163.709 C93.5,161.483 94.45,159.599 96.04,159.599 C97.52,159.599 98.27,161.229 98.27,163.369 C98.27,163.624 98.25,163.963 98.22,164.236 L98.22,164.236 Z M96.92,163.162 C96.9,161.908 96.63,160.975 96.04,160.975 C95.46,160.975 95.08,161.72 95.02,163.162 L96.92,163.162 Z M95.72,159.07 L95.23,158.382 L97.36,156.354 L98.15,157.609 L95.72,159.07 L95.72,159.07 Z" id="Fill-239"></path>
            <path d="M100.74,162.013 L100.74,167.603 L99.21,167.603 L99.21,159.788 L100.69,159.788 L100.69,161.117 C101.1,160.278 101.58,159.637 102.45,159.637 L102.45,161.522 C101.59,161.352 101.08,161.484 100.74,162.013" id="Fill-240"></path>
            <path d="M105.73,167.599 L105.73,166.788 C105.4,167.325 104.86,167.75 104.24,167.75 C103.35,167.75 102.58,166.835 102.58,165.242 C102.58,163.8 103.33,162.658 104.46,162.658 C104.95,162.658 105.37,162.828 105.67,163.13 L105.67,162.084 C105.67,161.386 105.35,161.075 104.69,161.075 C104.22,161.075 103.79,161.179 103.33,161.386 L103.14,159.991 C103.71,159.755 104.3,159.604 104.94,159.604 C106.38,159.604 107.17,160.264 107.17,162.009 L107.17,167.599 L105.73,167.599 Z M105.67,164.054 C105.45,163.865 105.25,163.743 104.94,163.743 C104.46,163.743 104.07,164.168 104.07,165.12 C104.07,166.024 104.46,166.458 104.92,166.458 C105.25,166.458 105.48,166.241 105.67,166.006 L105.67,164.054 L105.67,164.054 Z" id="Fill-241"></path>
            <polygon id="Fill-242" points="108.33 167.595 109.85 167.595 109.85 155.149 108.33 155.149"></polygon>
            <path d="M115.53,164.236 L112.29,164.236 C112.28,165.491 112.77,166.377 113.76,166.377 C114.16,166.377 114.58,166.207 115.08,165.972 L115.29,167.264 C114.65,167.612 114.12,167.772 113.56,167.772 C111.83,167.772 110.81,166.358 110.81,163.709 C110.81,161.483 111.76,159.599 113.35,159.599 C114.83,159.599 115.58,161.229 115.58,163.369 C115.58,163.624 115.56,163.963 115.53,164.236 M114.23,163.162 C114.21,161.908 113.93,160.975 113.35,160.975 C112.77,160.975 112.39,161.72 112.33,163.162 L114.23,163.162" id="Fill-243"></path>
            <path d="M42.31,188.163 C41.43,188.163 40.46,187.758 39.63,187.126 L40.23,185.57 C40.85,186.08 41.55,186.504 42.2,186.504 C43.01,186.504 43.38,185.919 43.38,185.042 C43.38,184.109 42.87,183.439 41.77,182.167 C40.67,180.893 39.88,179.838 39.88,178.471 C39.88,176.765 41.01,175.341 42.61,175.341 C43.57,175.341 44.21,175.661 44.9,176.171 L44.27,177.773 C43.68,177.265 43.25,176.99 42.66,176.99 C41.98,176.99 41.55,177.547 41.55,178.367 C41.55,179.179 42.09,179.838 43.08,180.932 C44.27,182.289 45.06,183.392 45.06,184.92 C45.06,186.759 43.98,188.163 42.31,188.163" id="Fill-244"></path>
            <path d="M47.77,181.591 L47.77,185.872 C47.77,186.428 47.95,186.616 48.37,186.616 C48.56,186.616 48.73,186.588 48.91,186.55 L49,187.908 C48.56,188.05 48.22,188.097 47.85,188.097 C46.77,188.097 46.25,187.521 46.25,186.276 L46.25,181.591 L45.37,181.591 L45.37,180.762 L46.25,180.101 L46.25,179.064 L47.77,177.876 L47.77,180.168 L49.05,180.168 L49.05,181.591 L47.77,181.591" id="Fill-245"></path>
            <polygon id="Fill-246" points="49.58 184.133 51.93 184.133 51.93 182.709 49.58 182.709"></polygon>
            <polyline id="Fill-247" points="53.17 175.531 53.17 187.976 57.49 187.976 57.49 186.337 54.82 186.337 54.82 175.531 53.17 175.531"></polyline>
            <path d="M62.6,184.614 L59.37,184.614 C59.36,185.869 59.85,186.755 60.84,186.755 C61.23,186.755 61.66,186.585 62.16,186.35 L62.36,187.642 C61.72,187.99 61.19,188.149 60.63,188.149 C58.9,188.149 57.88,186.736 57.88,184.087 C57.88,181.861 58.83,179.975 60.42,179.975 C61.9,179.975 62.65,181.606 62.65,183.747 C62.65,184.002 62.63,184.341 62.6,184.614 L62.6,184.614 Z M61.3,183.54 C61.28,182.286 61.01,181.352 60.42,181.352 C59.85,181.352 59.46,182.098 59.4,183.54 L61.3,183.54 Z M60.1,179.447 L59.61,178.76 L61.74,176.732 L62.53,177.986 L60.1,179.447 L60.1,179.447 Z" id="Fill-248"></path>
            <path d="M65.88,188.147 C64.31,188.147 63.33,186.563 63.33,184.056 C63.33,181.83 64.26,179.982 65.85,179.982 C67.43,179.982 68.38,181.595 68.38,184.074 C68.38,186.327 67.47,188.147 65.88,188.147 M65.85,181.35 C65.13,181.35 64.84,182.49 64.84,184.056 C64.84,185.733 65.16,186.77 65.88,186.77 C66.6,186.77 66.87,185.63 66.87,184.074 C66.87,182.387 66.57,181.35 65.85,181.35" id="Fill-249"></path>
            <path d="M72.55,187.976 L72.55,182.234 C72.55,181.706 72.36,181.424 71.93,181.424 C71.52,181.424 71.19,181.687 70.86,182.131 L70.86,187.976 L69.34,187.976 L69.34,180.16 L70.82,180.16 L70.82,181.282 C71.28,180.49 71.9,179.981 72.65,179.981 C73.66,179.981 74.08,180.792 74.08,181.914 L74.08,187.976 L72.55,187.976" id="Fill-250"></path>
            <path d="M78.08,187.976 L78.08,187.165 C77.75,187.703 77.2,188.128 76.58,188.128 C75.69,188.128 74.93,187.213 74.93,185.619 C74.93,184.177 75.67,183.036 76.8,183.036 C77.29,183.036 77.71,183.205 78.01,183.507 L78.01,182.461 C78.01,181.763 77.7,181.452 77.03,181.452 C76.57,181.452 76.13,181.556 75.67,181.763 L75.48,180.368 C76.06,180.132 76.64,179.981 77.29,179.981 C78.72,179.981 79.51,180.642 79.51,182.386 L79.51,187.976 L78.08,187.976 Z M78.01,184.432 C77.79,184.242 77.6,184.12 77.29,184.12 C76.8,184.12 76.41,184.545 76.41,185.497 C76.41,186.401 76.8,186.836 77.27,186.836 C77.6,186.836 77.82,186.618 78.01,186.383 L78.01,184.432 L78.01,184.432 Z" id="Fill-251"></path>
            <path d="M82.2,182.389 L82.2,187.98 L80.67,187.98 L80.67,180.164 L82.15,180.164 L82.15,181.493 C82.57,180.654 83.04,180.014 83.92,180.014 L83.92,181.899 C83.06,181.729 82.55,181.861 82.2,182.389" id="Fill-252"></path>
            <path d="M87.63,187.976 L87.63,187.364 C87.28,187.76 86.78,188.128 86.24,188.128 C85.16,188.128 84.21,186.808 84.21,184.158 C84.21,181.659 85.25,180.01 86.36,180.01 C86.84,180.01 87.2,180.179 87.55,180.518 L87.55,175.531 L89.08,175.531 L89.08,187.976 L87.63,187.976 Z M87.55,181.659 C87.33,181.452 87.14,181.339 86.82,181.339 C86.22,181.339 85.72,182.234 85.72,184.158 C85.72,186.156 86.18,186.751 86.8,186.751 C87.09,186.751 87.35,186.618 87.55,186.383 L87.55,181.659 L87.55,181.659 Z" id="Fill-253"></path>
        </g>
    </g>
</svg>
