<?xml version="1.0" encoding="UTF-8" standalone="no"?>
<svg width="214px" height="72px" viewBox="0 0 214 72" version="1.1" xmlns="http://www.w3.org/2000/svg" xmlns:xlink="http://www.w3.org/1999/xlink">
    <title>vervinckt</title>
    <defs></defs>
    <g id="Page-1" stroke="none" stroke-width="1" fill="none" fill-rule="evenodd">
        <g id="vervinckt" fill="#FFFFFF">
            <path d="M51.244,29.297 C44.776,31.082 46.56,27.739 34.522,36.657 L44.554,19.043 C44.554,19.043 46.56,15.474 51.687,15.922 C56.819,16.366 61.781,26.393 51.244,29.297 M50.352,1.207 C39.205,0.536 32.072,11.91 32.072,11.91 L15.35,41.562 L15.35,0.758 L0.856,0.758 L0.856,70.988 L14.901,71.21 C14.901,71.21 31.401,42.898 30.731,44.456 C30.065,46.019 29.364,48.134 29.395,49.361 C29.421,50.589 29.395,71.432 29.395,71.432 L43.662,71.432 C43.662,71.432 43.744,50.336 43.744,47.886 C44.08,46.632 43.079,45.044 49.459,43.564 C62.529,43.76 71.086,34.424 71.53,22.385 C71.989,9.908 61.498,1.877 50.352,1.207" id="Fill-1"></path>
            <path d="M82.419,63.486 L82.96,66.204 C83.079,66.88 83.218,67.607 83.327,68.366 L83.363,68.366 C83.486,67.623 83.687,66.865 83.837,66.215 L84.539,63.486 L86.164,63.486 L86.824,66.122 C87.014,66.88 87.19,67.607 87.313,68.366 L87.339,68.366 C87.432,67.623 87.566,66.865 87.731,66.107 L88.283,63.486 L90.3,63.486 L88.273,70.094 L86.354,70.094 L85.73,67.783 C85.555,67.133 85.431,66.54 85.297,65.715 L85.271,65.715 C85.148,66.54 85.013,67.164 84.853,67.773 L84.188,70.094 L82.259,70.094 L80.325,63.486 L82.419,63.486" id="Fill-2"></path>
            <path d="M93.598,63.486 L94.14,66.204 C94.258,66.88 94.397,67.607 94.506,68.366 L94.542,68.366 C94.665,67.623 94.867,66.865 95.017,66.215 L95.718,63.486 L97.343,63.486 L98.003,66.122 C98.194,66.88 98.369,67.607 98.493,68.366 L98.519,68.366 C98.611,67.623 98.746,66.865 98.911,66.107 L99.462,63.486 L101.479,63.486 L99.452,70.094 L97.533,70.094 L96.909,67.783 C96.734,67.133 96.61,66.54 96.476,65.715 L96.45,65.715 C96.327,66.54 96.192,67.164 96.032,67.773 L95.367,70.094 L93.438,70.094 L91.504,63.486 L93.598,63.486" id="Fill-3"></path>
            <path d="M104.778,63.486 L105.319,66.204 C105.438,66.88 105.577,67.607 105.686,68.366 L105.722,68.366 C105.845,67.623 106.046,66.865 106.196,66.215 L106.897,63.486 L108.522,63.486 L109.183,66.122 C109.374,66.88 109.549,67.607 109.672,68.366 L109.698,68.366 C109.791,67.623 109.925,66.865 110.09,66.107 L110.642,63.486 L112.659,63.486 L110.632,70.094 L108.708,70.094 L108.089,67.783 C107.914,67.133 107.79,66.54 107.656,65.715 L107.63,65.715 C107.506,66.54 107.372,67.164 107.212,67.773 L106.547,70.094 L104.618,70.094 L102.684,63.486 L104.778,63.486" id="Fill-4"></path>
            <path d="M114.93,70.244 C114.239,70.244 113.739,69.717 113.739,69 C113.739,68.258 114.239,67.742 114.956,67.742 C115.657,67.742 116.147,68.243 116.158,69 C116.158,69.717 115.673,70.244 114.945,70.244 L114.93,70.244" id="Fill-5"></path>
            <path d="M119.837,63.486 L120.729,66.556 C120.889,67.107 120.997,67.633 121.105,68.165 L121.147,68.165 C121.255,67.623 121.363,67.122 121.513,66.556 L122.364,63.486 L124.525,63.486 L122.065,70.094 L120.012,70.094 L117.608,63.486 L119.837,63.486" id="Fill-6"></path>
            <path d="M127.718,67.432 C127.785,68.299 128.626,68.701 129.585,68.701 C130.287,68.701 130.854,68.608 131.406,68.417 L131.679,69.81 C131.003,70.094 130.178,70.228 129.286,70.228 C127.042,70.228 125.758,68.933 125.758,66.85 C125.758,65.179 126.81,63.327 129.095,63.327 C131.23,63.327 132.041,64.987 132.041,66.622 C132.041,66.973 132.004,67.283 131.973,67.448 L127.718,67.432 Z M130.137,66.029 C130.137,65.539 129.92,64.688 128.987,64.688 C128.11,64.688 127.759,65.488 127.703,66.029 L130.137,66.029 L130.137,66.029 Z" id="Fill-7"></path>
            <path d="M134.194,65.662 C134.194,64.687 134.178,64.052 134.142,63.485 L135.896,63.485 L135.979,64.718 L136.03,64.718 C136.371,63.743 137.17,63.335 137.814,63.335 C138.005,63.335 138.098,63.35 138.248,63.376 L138.248,65.31 C138.073,65.285 137.913,65.259 137.681,65.259 C136.922,65.259 136.412,65.646 136.277,66.296 C136.247,66.43 136.236,66.579 136.236,66.755 L136.236,70.098 L134.178,70.098 L134.194,65.662" id="Fill-8"></path>
            <path d="M142.021,63.486 L142.913,66.556 C143.073,67.107 143.181,67.633 143.289,68.165 L143.331,68.165 C143.439,67.623 143.547,67.122 143.697,66.556 L144.548,63.486 L146.709,63.486 L144.249,70.094 L142.196,70.094 L139.792,63.486 L142.021,63.486" id="Fill-9"></path>
            <path d="M149.577,62.621 C148.886,62.621 148.442,62.136 148.442,61.528 C148.442,60.904 148.901,60.434 149.603,60.434 C150.304,60.434 150.738,60.904 150.753,61.528 C150.753,62.136 150.304,62.621 149.593,62.621 L149.577,62.621 Z M148.561,70.095 L150.614,70.095 L150.614,63.488 L148.561,63.488 L148.561,70.095 Z" id="Fill-10"></path>
            <path d="M153.187,65.594 C153.187,64.768 153.161,64.082 153.135,63.484 L154.915,63.484 L155.013,64.402 L155.054,64.402 C155.322,63.974 155.982,63.34 157.091,63.34 C158.442,63.34 159.458,64.243 159.458,66.187 L159.458,70.097 L157.406,70.097 L157.406,66.434 C157.406,65.578 157.106,65 156.364,65 C155.796,65 155.456,65.393 155.307,65.769 C155.255,65.903 155.24,66.094 155.24,66.285 L155.24,70.097 L153.187,70.097 L153.187,65.594" id="Fill-11"></path>
            <path d="M166.974,69.933 C166.607,70.108 165.921,70.242 165.138,70.242 C163.002,70.242 161.635,68.932 161.635,66.853 C161.635,64.919 162.961,63.335 165.421,63.335 C165.958,63.335 166.556,63.434 166.989,63.594 L166.664,65.12 C166.422,65.012 166.056,64.919 165.514,64.919 C164.431,64.919 163.729,65.687 163.745,66.771 C163.745,67.988 164.555,68.633 165.555,68.633 C166.04,68.633 166.422,68.556 166.731,68.421 L166.974,69.933" id="Fill-12"></path>
            <path d="M171.084,66.284 L171.11,66.284 C171.259,66 171.419,65.731 171.584,65.484 L172.92,63.488 L175.396,63.488 L173.029,66.16 L175.731,70.095 L173.204,70.095 L171.6,67.377 L171.084,68.042 L171.084,70.095 L169.031,70.095 L169.031,60.496 L171.084,60.496 L171.084,66.284" id="Fill-13"></path>
            <path d="M179.573,61.688 L179.573,63.489 L181.049,63.489 L181.049,64.999 L179.573,64.999 L179.573,67.403 C179.573,68.203 179.774,68.569 180.383,68.569 C180.667,68.569 180.801,68.554 180.992,68.512 L181.007,70.07 C180.75,70.163 180.249,70.246 179.682,70.246 C179.021,70.246 178.464,70.013 178.129,69.678 C177.748,69.286 177.562,68.646 177.562,67.718 L177.562,64.999 L176.68,64.999 L176.68,63.489 L177.562,63.489 L177.562,62.24 L179.573,61.688" id="Fill-14"></path>
            <path d="M184.103,70.244 C183.412,70.244 182.911,69.717 182.911,69 C182.911,68.258 183.412,67.742 184.128,67.742 C184.83,67.742 185.32,68.243 185.33,69 C185.33,69.717 184.845,70.244 184.118,70.244 L184.103,70.244" id="Fill-15"></path>
            <path d="M192.442,69.933 C192.076,70.108 191.39,70.242 190.605,70.242 C188.47,70.242 187.104,68.932 187.104,66.853 C187.104,64.919 188.429,63.335 190.889,63.335 C191.426,63.335 192.024,63.434 192.458,63.594 L192.132,65.12 C191.89,65.012 191.524,64.919 190.982,64.919 C189.899,64.919 189.198,65.687 189.213,66.771 C189.213,67.988 190.023,68.633 191.023,68.633 C191.508,68.633 191.89,68.556 192.199,68.421 L192.442,69.933" id="Fill-16"></path>
            <path d="M197.391,70.244 C195.456,70.244 193.971,68.975 193.971,66.839 C193.971,64.704 195.379,63.337 197.514,63.337 C199.526,63.337 200.877,64.73 200.877,66.731 C200.877,69.135 199.16,70.244 197.406,70.244 L197.391,70.244 Z M197.432,68.768 C198.241,68.768 198.742,67.975 198.742,66.783 C198.742,65.813 198.365,64.812 197.432,64.812 C196.457,64.812 196.08,65.813 196.08,66.798 C196.08,67.917 196.555,68.768 197.416,68.768 L197.432,68.768 L197.432,68.768 Z" id="Fill-17"></path>
            <path d="M203.055,65.594 C203.055,64.768 203.029,64.082 203.003,63.484 L204.747,63.484 L204.824,64.392 L204.865,64.392 C205.149,63.959 205.742,63.34 206.867,63.34 C207.733,63.34 208.393,63.784 208.677,64.475 L208.703,64.475 C208.96,64.119 209.244,63.85 209.569,63.66 C209.936,63.458 210.338,63.34 210.828,63.34 C212.097,63.34 213.056,64.227 213.056,66.203 L213.056,70.097 L211.055,70.097 L211.055,66.512 C211.055,65.553 210.745,65 210.085,65 C209.595,65 209.27,65.326 209.121,65.718 C209.084,65.862 209.053,66.068 209.053,66.228 L209.053,70.097 L207.057,70.097 L207.057,66.393 C207.057,65.568 206.758,65 206.098,65 C205.567,65 205.257,65.403 205.139,65.728 C205.066,65.893 205.056,66.079 205.056,66.254 L205.056,70.097 L203.055,70.097 L203.055,65.594" id="Fill-18"></path>
            <polygon id="Fill-19" points="81.3 23.357 83.853 23.357 83.853 12.03 81.3 12.03"></polygon>
            <path d="M100.473,19.021 C100.421,17.66 100.37,16.03 100.37,14.369 L100.339,14.369 C99.967,15.813 99.498,17.423 99.06,18.753 L97.683,23.174 L95.681,23.174 L94.474,18.805 C94.103,17.459 93.737,15.865 93.448,14.369 L93.417,14.369 C93.365,15.896 93.298,17.644 93.231,19.057 L93.009,23.359 L90.642,23.359 L91.364,12.033 L94.779,12.033 L95.888,15.829 C96.254,17.123 96.589,18.536 96.842,19.862 L96.909,19.862 C97.213,18.552 97.6,17.072 97.987,15.798 L99.178,12.033 L102.541,12.033 L103.145,23.359 L100.659,23.359 L100.473,19.021" id="Fill-20"></path>
            <path d="M109.914,12.182 C110.703,12.048 111.812,11.945 113.375,11.945 C114.953,11.945 116.098,12.249 116.856,12.873 C117.578,13.425 118.047,14.369 118.047,15.478 C118.047,16.603 117.691,17.541 117.021,18.165 C116.149,18.97 114.839,19.357 113.323,19.357 C112.988,19.357 112.688,19.341 112.451,19.29 L112.451,23.36 L109.914,23.36 L109.914,12.182 Z M112.451,17.325 C112.668,17.376 112.936,17.391 113.307,17.391 C114.669,17.391 115.51,16.701 115.51,15.561 C115.51,14.519 114.803,13.895 113.508,13.895 C112.988,13.895 112.637,13.931 112.451,13.982 L112.451,17.325 L112.451,17.325 Z" id="Fill-21"></path>
            <path d="M124.48,12.199 C125.305,12.049 126.512,11.946 127.889,11.946 C129.571,11.946 130.747,12.199 131.557,12.853 C132.243,13.39 132.614,14.179 132.614,15.222 C132.614,16.65 131.587,17.645 130.613,17.996 L130.613,18.048 C131.402,18.368 131.84,19.105 132.124,20.147 C132.48,21.442 132.815,22.922 133.032,23.355 L130.412,23.355 C130.241,23.036 129.958,22.112 129.638,20.72 C129.318,19.29 128.833,18.919 127.776,18.904 L127.018,18.904 L127.018,23.355 L124.48,23.355 L124.48,12.199 Z M127.018,17.057 L128.023,17.057 C129.303,17.057 130.061,16.418 130.061,15.428 C130.061,14.401 129.354,13.865 128.178,13.865 C127.554,13.865 127.203,13.896 127.018,13.947 L127.018,17.057 L127.018,17.057 Z" id="Fill-22"></path>
            <polygon id="Fill-23" points="139.28 23.357 141.833 23.357 141.833 12.03 139.28 12.03"></polygon>
            <path d="M158.454,19.021 C158.402,17.66 158.351,16.03 158.351,14.369 L158.32,14.369 C157.948,15.813 157.479,17.423 157.041,18.753 L155.664,23.174 L153.667,23.174 L152.455,18.805 C152.084,17.459 151.718,15.865 151.429,14.369 L151.398,14.369 C151.346,15.896 151.279,17.644 151.212,19.057 L150.99,23.359 L148.623,23.359 L149.345,12.033 L152.76,12.033 L153.869,15.829 C154.235,17.123 154.57,18.536 154.823,19.862 L154.89,19.862 C155.194,18.552 155.581,17.072 155.968,15.798 L157.159,12.033 L160.522,12.033 L161.125,23.359 L158.64,23.359 L158.454,19.021" id="Fill-24"></path>
            <path d="M206.182,44.336 C206.889,44.718 207.977,45.006 209.205,45.006 C211.881,45.006 213.238,43.723 213.238,41.969 C213.217,40.607 212.49,39.689 210.716,39.096 C209.565,38.699 209.205,38.467 209.205,38.007 C209.205,37.548 209.607,37.265 210.313,37.265 C211.098,37.265 211.917,37.569 212.34,37.78 L212.835,35.79 C212.263,35.501 211.304,35.232 210.215,35.232 C207.905,35.232 206.409,36.553 206.409,38.311 C206.394,39.405 207.136,40.473 209.086,41.107 C210.159,41.468 210.448,41.7 210.448,42.196 C210.448,42.675 210.082,42.959 209.205,42.959 C208.343,42.959 207.234,42.598 206.698,42.273 L206.182,44.336 Z M201.623,44.795 L204.526,44.795 L204.526,31.219 L201.623,31.219 L201.623,44.795 Z M197.976,34.221 C198.987,34.221 199.621,33.53 199.621,32.669 C199.601,31.792 198.987,31.122 197.997,31.122 C197.001,31.122 196.351,31.792 196.351,32.669 C196.351,33.53 196.98,34.221 197.955,34.221 L197.976,34.221 Z M196.526,44.795 L199.43,44.795 L199.43,35.444 L196.526,35.444 L196.526,44.795 Z M193.396,44.795 L193.396,37.584 L195.247,37.584 L195.247,35.444 L193.375,35.444 L193.375,34.964 C193.375,34.046 193.777,33.303 194.731,33.303 C195.113,33.303 195.422,33.36 195.67,33.437 L195.784,31.199 C195.381,31.106 194.886,31.008 194.257,31.008 C193.396,31.008 192.4,31.256 191.652,31.947 C190.832,32.71 190.486,33.953 190.486,35.083 L190.486,35.444 L189.244,35.444 L189.244,37.584 L190.486,37.584 L190.486,44.795 L193.396,44.795 Z M182.079,35.676 C182.698,35.676 182.992,36.218 182.992,36.713 C182.992,37.316 182.605,37.719 181.847,38.245 C181.373,37.734 181.14,37.269 181.14,36.744 C181.14,36.186 181.465,35.676 182.063,35.676 L182.079,35.676 Z M181.785,43.263 C180.707,43.263 180.042,42.526 180.042,41.628 C180.042,40.947 180.444,40.498 180.877,40.189 C181.723,41.148 182.574,42.108 183.224,42.742 C182.915,43.031 182.404,43.263 181.801,43.263 L181.785,43.263 Z M187.737,44.795 C187.087,44.099 186.484,43.418 185.896,42.758 C186.824,41.721 187.351,40.375 187.629,38.802 L185.524,38.802 C185.385,39.73 185.061,40.685 184.643,41.334 C184.137,40.808 183.503,40.05 182.915,39.39 L182.915,39.328 C184.354,38.601 184.968,37.703 184.968,36.651 C184.968,35.155 183.766,34.211 182.157,34.211 C180.057,34.211 179.021,35.629 179.021,36.96 C179.021,37.703 179.361,38.477 179.81,38.972 L179.81,39.019 C178.618,39.647 177.834,40.638 177.834,42.015 C177.834,43.48 178.943,44.965 181.465,44.965 C182.698,44.965 183.642,44.578 184.323,44.052 C184.57,44.331 184.782,44.563 184.999,44.795 L187.737,44.795 Z M170.149,44.795 L173.058,44.795 L173.058,34.355 L176.576,34.355 L176.576,31.906 L166.672,31.906 L166.672,34.355 L170.149,34.355 L170.149,44.795 Z M156.047,44.795 L158.936,44.795 L158.936,40.586 L160.024,39.229 L163.201,44.795 L166.585,44.795 L162.108,37.394 L166.374,31.906 L162.778,31.906 L159.875,36.192 C159.565,36.651 159.261,37.11 158.972,37.605 L158.936,37.605 L158.936,31.906 L156.047,31.906 L156.047,44.795 Z M153.84,42.159 C153.247,42.407 152.287,42.578 151.39,42.578 C148.811,42.578 147.279,40.953 147.279,38.373 C147.279,35.485 149.079,34.087 151.374,34.087 C152.421,34.087 153.247,34.314 153.819,34.562 L154.433,32.271 C153.917,32.003 152.767,31.694 151.255,31.694 C147.356,31.694 144.22,34.123 144.22,38.523 C144.22,42.216 146.516,45.006 150.972,45.006 C152.519,45.006 153.742,44.697 154.257,44.45 L153.84,42.159 Z M134.441,44.795 L134.441,40.916 C134.441,38.812 134.399,36.997 134.307,35.274 L134.384,35.274 C134.993,36.785 135.854,38.43 136.617,39.823 L139.372,44.795 L142.43,44.795 L142.43,31.906 L139.753,31.906 L139.753,35.655 C139.753,37.605 139.81,39.349 139.985,41.045 L139.944,41.045 C139.351,39.596 138.608,37.987 137.845,36.63 L135.168,31.906 L131.764,31.906 L131.764,44.795 L134.441,44.795 Z M126.472,44.795 L129.375,44.795 L129.375,31.905 L126.472,31.905 L126.472,44.795 Z M120.881,44.795 L125.218,31.906 L122.124,31.906 L120.479,37.414 C120.04,38.89 119.638,40.416 119.313,41.969 L119.256,41.969 C118.946,40.359 118.549,38.905 118.106,37.357 L116.538,31.906 L113.345,31.906 L117.477,44.795 L120.881,44.795 Z M106.237,34.087 C106.449,34.031 106.851,33.989 107.558,33.989 C108.899,33.989 109.698,34.603 109.698,35.769 C109.698,36.898 108.837,37.626 107.388,37.626 L106.237,37.626 L106.237,34.087 Z M103.354,44.795 L106.237,44.795 L106.237,39.73 L107.099,39.73 C108.306,39.746 108.857,40.168 109.224,41.793 C109.585,43.382 109.91,44.429 110.101,44.795 L113.082,44.795 C112.834,44.3 112.453,42.613 112.05,41.144 C111.726,39.957 111.23,39.116 110.333,38.755 L110.333,38.699 C111.442,38.296 112.607,37.167 112.607,35.542 C112.607,34.355 112.185,33.458 111.4,32.844 C110.482,32.096 109.146,31.812 107.233,31.812 C105.665,31.812 104.288,31.926 103.354,32.096 L103.354,44.795 Z M100.951,36.976 L96.21,36.976 L96.21,34.299 L101.234,34.299 L101.234,31.906 L93.301,31.906 L93.301,44.795 L101.502,44.795 L101.502,42.407 L96.21,42.407 L96.21,39.349 L100.951,39.349 L100.951,36.976 Z M87.71,44.795 L92.048,31.906 L88.948,31.906 L87.308,37.414 C86.864,38.89 86.467,40.416 86.142,41.969 L86.081,41.969 C85.776,40.359 85.373,38.905 84.935,37.357 L83.367,31.906 L80.174,31.906 L84.306,44.795 L87.71,44.795 L87.71,44.795 Z" id="Fill-25"></path>
            <polyline id="Fill-26" points="174.649 18.567 170.481 18.567 170.481 21.255 175.134 21.255 175.134 23.359 167.928 23.359 167.928 12.033 174.902 12.033 174.902 14.132 170.481 14.132 170.481 16.484 174.649 16.484 174.649 18.567"></polyline>
            <path d="M181.688,12.199 C182.514,12.049 183.72,11.946 185.098,11.946 C186.779,11.946 187.955,12.199 188.765,12.853 C189.451,13.39 189.822,14.179 189.822,15.222 C189.822,16.65 188.796,17.645 187.821,17.996 L187.821,18.048 C188.61,18.368 189.048,19.105 189.332,20.147 C189.688,21.442 190.023,22.922 190.24,23.355 L187.62,23.355 C187.45,23.036 187.166,22.112 186.846,20.72 C186.526,19.29 186.042,18.919 184.984,18.904 L184.226,18.904 L184.226,23.355 L181.688,23.355 L181.688,12.199 Z M184.226,17.057 L185.231,17.057 C186.511,17.057 187.269,16.418 187.269,15.428 C187.269,14.401 186.563,13.865 185.386,13.865 C184.762,13.865 184.412,13.896 184.226,13.947 L184.226,17.057 L184.226,17.057 Z" id="Fill-27"></path>
            <polygon id="Fill-28" points="196.492 23.357 199.045 23.357 199.045 12.03 196.492 12.03"></polygon>
            <polyline id="Fill-29" points="212.822 18.567 208.654 18.567 208.654 21.255 213.307 21.255 213.307 23.359 206.101 23.359 206.101 12.033 213.075 12.033 213.075 14.132 208.654 14.132 208.654 16.484 212.822 16.484 212.822 18.567"></polyline>
        </g>
    </g>
</svg>
